<?xml version="1.0" encoding="utf-8"?>
<!-- Generator: Adobe Illustrator 22.1.0, SVG Export Plug-In . SVG Version: 6.00 Build 0)  -->
<svg version="1.1" id="katman_1" xmlns="http://www.w3.org/2000/svg" xmlns:xlink="http://www.w3.org/1999/xlink" x="0px" y="0px"
	 viewBox="0 0 628.4 405.6" style="enable-background:new 0 0 628.4 405.6;" xml:space="preserve">
<style type="text/css">
	.st0{opacity:0.5;fill:url(#SVGID_1_);enable-background:new    ;}
	.st1{opacity:0.5;fill:url(#SVGID_2_);enable-background:new    ;}
	.st2{opacity:0.5;fill:url(#SVGID_3_);enable-background:new    ;}
	.st3{fill:url(#SVGID_4_);}
	.st4{fill:url(#SVGID_5_);}
	.st5{fill:#51ADC6;}
	.st6{fill:url(#SVGID_6_);}
	.st7{fill:#0074E5;}
	.st8{fill:#C9C9C9;}
	.st9{fill:url(#SVGID_7_);}
	.st10{fill:url(#SVGID_8_);}
	.st11{fill:url(#SVGID_9_);}
	.st12{fill:url(#SVGID_10_);}
	.st13{fill:#FFFFFF;}
	.st14{fill:none;stroke:#5D13E7;stroke-width:5;stroke-miterlimit:10;}
	.st15{fill:url(#SVGID_11_);}
	.st16{fill:#1F1C38;}
	.st17{fill:#121226;}
	.st18{fill:url(#SVGID_12_);}
	.st19{fill:url(#SVGID_13_);}
	.st20{fill:url(#SVGID_14_);}
	.st21{fill:url(#SVGID_15_);}
	.st22{fill:url(#SVGID_16_);}
	.st23{fill:url(#SVGID_17_);}
	.st24{fill:url(#SVGID_18_);}
	.st25{fill:#615AA3;}
	.st26{fill:#C6C6C6;}
	.st27{fill:#828282;}
	.st28{fill:url(#SVGID_19_);}
	.st29{fill:url(#SVGID_20_);}
	.st30{fill:url(#SVGID_21_);}
	.st31{fill:url(#SVGID_22_);}
	.st32{fill:url(#SVGID_23_);}
	.st33{fill:url(#SVGID_24_);}
	.st34{fill:url(#SVGID_25_);}
	.st35{fill:url(#SVGID_26_);}
	.st36{fill:url(#SVGID_27_);}
	.st37{fill:url(#SVGID_28_);}
	.st38{fill:url(#SVGID_29_);}
	.st39{fill:#F79244;}
	.st40{fill:url(#SVGID_30_);}
	.st41{fill:url(#SVGID_31_);}
	.st42{fill:url(#SVGID_32_);}
	.st43{fill:url(#SVGID_33_);}
	.st44{fill:url(#SVGID_34_);}
	.st45{fill:url(#SVGID_35_);}
	.st46{fill:url(#SVGID_36_);}
</style>
<title>randevu-yonetimi</title>
<g id="katman_2_1_">
	<g id="katman_1-2">
		<g id="katman_2-2">
			<g id="OBJECTS">
				
					<linearGradient id="SVGID_1_" gradientUnits="userSpaceOnUse" x1="-3.059838e-02" y1="-131.4454" x2="599.0379" y2="-131.4454" gradientTransform="matrix(1 0 0 -1 0 48)">
					<stop  offset="0" style="stop-color:#8AEBD6"/>
					<stop  offset="0.46" style="stop-color:#89E9D7"/>
					<stop  offset="0.63" style="stop-color:#84E2DA"/>
					<stop  offset="0.75" style="stop-color:#7DD7DE"/>
					<stop  offset="0.84" style="stop-color:#72C6E5"/>
					<stop  offset="0.92" style="stop-color:#64B0EE"/>
					<stop  offset="0.99" style="stop-color:#5395F9"/>
					<stop  offset="1" style="stop-color:#5193FA"/>
				</linearGradient>
				<path class="st0" d="M589.2,358.8l-0.8-0.4H45.2c-18.7-11.4-33-28.7-40.5-49.2c-4.2-11.3-6.2-23.8-3.5-35.6
					c7.7-34,49.8-50.5,60.5-83.7c6.5-20.1,0-41.9,0.4-63c0.4-23,9.9-46.6,28.4-60.1c36.3-26.5,88.9-6.7,131.2-21.8
					c28-10.1,49.3-34.9,78-42.6c24.3-6.5,51.8,1,69.4,19c21.9,22.4,29,59,56.5,74c28.2,15.3,70,2.8,90.1,27.8
					c21.2,26.2-2,70.5,18.8,97c6.8,8.6,17.1,13.6,26.1,19.9C597,265.7,609.8,319.4,589.2,358.8z"/>
				
					<linearGradient id="SVGID_2_" gradientUnits="userSpaceOnUse" x1="329.2038" y1="-310.4" x2="329.2038" y2="47.9092" gradientTransform="matrix(1 0 0 -1 0 48)">
					<stop  offset="0" style="stop-color:#8AEBD6"/>
					<stop  offset="0.46" style="stop-color:#89E9D7"/>
					<stop  offset="0.63" style="stop-color:#84E2DA"/>
					<stop  offset="0.75" style="stop-color:#7DD7DE"/>
					<stop  offset="0.84" style="stop-color:#72C6E5"/>
					<stop  offset="0.92" style="stop-color:#64B0EE"/>
					<stop  offset="0.99" style="stop-color:#5395F9"/>
					<stop  offset="1" style="stop-color:#5193FA"/>
				</linearGradient>
				<path class="st1" d="M618.4,358.4H75.2c-18.7-11.4-33-28.7-40.5-49.2c-4.2-11.3-6.1-23.8-3.5-35.6c7.7-34,49.8-50.5,60.5-83.7
					c6.5-20.1,0-41.9,0.4-63c0.4-23,9.9-46.6,28.4-60.1c36.3-26.5,88.9-6.7,131.2-21.8c28-10.1,49.3-34.9,78-42.6
					c24.3-6.5,51.8,1,69.4,19c21.9,22.4,29,59,56.5,74c28.2,15.3,70,2.8,90.1,27.8c21.2,26.2-2,70.5,18.8,97
					c6.8,8.6,17.1,13.6,26.1,19.9C627,265.7,638.9,319,618.4,358.4z"/>
				
					<linearGradient id="SVGID_3_" gradientUnits="userSpaceOnUse" x1="331.4" y1="-357.64" x2="331.4" y2="-310.34" gradientTransform="matrix(1 0 0 -1 0 48)">
					<stop  offset="0" style="stop-color:#8AEBD6"/>
					<stop  offset="0.46" style="stop-color:#89E9D7"/>
					<stop  offset="0.63" style="stop-color:#84E2DA"/>
					<stop  offset="0.75" style="stop-color:#7DD7DE"/>
					<stop  offset="0.84" style="stop-color:#72C6E5"/>
					<stop  offset="0.92" style="stop-color:#64B0EE"/>
					<stop  offset="0.99" style="stop-color:#5395F9"/>
					<stop  offset="1" style="stop-color:#5193FA"/>
				</linearGradient>
				<path class="st2" d="M45,358.4h572.8c0,0-52.8,47.3-291.8,47.3S45,358.4,45,358.4z"/>
				
					<linearGradient id="SVGID_4_" gradientUnits="userSpaceOnUse" x1="271.4485" y1="-310.4" x2="271.4485" y2="-139.0442" gradientTransform="matrix(1 0 0 -1 0 48)">
					<stop  offset="0" style="stop-color:#51ADC6"/>
					<stop  offset="1.000000e-02" style="stop-color:#55AFC4"/>
					<stop  offset="7.000000e-02" style="stop-color:#74BFB5"/>
					<stop  offset="0.13" style="stop-color:#8FCDA7"/>
					<stop  offset="0.21" style="stop-color:#A5D89D"/>
					<stop  offset="0.3" style="stop-color:#B6E194"/>
					<stop  offset="0.41" style="stop-color:#C1E78E"/>
					<stop  offset="0.57" style="stop-color:#C8EA8B"/>
					<stop  offset="1" style="stop-color:#CAEB8A"/>
				</linearGradient>
				<path class="st3" d="M27.3,316c0.1,15.5,8.2,29.2,15.4,42.4h57.9c3.6-8.8,12-15,20.7-15c5.2,0,11,1.7,14.9-2
					c4.3-4.1,3-11.8,5.2-17.5c3.1-8.2,12.4-10.9,20.4-11.8s17-1.5,22.4-8.2c5.1-6.4,4.9-15.8,6-24.3c1-7.2,3.3-14.5,7.8-19.8
					s11.6-8.4,18-6.4c11.8,3.7,14.6,20.4,21.5,31.5c5.3,8.5,13.9,14.3,23.1,15.6c6.9,1,14.3-0.3,20.6,2.9
					c10.9,5.6,13.3,21.7,21.7,31.3c8.2,9.4,22.6,11.1,32.5,3.9c3.7-2.7,6.9-6.6,11.2-8.1c10.2-3.5,19.1,7.9,28.6,13.4
					c9.3,5.4,20.8,5.2,29.9-0.5c11.5-7.3,18.6-22.5,31.5-26.4c10.7-3.2,23.7,2.3,32.2-5.5c3-2.7,4.8-6.6,6-10.7
					c4.3-15,0.5-31.7,4.8-46.6c4.8-16.5,20.6-27.3,36-27c-1.5-1.8-3.2-3.5-5-5.1c-11.2-9.6-28.1-11.5-39.4-2
					c-12.5,10.6-17.1,32.9-32.6,36.4c-14.8,3.3-29.1-14-43.5-9.1c-11.7,4.1-15.5,19.9-17.6,33.3s-6.3,29.2-18.2,32.6
					c-9.4,2.7-18.8-4.1-25.9-11.4s-14.2-15.8-23.8-17.6c-7.2-1.4-14.9,1.4-21.8-1.5c-8.7-3.7-12.4-15-13.9-25.2s-2-21.2-7.7-29.4
					c-8.9-12.6-26.4-12.3-40-6.9c-3.7,1.5-7.5,3.3-11.4,2.8c-3.6-0.5-6.8-2.9-9.4-5.5c-11.5-11.4-19.6-30.3-35-31.5
					s-26.5,17.2-28.4,34.2c-1.7,15.1-1,34.3-13.3,41c-12.8,7-31-5.7-41.2,5.4c-4.6,5-5.5,13.6-10.9,17.5c-7.2,5.3-16.6-0.9-25.2-1.1
					C37.4,283.8,27.1,300.5,27.3,316z"/>
				
					<linearGradient id="SVGID_5_" gradientUnits="userSpaceOnUse" x1="100.6" y1="-244.897" x2="588.8561" y2="-244.897" gradientTransform="matrix(1 0 0 -1 0 48)">
					<stop  offset="0" style="stop-color:#CAEB8A"/>
					<stop  offset="0.43" style="stop-color:#C8EA8B"/>
					<stop  offset="0.59" style="stop-color:#C1E78E"/>
					<stop  offset="0.7" style="stop-color:#B6E194"/>
					<stop  offset="0.79" style="stop-color:#A5D89D"/>
					<stop  offset="0.87" style="stop-color:#8FCDA7"/>
					<stop  offset="0.93" style="stop-color:#74BFB5"/>
					<stop  offset="0.99" style="stop-color:#55AFC4"/>
					<stop  offset="1" style="stop-color:#51ADC6"/>
				</linearGradient>
				<path class="st4" d="M100.6,358.4h480.7c7.4-8.2,9.5-21.5,5.7-32.3c-3.8-11-13.1-19.2-24.5-21.6c-8-1.6-16.8-0.3-23.5-5.3
					c-9.7-7.4-9-23-10.1-36s-5.4-26.2-13.3-35.8c-15.4-0.3-31.2,10.5-36,27c-4.4,14.9-0.5,31.6-4.8,46.6c-1.2,4-3,8-6,10.7
					c-8.5,7.8-21.5,2.4-32.2,5.5c-12.8,3.8-19.9,19.1-31.5,26.4c-9.1,5.7-20.6,5.9-29.9,0.5c-9.5-5.6-18.4-17-28.6-13.4
					c-4.3,1.5-7.4,5.3-11.2,8.1c-9.8,7.2-24.2,5.5-32.5-3.9c-8.4-9.6-10.8-25.6-21.7-31.3c-6.3-3.3-13.7-1.9-20.6-2.9
					c-9.2-1.4-17.8-7.2-23.1-15.6c-7-11.1-9.8-27.8-21.5-31.5c-6.4-2-13.4,1-18,6.4s-6.9,12.6-7.8,19.8c-1.1,8.4-0.9,17.9-6,24.3
					c-5.4,6.7-14.4,7.3-22.4,8.2s-17.2,3.5-20.4,11.8c-2.2,5.8-0.9,13.5-5.2,17.5c-3.9,3.7-9.8,2-14.9,2
					C112.6,343.4,104.2,349.6,100.6,358.4z"/>
				<path class="st5" d="M47.1,324.5c2.3-6.1,7.7-10.5,13.6-11c7.4-0.7,17.1,4,21.9-4.9c3.1-5.8,2.7-13.1,5.4-19.2
					c6.5-14.6,24.2-9.7,35.8-10.1c8.7-0.3,15.7-4.3,20.3-12.5c4.1-7.3,5.7-15.7,7.3-24c1.7-8.8,3.7-18.1,9-25.2
					c4.6-6.1,11.5-10.4,18.9-9c0.6,0.1,0.4,1.2-0.3,1.1c-7.8-1.4-14.8,3.9-19.2,10.6c-4.5,6.9-6.1,15.6-7.7,23.8
					c-2.5,12.9-6.1,28.7-18.4,34.3c-12.8,5.8-28.6-3.7-40.5,5.8c-5.5,4.4-6.1,11.8-7.6,18.5c-1.2,5.4-3.5,10.6-8.8,12.2
					c-3.7,1.1-7.6,0.3-11.3-0.1c-4.3-0.4-8.4,0-12,2.7c-7.7,5.7-8.7,17.7-2.5,25.2c0.4,0.5-0.3,1.3-0.7,0.8
					C46.1,338.1,44.8,330.9,47.1,324.5z"/>
				<path class="st5" d="M71.6,331.1c8.3-3.5,18.8-1.5,24.3-10.7c4-6.8,5-15.1,11.4-20c5.4-4.1,12.6-4.9,18.7-2
					c0.6,0.3,0.1,1.2-0.5,1c-6.7-3.1-14.6-1.5-19.7,3.8c-4.9,5.1-5.7,13-9.7,18.8c-4.1,6.1-10.9,7.1-17.2,8.3
					c-3.6,0.7-7.4,1.5-10.5,3.9c-3.5,2.7-5.8,7.8-4,12.3c0.3,0.6-0.6,1.2-0.9,0.5C60.8,340,65.9,333.5,71.6,331.1z"/>
				<path class="st5" d="M141.9,308.1c8-4,17.6-3.9,24.5-10.3c13.6-12.5,10.1-35.4,20.9-49.8c4.9-6.6,13.1-11.1,20.8-8
					c0.6,0.2,0.3,1.3-0.3,1.1c-7.6-3-15.5,1.6-20.2,8.3c-5.1,7.3-6.8,16.7-9,25.4c-1.8,7.2-4,14.5-8.4,20.4
					c-4.8,6.5-11.6,8.8-18.6,10.8c-8.4,2.4-21.4,7.5-18.9,20c0.1,0.3-0.1,0.6-0.3,0.7c-0.3,0.1-0.6-0.1-0.7-0.3c0,0,0,0,0-0.1
					C130.2,318,135.7,311.3,141.9,308.1z"/>
				<path class="st5" d="M229.3,234.5c7.4-4.4,16.2-0.2,21.2,6.4c6.5,8.5,7.5,20.3,10.5,30.5c1.5,5.3,3.6,10.7,7.1,14.9
					c3.6,4.4,8.3,6.6,13.5,7.6c8.6,1.7,17.9,1.5,23.8,9.8c3.3,4.6,4.9,10.2,7.5,15.2c3,5.9,8.5,12.3,15.2,10.5
					c0.6-0.2,0.9,0.9,0.2,1.1c-9.1,2.4-15-7.7-18.4-15.5c-2.1-4.8-4.1-10-7.9-13.5c-4.1-3.8-9.5-4.7-14.7-5.5
					c-4.2-0.6-8.6-1.1-12.5-2.9c-3.9-1.9-7.1-4.9-9.4-8.5c-5.7-8.8-6.8-19.9-9.7-29.9c-1.9-6.4-4.7-12.7-9.7-16.8
					c-4.7-3.8-10.9-5.5-16.2-2.3C229.2,235.8,228.7,234.8,229.3,234.5z"/>
				<path class="st5" d="M376,325.7c3.5,4.1,8.9,4.4,13.5,2.5c5.2-2.1,8.8-7.2,11.8-12.2c5-8.1,9.9-18.4,19.4-20.5
					c9.7-2.2,20.5,4.9,29.5-1.5c9.4-6.6,10.1-20.4,11.9-31.3c1.7-10.5,6-23.1,16.8-25.3c0.6-0.1,0.9,0.9,0.2,1.1
					c-12.2,2.4-15.1,17.6-16.7,28.9c-1.4,10-3.4,22-12,27.7c-9.2,6.1-19.7-0.8-29.4,1.4c-11.1,2.5-15.4,16.1-21.9,24.8
					c-3.2,4.3-7.1,7.8-12.2,8.8c-4.2,0.8-8.5-0.1-11.5-3.6C374.8,325.9,375.5,325.1,376,325.7z"/>
				<path class="st5" d="M511.9,243.3c-7.7,4.7-13.8,11.6-17.5,19.8c-4.2,9.1-5.2,18.8-4,28.8c1.3,10.6,4,25-5.4,32.4
					c-8.8,6.9-20.3,2.9-30.2,4c-8.2,0.9-18.1,7.3-16.5,17.9c0.1,0.6,1,0.4,0.9-0.3c-0.8-5.6,2.4-10.6,6.5-13.5
					c4.5-3.1,10-3.5,15.1-3.4c8.4,0.2,18,1.7,25.2-4.4c6.8-5.7,7.3-16,6.3-24.6c-0.6-5.6-1.7-11.3-1.6-17c0.1-4.9,0.9-9.8,2.4-14.5
					c3.4-10.5,10.3-19.4,19.2-24.6C512.9,243.9,512.4,243,511.9,243.3z"/>
				<path class="st5" d="M522.1,294.6c-12.7,5-5.1,23.9-8.3,34.1c-2.7,8.6-10.3,8.1-17.1,9.4c-4.8,0.9-10.1,4.3-9.5,10.5
					c0.1,0.6,1,0.6,0.9,0c-0.9-9,9.5-9.5,15-10.3c4.7-0.7,8.9-2.8,11-7.8c2.2-5.4,1.5-11.3,1.2-17c-0.3-6.6,0.4-15.3,7-17.9
					C522.9,295.4,522.6,294.4,522.1,294.6z"/>
				<path class="st5" d="M264.1,319.1c-5.9-2-12-0.8-18-1.1c-3.6,0-7-1.2-9.8-3.4c-2.1-2-3.9-4.2-5.4-6.7c-2.4-3.7-5-8-9-9.7
					c-5-2-9.8,1-13.1,5c-4,5-5.6,11.4-8.5,17c-1.4,3.1-3.6,5.7-6.4,7.7c-3.3,2-7.1,2.4-10.8,2.2c-7.4-0.5-15.4-3.8-22.6-0.7
					c-5,2.2-9.2,7.9-7.7,14.1c0,0.3,0.3,0.4,0.5,0.4l0,0c0.3,0,0.4-0.3,0.4-0.5l0,0v-0.1c-2-8.5,6.3-13.7,12.8-14
					c6.2-0.3,12.3,2,18.6,2c5.1,0,9.9-1.7,13.3-6s5-9.8,7.3-14.8c2.6-5.8,7.8-13,14.5-11.7c4.8,1,7.6,6,10.2,10
					c2.4,3.7,5.1,7.3,9.1,9c5.1,2.2,10.8,1.2,16.1,1.2c6.5-0.2,12.8,2.3,17.4,6.9c4.9,4.9,7.9,11.5,8.3,18.4c0,0.3,0.1,0.5,0.4,0.5
					s0.5-0.1,0.5-0.4v-0.1C281.3,332.8,273.9,322.5,264.1,319.1z"/>
				
					<linearGradient id="SVGID_6_" gradientUnits="userSpaceOnUse" x1="241.9" y1="-190.8" x2="543.3" y2="-190.8" gradientTransform="matrix(1 0 0 -1 0 48)">
					<stop  offset="0" style="stop-color:#F9E6D9"/>
					<stop  offset="0.12" style="stop-color:#FCF1EA"/>
					<stop  offset="0.27" style="stop-color:#FEF9F6"/>
					<stop  offset="0.48" style="stop-color:#FFFEFD"/>
					<stop  offset="1" style="stop-color:#FFFFFF"/>
				</linearGradient>
				<path class="st6" d="M543.3,119.3v239H241.9v-239L543.3,119.3z M527.5,272.4v-13.2c0-7.4-6-13.4-13.4-13.4h-18
					c-7.4,0-13.4,6-13.4,13.4l0,0l0,0v13.2c0,7.4,6,13.4,13.4,13.4l0,0h18C521.5,285.8,527.5,279.8,527.5,272.4z M526.4,160.2V147
					c0-7.4-6-13.4-13.4-13.4l0,0h-18c-7.4,0-13.4,6-13.4,13.4v13.2c0,7.4,6,13.4,13.4,13.4h18C520.4,173.6,526.4,167.6,526.4,160.2
					L526.4,160.2L526.4,160.2L526.4,160.2z M525.8,216.3v-13.2c0-7.4-6-13.4-13.4-13.4h-18c-7.4,0-13.4,6-13.4,13.4l0,0v13.2
					c0,7.4,6,13.4,13.4,13.4h18C519.8,229.7,525.8,223.7,525.8,216.3L525.8,216.3L525.8,216.3z M472.9,272.4v-13.2
					c0-7.4-6-13.4-13.4-13.4l0,0h-18c-7.4,0-13.4,6-13.4,13.4v13.2c0,7.4,6,13.4,13.4,13.4h18C466.9,285.8,472.9,279.8,472.9,272.4
					L472.9,272.4L472.9,272.4z M471.8,160.2V147c0-7.4-6-13.4-13.4-13.4h-18c-7.4,0-13.4,6-13.4,13.4v13.2c0,7.4,6,13.4,13.4,13.4
					l0,0h18C465.8,173.7,471.8,167.7,471.8,160.2L471.8,160.2L471.8,160.2L471.8,160.2z M471.2,216.3v-13.2c0-7.4-6-13.4-13.4-13.4
					l0,0h-18c-7.4,0-13.4,6-13.4,13.4l0,0l0,0v13.2c0,7.4,6,13.4,13.4,13.4l0,0h18C465.2,229.7,471.2,223.7,471.2,216.3L471.2,216.3
					L471.2,216.3z M417.1,272.4v-13.2c0-7.4-6-13.4-13.4-13.4l0,0h-18c-7.4,0-13.4,6-13.4,13.4l0,0l0,0v13.2c0,7.4,6,13.4,13.4,13.4
					l0,0h18C411.1,285.8,417.1,279.8,417.1,272.4L417.1,272.4z M416.5,328.5v-13.2c0-7.4-6-13.4-13.4-13.4h-18
					c-7.4,0-13.4,6-13.4,13.4v13.2c0,7.4,6,13.4,13.4,13.4h18C410.5,341.9,416.5,335.9,416.5,328.5L416.5,328.5L416.5,328.5z
					 M416,160.2V147c0-7.4-6-13.4-13.4-13.4l0,0h-18c-7.4,0-13.4,6-13.4,13.4v13.2c0,7.4,6,13.4,13.4,13.4l0,0h18
					C410,173.7,416,167.7,416,160.2C416,160.3,416,160.3,416,160.2L416,160.2z M415.4,216.3v-13.2c0-7.4-6-13.4-13.4-13.4h-18
					c-7.4,0-13.4,6-13.4,13.4l0,0v13.2c0,7.4,5.9,13.4,13.3,13.5c0,0,0,0,0.1,0h18C409.4,229.7,415.4,223.7,415.4,216.3L415.4,216.3
					z M359,272.4v-13.2c0-7.4-6-13.4-13.4-13.4l0,0h-18c-7.4,0-13.4,6-13.4,13.4l0,0v13.2c0,7.4,6,13.4,13.4,13.4l0,0h18
					C353,285.8,359,279.8,359,272.4z M358.4,328.5v-13.2c0-7.4-6-13.4-13.4-13.4h-18c-7.4,0-13.4,6-13.4,13.4v13.2
					c0,7.4,6,13.4,13.4,13.4h18C352.4,341.9,358.4,335.9,358.4,328.5L358.4,328.5z M357.9,160.2V147c0-7.4-6-13.4-13.4-13.4l0,0h-18
					c-7.4,0-13.4,6-13.4,13.4l0,0l0,0v13.2c0,7.4,6,13.4,13.4,13.4l0,0h18C351.9,173.7,357.9,167.7,357.9,160.2L357.9,160.2
					L357.9,160.2L357.9,160.2z M357.3,216.3v-13.2c0-7.4-6-13.4-13.4-13.4h-18c-7.4,0-13.4,6-13.4,13.4l0,0v13.2
					c0,7.4,6,13.4,13.4,13.4l0,0h18C351.3,229.7,357.3,223.7,357.3,216.3C357.3,216.2,357.3,216.2,357.3,216.3L357.3,216.3z
					 M303.2,272.4v-13.2c0-7.4-6-13.4-13.4-13.4l0,0h-18c-7.4,0-13.4,6-13.4,13.4l0,0v13.2c0,7.4,6,13.4,13.4,13.4h18
					C297.2,285.8,303.2,279.8,303.2,272.4L303.2,272.4L303.2,272.4z M302.6,328.5v-13.2c0-7.4-6-13.4-13.4-13.4h-18
					c-7.4,0-13.4,6-13.4,13.4v13.2c0,7.4,6,13.4,13.4,13.4l0,0h18C296.6,341.9,302.6,335.9,302.6,328.5L302.6,328.5z M302.1,160.2
					V147c0-7.4-6-13.4-13.4-13.4l0,0h-18c-7.4,0-13.4,6-13.4,13.4l0,0v13.2c0,7.4,6,13.4,13.4,13.4h18
					C296,173.7,302,167.7,302.1,160.2C302,160.2,302,160.2,302.1,160.2L302.1,160.2L302.1,160.2z M301.5,216.3v-13.2
					c0-7.4-6-13.4-13.4-13.4l0,0h-18c-7.4,0-13.4,6-13.4,13.4l0,0v13.2c0,7.4,6,13.4,13.4,13.4l0,0h18
					C295.5,229.7,301.5,223.7,301.5,216.3C301.5,216.2,301.5,216.2,301.5,216.3L301.5,216.3z"/>
				<path class="st7" d="M543.3,80.8v38.5H241.9V80.8h15c0.8,7.3,5.7,12.8,11.8,12.8c1.1,0.2,2-0.6,2.2-1.6c0.2-1.1-0.6-2-1.6-2.2
					l0,0c-0.2,0-0.4,0-0.6,0c-3.5,0-6.6-4-7.3-9h33.5c0.8,7.3,5.7,12.8,11.8,12.8c1.1,0.2,2-0.6,2.2-1.6c0.2-1.1-0.6-2-1.6-2.2
					c-0.2,0-0.4,0-0.6,0c-3.5,0-6.6-4-7.3-9H334c0.8,7.3,5.7,12.8,11.8,12.8c1.1,0.2,2-0.6,2.2-1.6c0.2-1.1-0.6-2-1.6-2.2l0,0
					c-0.2,0-0.4,0-0.6,0c-3.5,0-6.6-4-7.3-9h33.4c0.8,7.3,5.7,12.8,11.8,12.8c1.1,0.2,2-0.6,2.2-1.6c0.2-1.1-0.6-2-1.6-2.2
					c-0.2,0-0.4,0-0.6,0c-3.5,0-6.6-4-7.2-9H415c0.8,7.3,5.7,12.8,11.8,12.8c1.1,0.2,2-0.6,2.2-1.6c0.2-1.1-0.6-2-1.6-2.2
					c-0.2,0-0.4,0-0.6,0c-3.5,0-6.6-4-7.2-9h33.5c0.8,7.3,5.7,12.8,11.8,12.8c1.1,0.2,2-0.6,2.2-1.6c0.2-1.1-0.6-2-1.6-2.2l0,0
					c-0.2,0-0.4,0-0.6,0c-3.5,0-6.6-4-7.2-9H492c0.8,7.3,5.7,12.8,11.8,12.8c1.1,0.2,2-0.6,2.2-1.6c0.2-1.1-0.6-2-1.6-2.2
					c-0.2,0-0.4,0-0.6,0c-3.5,0-6.6-4-7.3-9L543.3,80.8z"/>
				<path class="st8" d="M496.1,245.7h18c7.4,0,13.4,6,13.4,13.4v13.2c0,7.4-6,13.4-13.4,13.4h-18c-7.4,0-13.4-6-13.4-13.4v-13.2
					C482.7,251.7,488.7,245.7,496.1,245.7z"/>
				<path class="st8" d="M495,133.6h18c7.4,0,13.4,6,13.4,13.4v13.2c0,7.4-6,13.4-13.4,13.4h-18c-7.4,0-13.4-6-13.4-13.4V147
					C481.6,139.6,487.6,133.6,495,133.6z"/>
				<path class="st8" d="M525.8,203.1v13.2c0,7.4-6,13.4-13.4,13.4h-18c-7.4,0-13.4-6-13.4-13.4l0,0V203c0-7.4,6-13.4,13.4-13.4h18
					C519.8,189.6,525.8,195.6,525.8,203.1L525.8,203.1z"/>
				<path class="st8" d="M441.5,245.7h18c7.4,0,13.4,6,13.4,13.4v13.2c0,7.4-6,13.4-13.4,13.4h-18c-7.4,0-13.4-6-13.4-13.4v-13.2
					C428.1,251.7,434.1,245.7,441.5,245.7z"/>
				<path class="st8" d="M440.4,133.6h18c7.4,0,13.4,6,13.4,13.4v13.2c0,7.4-6,13.4-13.4,13.4h-18c-7.4,0-13.4-6-13.4-13.4V147
					C427,139.6,433,133.6,440.4,133.6z"/>
				<path class="st8" d="M439.8,189.6h18c7.4,0,13.4,6,13.4,13.4v13.2c0,7.4-6,13.4-13.4,13.4h-18c-7.4,0-13.4-6-13.4-13.4V203
					C426.4,195.6,432.4,189.6,439.8,189.6z"/>
				<path class="st8" d="M417.1,259.1v13.2c0,7.4-6,13.4-13.4,13.4h-18c-7.4,0-13.4-6-13.4-13.4l0,0l0,0v-13.2
					c0-7.4,6-13.4,13.4-13.4l0,0h18C411.1,245.7,417.1,251.7,417.1,259.1L417.1,259.1z"/>
				<path class="st8" d="M385.1,301.8h18c7.4,0,13.4,6,13.4,13.4v13.2c0,7.4-6,13.4-13.4,13.4h-18c-7.4,0-13.4-6-13.4-13.4v-13.2
					C371.7,307.8,377.7,301.8,385.1,301.8z"/>
				<path class="st8" d="M384.6,133.6h18c7.4,0,13.4,6,13.4,13.4v13.2c0,7.4-6,13.4-13.4,13.4h-18c-7.4,0-13.4-6-13.4-13.4V147
					C371.2,139.6,377.2,133.6,384.6,133.6z"/>
				<path class="st8" d="M415.4,203.1v13.2c0,7.4-6,13.4-13.4,13.4l0,0h-18c-7.4,0-13.4-6-13.4-13.4l0,0l0,0v-13.2
					c0-7.4,6-13.4,13.4-13.4h18C409.4,189.6,415.4,195.6,415.4,203.1z"/>
				
					<linearGradient id="SVGID_7_" gradientUnits="userSpaceOnUse" x1="524.79" y1="-217.7" x2="262.29" y2="-217.7" gradientTransform="matrix(1 0 0 -1 0 48)">
					<stop  offset="0" style="stop-color:#7B6ED6"/>
					<stop  offset="0.48" style="stop-color:#7A70D7"/>
					<stop  offset="0.65" style="stop-color:#7677DA"/>
					<stop  offset="0.77" style="stop-color:#7082E0"/>
					<stop  offset="0.87" style="stop-color:#6693E8"/>
					<stop  offset="0.95" style="stop-color:#5AA9F2"/>
					<stop  offset="1" style="stop-color:#51B9FA"/>
				</linearGradient>
				<path class="st9" d="M359,259.1v13.2c0,7.4-6,13.4-13.4,13.4h-18c-7.4,0-13.4-6-13.4-13.4l0,0l0,0v-13.2c0-7.4,6-13.4,13.4-13.4
					h18C353,245.7,359,251.7,359,259.1L359,259.1L359,259.1z"/>
				<path class="st8" d="M327,301.8h18c7.4,0,13.4,6,13.4,13.4v13.2c0,7.4-6,13.4-13.4,13.4h-18c-7.4,0-13.4-6-13.4-13.4v-13.2
					C313.5,307.8,319.6,301.8,327,301.8z"/>
				<path class="st8" d="M326.5,133.6h18c7.4,0,13.4,6,13.4,13.4v13.2c0,7.4-6,13.4-13.4,13.4h-18c-7.4,0-13.4-6-13.4-13.4V147
					C313.1,139.6,319.1,133.6,326.5,133.6z"/>
				<path class="st8" d="M325.9,189.6h18c7.4,0,13.4,6,13.4,13.4v13.2c0,7.4-6,13.4-13.4,13.4h-18c-7.4,0-13.4-6-13.4-13.4V203
					C312.5,195.6,318.5,189.6,325.9,189.6z"/>
				
					<linearGradient id="SVGID_8_" gradientUnits="userSpaceOnUse" x1="524.79" y1="-217.7" x2="262.29" y2="-217.7" gradientTransform="matrix(1 0 0 -1 0 48)">
					<stop  offset="0" style="stop-color:#7B6ED6"/>
					<stop  offset="0.48" style="stop-color:#7A70D7"/>
					<stop  offset="0.65" style="stop-color:#7677DA"/>
					<stop  offset="0.77" style="stop-color:#7082E0"/>
					<stop  offset="0.87" style="stop-color:#6693E8"/>
					<stop  offset="0.95" style="stop-color:#5AA9F2"/>
					<stop  offset="1" style="stop-color:#51B9FA"/>
				</linearGradient>
				<path class="st10" d="M271.7,245.7h18c7.4,0,13.4,6,13.4,13.4v13.2c0,7.4-6,13.4-13.4,13.4h-18c-7.4,0-13.4-6-13.4-13.4v-13.2
					C258.3,251.7,264.3,245.7,271.7,245.7z"/>
				
					<linearGradient id="SVGID_9_" gradientUnits="userSpaceOnUse" x1="524.79" y1="-273.8" x2="262.29" y2="-273.8" gradientTransform="matrix(1 0 0 -1 0 48)">
					<stop  offset="0" style="stop-color:#7B6ED6"/>
					<stop  offset="0.48" style="stop-color:#7A70D7"/>
					<stop  offset="0.65" style="stop-color:#7677DA"/>
					<stop  offset="0.77" style="stop-color:#7082E0"/>
					<stop  offset="0.87" style="stop-color:#6693E8"/>
					<stop  offset="0.95" style="stop-color:#5AA9F2"/>
					<stop  offset="1" style="stop-color:#51B9FA"/>
				</linearGradient>
				<path class="st11" d="M271.2,301.8h18c7.4,0,13.4,6,13.4,13.4v13.2c0,7.4-6,13.4-13.4,13.4h-18c-7.4,0-13.4-6-13.4-13.4v-13.2
					C257.7,307.8,263.7,301.8,271.2,301.8z"/>
				<path class="st8" d="M302.1,147v13.2c0,7.4-6,13.4-13.4,13.4l0,0h-18c-7.4,0-13.4-6-13.4-13.4l0,0V147c0-7.4,6-13.4,13.4-13.4
					l0,0h18C296.1,133.6,302.1,139.6,302.1,147L302.1,147z"/>
				
					<linearGradient id="SVGID_10_" gradientUnits="userSpaceOnUse" x1="524.79" y1="-161.6" x2="262.29" y2="-161.6" gradientTransform="matrix(1 0 0 -1 0 48)">
					<stop  offset="0" style="stop-color:#7B6ED6"/>
					<stop  offset="0.48" style="stop-color:#7A70D7"/>
					<stop  offset="0.65" style="stop-color:#7677DA"/>
					<stop  offset="0.77" style="stop-color:#7082E0"/>
					<stop  offset="0.87" style="stop-color:#6693E8"/>
					<stop  offset="0.95" style="stop-color:#5AA9F2"/>
					<stop  offset="1" style="stop-color:#51B9FA"/>
				</linearGradient>
				<path class="st12" d="M270.1,189.6h18c7.4,0,13.4,6,13.4,13.4v13.2c0,7.4-6,13.4-13.4,13.4h-18c-7.4,0-13.4-6-13.4-13.4V203
					C256.6,195.6,262.6,189.6,270.1,189.6z"/>
				<path class="st13" d="M279.8,73.6c0.2,1-0.4,2-1.4,2.3l0,0h-0.2c-1.1,0.3-2.3-0.3-2.7-1.4c-1.2-4.1-3.9-6.9-6.8-6.9
					c-4,0-7.4,5.1-7.4,11.1c0,0.7,0.1,1.4,0.1,2.1c0.7,5,3.7,9,7.3,9c1.1-0.2,2,0.6,2.2,1.6c0.2,1.1-0.6,2-1.6,2.2l0,0
					c-0.2,0-0.4,0-0.6,0c-6.1,0-11-5.5-11.8-12.8c-0.1-0.7-0.1-1.4-0.1-2.1c0-8.4,5.2-14.9,11.9-14.9
					C273.7,63.8,278.1,67.6,279.8,73.6z"/>
				<path class="st13" d="M356.9,73.6c0.2,1-0.4,2.1-1.4,2.3l0,0h-0.2c-1.1,0.3-2.3-0.3-2.7-1.4c-1.2-4.1-3.9-6.9-6.8-6.9
					c-4,0-7.4,5.1-7.4,11.1c0,0.7,0,1.4,0.1,2.1c0.7,5,3.7,9,7.3,9c1.1-0.2,2,0.6,2.2,1.6c0.2,1.1-0.6,2-1.6,2.2l0,0
					c-0.2,0-0.4,0-0.6,0c-6.1,0-11-5.5-11.8-12.8c-0.1-0.7-0.1-1.4-0.1-2.1c0-8.4,5.2-14.9,11.9-14.9
					C350.8,63.8,355.2,67.6,356.9,73.6z"/>
				<path class="st13" d="M394.8,73.6c0.2,1-0.4,2.1-1.4,2.3l0,0h-0.2c-1.1,0.3-2.3-0.3-2.7-1.4c-1.2-4.1-3.9-6.9-6.8-6.9
					c-4,0-7.4,5.1-7.4,11.1c0,0.7,0,1.4,0.1,2.1c0.7,5,3.7,9,7.2,9c1.1-0.2,2,0.6,2.2,1.6c0.2,1.1-0.6,2-1.6,2.2l0,0
					c-0.2,0-0.4,0-0.6,0c-6.1,0-11-5.5-11.8-12.8c-0.1-0.7-0.1-1.4-0.1-2.1c0-8.4,5.2-14.9,11.9-14.9
					C388.7,63.8,393.1,67.6,394.8,73.6z"/>
				<path class="st13" d="M437.8,73.6c0.2,1-0.4,2-1.5,2.3l0,0h-0.2c-1.1,0.3-2.3-0.3-2.7-1.4c-1.2-4.1-3.9-6.9-6.8-6.9
					c-4,0-7.4,5.1-7.4,11.1c0,0.7,0.1,1.4,0.1,2.1c0.7,5,3.7,9,7.2,9c1.1-0.2,2,0.6,2.2,1.6c0.2,1.1-0.6,2-1.6,2.2l0,0
					c-0.2,0-0.4,0-0.6,0c-6.1,0-11-5.5-11.8-12.8c-0.1-0.7-0.1-1.4-0.1-2.1c0-8.4,5.2-14.9,11.9-14.9
					C431.7,63.8,436.1,67.6,437.8,73.6z"/>
				<path class="st13" d="M475.8,73.6c0.2,1-0.4,2-1.5,2.3l0,0c-0.1,0-0.1,0-0.2,0c-1.1,0.3-2.3-0.3-2.7-1.4
					c-1.2-4.1-3.9-6.9-6.8-6.9c-4,0-7.4,5.1-7.4,11.1c0,0.7,0.1,1.4,0.1,2.1c0.7,5,3.7,9,7.2,9c1.1-0.2,2,0.6,2.2,1.6
					c0.2,1.1-0.6,2-1.6,2.2l0,0c-0.2,0-0.4,0-0.6,0c-6.1,0-11-5.5-11.8-12.8c-0.1-0.7-0.1-1.4-0.1-2.1c0-8.4,5.2-14.9,11.9-14.9
					C469.7,63.8,474.1,67.6,475.8,73.6z"/>
				<path class="st13" d="M317.7,73.6c0.2,1-0.4,2-1.4,2.3l0,0h-0.2c-1.1,0.3-2.3-0.3-2.7-1.4c-1.2-4.1-3.9-6.9-6.8-6.9
					c-4,0-7.4,5.1-7.4,11.1c0,0.7,0.1,1.4,0.1,2.1c0.7,5,3.7,9,7.3,9c1.1-0.2,2,0.6,2.2,1.6c0.2,1.1-0.6,2-1.6,2.2l0,0
					c-0.2,0-0.4,0-0.6,0c-6.1,0-11-5.5-11.8-12.8c-0.1-0.7-0.1-1.4-0.1-2.1c0-8.4,5.2-14.9,11.9-14.9
					C311.7,63.8,316,67.6,317.7,73.6z"/>
				<path class="st13" d="M513.2,75.9c-1.1,0.3-2.3-0.3-2.7-1.4c-1.2-4.1-3.9-6.9-6.8-6.9c-4,0-7.4,5.1-7.4,11.1
					c0,0.7,0,1.4,0.1,2.1c0.7,5,3.7,9,7.3,9c1.1-0.2,2,0.6,2.2,1.6c0.2,1.1-0.6,2-1.6,2.2c-0.2,0-0.4,0-0.6,0
					c-6.1,0-11-5.5-11.8-12.8c-0.1-0.7-0.1-1.4-0.1-2.1c0-8.4,5.2-14.9,11.9-14.9c5.1,0,9.5,3.8,11.2,9.8c0.2,1-0.4,2-1.4,2.3l0,0
					L513.2,75.9z"/>
				<circle class="st14" cx="451.5" cy="319.7" r="22.2"/>
				<path d="M159.7,256.4c0,56.3,45.6,101.9,101.9,101.9s101.9-45.6,101.9-101.9S318,154.5,261.7,154.5l0,0l0,0
					C205.4,154.5,159.7,200.1,159.7,256.4z"/>
				<path class="st7" d="M140.9,256.4c0,56.3,45.6,101.9,101.9,101.9s101.9-45.6,101.9-101.9s-45.6-101.9-101.9-101.9l0,0l0,0
					C186.5,154.5,140.9,200.1,140.9,256.4z"/>
				
					<linearGradient id="SVGID_11_" gradientUnits="userSpaceOnUse" x1="152.7" y1="-208.4" x2="332.9" y2="-208.4" gradientTransform="matrix(1 0 0 -1 0 48)">
					<stop  offset="0" style="stop-color:#F9E6D9"/>
					<stop  offset="0.12" style="stop-color:#FCF1EA"/>
					<stop  offset="0.27" style="stop-color:#FEF9F6"/>
					<stop  offset="0.48" style="stop-color:#FFFEFD"/>
					<stop  offset="1" style="stop-color:#FFFFFF"/>
				</linearGradient>
				<path class="st15" d="M152.7,256.4c0,49.8,40.3,90.1,90.1,90.1s90.1-40.3,90.1-90.1s-40.3-90.1-90.1-90.1
					S152.7,206.7,152.7,256.4L152.7,256.4z"/>
				<rect x="239.7" y="175.6" class="st16" width="4.9" height="20"/>
				<rect x="239.7" y="320.4" class="st16" width="4.9" height="20"/>
				<rect x="160.4" y="254.2" class="st16" width="20" height="4.4"/>
				<rect x="305.3" y="254.2" class="st16" width="20" height="4.4"/>
				<polygon class="st16" points="241.8,140.1 254.9,178.2 229.3,178.2 				"/>
				<rect x="237.6" y="170.2" class="st16" width="9.1" height="89.2"/>
				<polygon class="st16" points="152.8,256.7 191,243.6 191,269.2 				"/>
				<rect x="183" y="251.9" class="st16" width="63.7" height="9.1"/>
				
					<rect x="264.3" y="246.9" transform="matrix(0.6919 -0.722 0.722 0.6919 -119.022 277.2844)" class="st16" width="2.1" height="62.4"/>
				<path class="st16" d="M230,258.5c0,5.5,4.4,9.9,9.9,9.9s9.9-4.4,9.9-9.9s-4.4-9.9-9.9-9.9l0,0l0,0
					C234.4,248.6,230,253,230,258.5L230,258.5L230,258.5z"/>
				<path class="st7" d="M595.5,350.8c0,0,7.2,12.4,4.5,16.2s-16.6,3.1-18,0s2-16.1,2-16.1L595.5,350.8z"/>
				<path class="st16" d="M581.9,214.4l16.2,136.5h-16.2l-26.2-119.1l-25.1-4.9l6.3-9.8l0,0C559.6,225.6,581.9,214.4,581.9,214.4z"
					/>
				<path class="st17" d="M555.8,231.7v121.5h-20.2c-1-10.8-6.6-122.3-6.7-123.5l0,0l1.8-2.9L555.8,231.7z"/>
				<path class="st7" d="M552.6,353.2l1.7,15.7h-36.9c3.2-7.8,18.1-15.7,18.1-15.7H552.6z"/>
				
					<linearGradient id="SVGID_12_" gradientUnits="userSpaceOnUse" x1="586.6086" y1="-116.8285" x2="510.4586" y2="-113.0785" gradientTransform="matrix(1 0 0 -1 0 48)">
					<stop  offset="0" style="stop-color:#51ADC6"/>
					<stop  offset="1.000000e-02" style="stop-color:#55AFC4"/>
					<stop  offset="7.000000e-02" style="stop-color:#74BFB5"/>
					<stop  offset="0.13" style="stop-color:#8FCDA7"/>
					<stop  offset="0.21" style="stop-color:#A5D89D"/>
					<stop  offset="0.3" style="stop-color:#B6E194"/>
					<stop  offset="0.41" style="stop-color:#C1E78E"/>
					<stop  offset="0.57" style="stop-color:#C8EA8B"/>
					<stop  offset="1" style="stop-color:#CAEB8A"/>
				</linearGradient>
				<polygon class="st18" points="583.1,165.2 563.7,175.1 577.9,153 				"/>
				
					<linearGradient id="SVGID_13_" gradientUnits="userSpaceOnUse" x1="584.649" y1="-156.5189" x2="508.5091" y2="-152.7689" gradientTransform="matrix(1 0 0 -1 0 48)">
					<stop  offset="0" style="stop-color:#51ADC6"/>
					<stop  offset="1.000000e-02" style="stop-color:#55AFC4"/>
					<stop  offset="7.000000e-02" style="stop-color:#74BFB5"/>
					<stop  offset="0.13" style="stop-color:#8FCDA7"/>
					<stop  offset="0.21" style="stop-color:#A5D89D"/>
					<stop  offset="0.3" style="stop-color:#B6E194"/>
					<stop  offset="0.41" style="stop-color:#C1E78E"/>
					<stop  offset="0.57" style="stop-color:#C8EA8B"/>
					<stop  offset="1" style="stop-color:#CAEB8A"/>
				</linearGradient>
				<path class="st19" d="M581.9,214.4c0,0-22.4,11.2-45,2.6l17.2-26.9l1.6-0.4v4.3c0,0,13.5-3.5,25.5-6.9L581.9,214.4z"/>
				
					<linearGradient id="SVGID_14_" gradientUnits="userSpaceOnUse" x1="563.4297" y1="-105.9219" x2="492.2397" y2="-106.1719" gradientTransform="matrix(1 0 0 -1 0 48)">
					<stop  offset="0" style="stop-color:#51ADC6"/>
					<stop  offset="1.000000e-02" style="stop-color:#55AFC4"/>
					<stop  offset="7.000000e-02" style="stop-color:#74BFB5"/>
					<stop  offset="0.13" style="stop-color:#8FCDA7"/>
					<stop  offset="0.21" style="stop-color:#A5D89D"/>
					<stop  offset="0.3" style="stop-color:#B6E194"/>
					<stop  offset="0.41" style="stop-color:#C1E78E"/>
					<stop  offset="0.57" style="stop-color:#C8EA8B"/>
					<stop  offset="1" style="stop-color:#CAEB8A"/>
				</linearGradient>
				<path class="st20" d="M569.3,118.7l-3,4.6l-3.1,4.8l-32.8,50.6l-8.6,13.3l-0.6-0.4c0,0,5.2-54.2,5.5-56.4s16.8-10.1,16.8-10.1
					l4.7,8.6l12.4-17.7L569.3,118.7z"/>
				
					<linearGradient id="SVGID_15_" gradientUnits="userSpaceOnUse" x1="609.5373" y1="-106.0573" x2="520.8173" y2="-127.5173" gradientTransform="matrix(1 0 0 -1 0 48)">
					<stop  offset="0" style="stop-color:#51ADC6"/>
					<stop  offset="1.000000e-02" style="stop-color:#55AFC4"/>
					<stop  offset="7.000000e-02" style="stop-color:#74BFB5"/>
					<stop  offset="0.13" style="stop-color:#8FCDA7"/>
					<stop  offset="0.21" style="stop-color:#A5D89D"/>
					<stop  offset="0.3" style="stop-color:#B6E194"/>
					<stop  offset="0.41" style="stop-color:#C1E78E"/>
					<stop  offset="0.57" style="stop-color:#C8EA8B"/>
					<stop  offset="1" style="stop-color:#CAEB8A"/>
				</linearGradient>
				<path class="st21" d="M600,180.9c-0.4,0.7-9,3.4-18.7,6.1c-12.1,3.4-25.5,6.9-25.5,6.9v-14.8l8-4.1l19.3-9.9l-5.3-12.2l7.4-11.6
					l3.1-4.8l3.1-4.9C591.5,131.6,602.4,176.8,600,180.9z"/>
				
					<linearGradient id="SVGID_16_" gradientUnits="userSpaceOnUse" x1="507.7743" y1="-155.1477" x2="522.9491" y2="-155.1477" gradientTransform="matrix(1 0 0 -1 0 48)">
					<stop  offset="0" style="stop-color:#F7BE86"/>
					<stop  offset="0.33" style="stop-color:#F7BC83"/>
					<stop  offset="0.54" style="stop-color:#F7B67B"/>
					<stop  offset="0.73" style="stop-color:#F7AC6C"/>
					<stop  offset="0.89" style="stop-color:#F79E57"/>
					<stop  offset="1" style="stop-color:#F79244"/>
				</linearGradient>
				<path class="st22" d="M520.6,194c2.8,4.9,2.8,10.6,1.4,14.1l0,0l-1.4,2.1l0,0c-2.4,2.4-7.8,3.8-11.1,1c-0.4-0.3-0.7-0.6-1-1
					c-3.1-4,4.6-13.9,6.8-15.7S520.6,194,520.6,194z"/>
				
					<linearGradient id="SVGID_17_" gradientUnits="userSpaceOnUse" x1="531.7891" y1="-136.9475" x2="555.75" y2="-136.9475" gradientTransform="matrix(1 0 0 -1 0 48)">
					<stop  offset="0" style="stop-color:#F7BE86"/>
					<stop  offset="0.33" style="stop-color:#F7BC83"/>
					<stop  offset="0.54" style="stop-color:#F7B67B"/>
					<stop  offset="0.73" style="stop-color:#F7AC6C"/>
					<stop  offset="0.89" style="stop-color:#F79E57"/>
					<stop  offset="1" style="stop-color:#F79244"/>
				</linearGradient>
				<path class="st23" d="M555.8,181.1v8.6l-1.6,0.4c-2.4,0.5-7.2,1.5-11.3,2.2c-2.1,0.4-4.1,0.6-6.2,0.7c-1.4,0-2.8-0.8-3.4-2.1
					c-1.7-2.8-1.6-7.6-0.7-10.3c0-0.1,0.1-0.3,0.2-0.4c1-1.7,4.6-1.2,7.7-0.3c1.8,0.5,3.5,1.1,5.2,1.8c-0.3-0.2-3.2-2.6-3.8-3.9
					l0.6-0.9l0,0c1.5-0.1,5.7,1.3,9,2.5C553.7,180.3,555.8,181.1,555.8,181.1z"/>
				
					<linearGradient id="SVGID_18_" gradientUnits="userSpaceOnUse" x1="571.04" y1="-67.5" x2="602.4" y2="-67.5" gradientTransform="matrix(1 0 0 -1 0 48)">
					<stop  offset="0" style="stop-color:#7B6ED6"/>
					<stop  offset="0.48" style="stop-color:#7A70D7"/>
					<stop  offset="0.65" style="stop-color:#7677DA"/>
					<stop  offset="0.77" style="stop-color:#7082E0"/>
					<stop  offset="0.87" style="stop-color:#6693E8"/>
					<stop  offset="0.95" style="stop-color:#5AA9F2"/>
					<stop  offset="1" style="stop-color:#51B9FA"/>
				</linearGradient>
				<path class="st24" d="M602.4,114.6l-9.4,14.7l-0.6-0.4c-8.7-0.9-16.5-5.6-21.4-12.8l9.3-14.4
					C580.3,101.7,579.3,120.3,602.4,114.6z"/>
				<path class="st25" d="M580.4,101.7l22,12.9C579.3,120.3,580.4,101.7,580.4,101.7z"/>
				<path class="st26" d="M569.3,118.7l1.7-2.6c4.9,7.2,12.7,11.9,21.3,12.8l0.6,0.4l-1.5,2.3l-3.1,4.9l-0.4-0.2
					c-8.7-0.9-16.5-5.6-21.3-12.8l-0.3-0.2L569.3,118.7z"/>
				<path class="st27" d="M569.5,134.7c-2.3-1.8-4.3-4-5.9-6.4l-0.4-0.2l3.1-4.8l0.3,0.2c4.9,7.2,12.7,11.9,21.3,12.8l0.4,0.2
					l-3.1,4.8l-0.3-0.2c-2.6-0.3-5.2-1-7.6-1.9C574.5,138.1,571.9,136.6,569.5,134.7z"/>
				
					<linearGradient id="SVGID_19_" gradientUnits="userSpaceOnUse" x1="577.9568" y1="-118.7348" x2="567.1068" y2="-111.5049" gradientTransform="matrix(1 0 0 -1 0 48)">
					<stop  offset="0" style="stop-color:#3C0887"/>
					<stop  offset="0.32" style="stop-color:#3F0987"/>
					<stop  offset="0.53" style="stop-color:#470E87"/>
					<stop  offset="0.71" style="stop-color:#561588"/>
					<stop  offset="0.87" style="stop-color:#6B1F89"/>
					<stop  offset="1" style="stop-color:#822A8A"/>
				</linearGradient>
				<path class="st28" d="M585.3,141.3l-7.4,11.7l-14.1,22.1l-8,4.1v1.9c0,0-2-0.8-4.5-1.8l26.1-40.1c2.5,0.9,5,1.6,7.6,1.9
					L585.3,141.3z"/>
				
					<linearGradient id="SVGID_20_" gradientUnits="userSpaceOnUse" x1="577.9066" y1="-125.0861" x2="550.0567" y2="-101.946" gradientTransform="matrix(1 0 0 -1 0 48)">
					<stop  offset="0" style="stop-color:#3C0887"/>
					<stop  offset="0.32" style="stop-color:#3F0987"/>
					<stop  offset="0.53" style="stop-color:#470E87"/>
					<stop  offset="0.71" style="stop-color:#561588"/>
					<stop  offset="0.87" style="stop-color:#6B1F89"/>
					<stop  offset="1" style="stop-color:#822A8A"/>
				</linearGradient>
				<path class="st29" d="M577.3,139.2l-26.1,40.1c-3.3-1.2-7.5-2.7-9-2.5l27.3-42C571.9,136.6,574.5,138.1,577.3,139.2z"/>
				
					<linearGradient id="SVGID_21_" gradientUnits="userSpaceOnUse" x1="511.9552" y1="-98.848" x2="544.4951" y2="-121.2679" gradientTransform="matrix(1 0 0 -1 0 48)">
					<stop  offset="0" style="stop-color:#3C0887"/>
					<stop  offset="0.32" style="stop-color:#3F0987"/>
					<stop  offset="0.53" style="stop-color:#470E87"/>
					<stop  offset="0.71" style="stop-color:#561588"/>
					<stop  offset="0.87" style="stop-color:#6B1F89"/>
					<stop  offset="1" style="stop-color:#822A8A"/>
				</linearGradient>
				<path class="st30" d="M569.5,134.7l-27.3,42l0,0c-0.7,0.1-0.8,0.4-0.6,0.9l-1.4,2.1c-3.1-0.9-6.7-1.4-7.7,0.3
					c-0.1,0.1-0.1,0.3-0.2,0.4c-0.9,2.7-1,7.6,0.7,10.3L522,208c1.5-3.4,1.5-9.1-1.4-14.1l1.2-1.9l8.6-13.3l32.8-50.7l0.4,0.2
					C565.2,130.8,567.2,132.9,569.5,134.7z"/>
				
					<linearGradient id="SVGID_22_" gradientUnits="userSpaceOnUse" x1="527.729" y1="-194.0667" x2="516.8789" y2="-186.8366" gradientTransform="matrix(1 0 0 -1 0 48)">
					<stop  offset="0" style="stop-color:#3C0887"/>
					<stop  offset="0.32" style="stop-color:#3F0987"/>
					<stop  offset="0.53" style="stop-color:#470E87"/>
					<stop  offset="0.71" style="stop-color:#561588"/>
					<stop  offset="0.87" style="stop-color:#6B1F89"/>
					<stop  offset="1" style="stop-color:#822A8A"/>
				</linearGradient>
				<path class="st31" d="M554.2,190.1L537,217l0,0l-6.3,9.8l-1.8,2.9l0,0l-36.3,56.8c0,0,1.3-6.8-0.7-7.4s-7.8,3.5-7.8,3.5
					l58.8-90.3C547,191.6,551.8,190.6,554.2,190.1z"/>
				
					<linearGradient id="SVGID_23_" gradientUnits="userSpaceOnUse" x1="519.509" y1="-195.3452" x2="491.659" y2="-172.1952" gradientTransform="matrix(1 0 0 -1 0 48)">
					<stop  offset="0" style="stop-color:#3C0887"/>
					<stop  offset="0.32" style="stop-color:#3F0987"/>
					<stop  offset="0.53" style="stop-color:#470E87"/>
					<stop  offset="0.71" style="stop-color:#561588"/>
					<stop  offset="0.87" style="stop-color:#6B1F89"/>
					<stop  offset="1" style="stop-color:#822A8A"/>
				</linearGradient>
				<path class="st32" d="M484,282.5c0,0,2.2-7.7,0.3-8.2s-7.8,3.8-7.8,3.8l44.1-67.9l0,0c0.6-0.6,1.1-1.3,1.4-2.2l0,0l11.2-17.2
					c0.7,1.3,2,2.1,3.4,2.1c2.1-0.1,4.2-0.3,6.2-0.7L484,282.5z"/>
				
					<linearGradient id="SVGID_24_" gradientUnits="userSpaceOnUse" x1="540.31" y1="-131.65" x2="545.48" y2="-131.65" gradientTransform="matrix(1 0 0 -1 0 48)">
					<stop  offset="0" style="stop-color:#3C0887"/>
					<stop  offset="0.32" style="stop-color:#3F0987"/>
					<stop  offset="0.53" style="stop-color:#470E87"/>
					<stop  offset="0.71" style="stop-color:#561588"/>
					<stop  offset="0.87" style="stop-color:#6B1F89"/>
					<stop  offset="1" style="stop-color:#822A8A"/>
				</linearGradient>
				<path class="st33" d="M545.5,181.6c-1.7-0.7-3.4-1.3-5.2-1.8l1.4-2.1C542.2,179,545.2,181.4,545.5,181.6z"/>
				
					<linearGradient id="SVGID_25_" gradientUnits="userSpaceOnUse" x1="462.2221" y1="-171.0279" x2="494.7721" y2="-193.4478" gradientTransform="matrix(1 0 0 -1 0 48)">
					<stop  offset="0" style="stop-color:#3C0887"/>
					<stop  offset="0.32" style="stop-color:#3F0987"/>
					<stop  offset="0.53" style="stop-color:#470E87"/>
					<stop  offset="0.71" style="stop-color:#561588"/>
					<stop  offset="0.87" style="stop-color:#6B1F89"/>
					<stop  offset="1" style="stop-color:#822A8A"/>
				</linearGradient>
				<path class="st34" d="M520.6,210.1L476.5,278c0,0,1.8-7.7,0.7-8.9s-7.3,3-7.3,3l39.5-61.1C512.8,213.9,518.2,212.5,520.6,210.1z
					"/>
				
					<linearGradient id="SVGID_26_" gradientUnits="userSpaceOnUse" x1="472.6815" y1="-225.2554" x2="487.1515" y2="-248.0353" gradientTransform="matrix(1 0 0 -1 0 48)">
					<stop  offset="0" style="stop-color:#F7BE86"/>
					<stop  offset="0.33" style="stop-color:#F7BC83"/>
					<stop  offset="0.54" style="stop-color:#F7B67B"/>
					<stop  offset="0.73" style="stop-color:#F7AC6C"/>
					<stop  offset="0.89" style="stop-color:#F79E57"/>
					<stop  offset="1" style="stop-color:#F79244"/>
				</linearGradient>
				<path class="st35" d="M491.9,279c2,0.7,0.7,7.4,0.7,7.4L473,298.7c0,0,4.5-6.1-5.4-9.1l2.2-17.4c0,0,6.1-4.3,7.3-3
					s-0.7,8.9-0.7,8.9s6-4.3,7.8-3.8s-0.3,8.2-0.3,8.2S489.8,278.4,491.9,279z"/>
				<path class="st16" d="M467.7,289.6c9.8,3,5.4,9.1,5.4,9.1c-6.4,1.8-6.5,0-6.5,0L467.7,289.6z"/>
				<path class="st16" d="M564.6,85.3c1.3,3.7,2.6,11.4-4.8,25l-0.6-3.9c0,0,3.3-3.1,2.4-7.4s-5.5,2.2-5.5,2.2s1.4-10.4-2.6-11.9
					c-3.6-1.3-14.7,5.2-21.5,4.2c-0.8-0.1-1.5-0.4-2.2-0.7c-6.4-3.4-7.8-7-1.2-6.8s18.1-9,21.7-7.3s3.6,4.2,3.6,4.2
					S563.2,81.5,564.6,85.3z"/>
				
					<linearGradient id="SVGID_27_" gradientUnits="userSpaceOnUse" x1="531.9" y1="-46.1" x2="531.9" y2="-46.1" gradientTransform="matrix(1 0 0 -1 0 48)">
					<stop  offset="0" style="stop-color:#F7BE86"/>
					<stop  offset="0.33" style="stop-color:#F7BC83"/>
					<stop  offset="0.54" style="stop-color:#F7B67B"/>
					<stop  offset="0.73" style="stop-color:#F7AC6C"/>
					<stop  offset="0.89" style="stop-color:#F79E57"/>
					<stop  offset="1" style="stop-color:#F79244"/>
				</linearGradient>
				<path class="st36" d="M531.9,94v-0.3v0.8V94z"/>
				
					<linearGradient id="SVGID_28_" gradientUnits="userSpaceOnUse" x1="531.95" y1="-63.5521" x2="561.7055" y2="-63.5521" gradientTransform="matrix(1 0 0 -1 0 48)">
					<stop  offset="0" style="stop-color:#F7BE86"/>
					<stop  offset="0.33" style="stop-color:#F7BC83"/>
					<stop  offset="0.54" style="stop-color:#F7B67B"/>
					<stop  offset="0.73" style="stop-color:#F7AC6C"/>
					<stop  offset="0.89" style="stop-color:#F79E57"/>
					<stop  offset="1" style="stop-color:#F79244"/>
				</linearGradient>
				<path class="st37" d="M559.8,110.4l0.9,5.7l-12.4,17.7l5.4-16.3l-6.2,0.2h-0.1l-3.3,0.1h-1.3c-2.5,0-4.9-0.6-7.1-1.8
					c-1.5-0.9-2.5-3.8-3-7.3L532,94.5v-0.8c6.8,1,17.8-5.6,21.5-4.2c4.1,1.5,2.6,11.9,2.6,11.9s4.6-6.4,5.5-2.2s-2.4,7.4-2.4,7.4
					L559.8,110.4z"/>
				
					<linearGradient id="SVGID_29_" gradientUnits="userSpaceOnUse" x1="542.87" y1="-69.7828" x2="547.45" y2="-69.7828" gradientTransform="matrix(1 0 0 -1 0 48)">
					<stop  offset="0" style="stop-color:#F7BE86"/>
					<stop  offset="0.33" style="stop-color:#F7BC83"/>
					<stop  offset="0.54" style="stop-color:#F7B67B"/>
					<stop  offset="0.73" style="stop-color:#F7AC6C"/>
					<stop  offset="0.89" style="stop-color:#F79E57"/>
					<stop  offset="1" style="stop-color:#F79244"/>
				</linearGradient>
				<path class="st38" d="M547.5,117.7c-1.5,0.2-3.1,0.2-4.6,0.1h1.3L547.5,117.7z"/>
				<polygon class="st39" points="553.7,117.5 548.3,133.8 543.6,125.2 544.1,117.8 				"/>
				<path class="st39" d="M543.6,109.1l-3.5,0.2l-1-10.5c-0.1-0.6-1-0.6-0.9,0c0.4,3.6,0.7,7.3,1,11c0,0.3,0.2,0.4,0.5,0.4h0.2
					l3.7-0.2C544.2,109.9,544.2,109,543.6,109.1z"/>
				<path class="st16" d="M545.8,112.1c-2.2,1.1-4.8,1.4-7.2,0.7c-0.2-0.1-0.5,0.1-0.5,0.3s0.1,0.5,0.3,0.5c2.6,0.7,5.4,0.4,7.8-0.8
					C546.8,112.6,546.4,111.8,545.8,112.1z"/>
				<path class="st16" d="M550,96.1c-1.6-1.2-3.7-1.4-5.4-0.5c-1,0.5-0.2,2,0.9,1.6c1.2-0.5,2.6-0.3,3.7,0.5
					C550.1,98.4,550.9,96.8,550,96.1z"/>
				<path class="st16" d="M536.6,96.6c-1.6-0.5-3.3-0.1-4.5,1c-0.9,0.8,0.4,2,1.2,1.3s1.8-0.9,2.8-0.6c0.5,0.1,0.9-0.3,1-0.8l0,0
					C537.2,97.1,536.9,96.7,536.6,96.6z"/>
				<ellipse class="st16" cx="546.7" cy="100" rx="1.4" ry="1.7"/>
				<ellipse class="st16" cx="534.9" cy="100.9" rx="1.4" ry="1.7"/>
				<polygon class="st17" points="108.7,244.1 136.8,281 122.4,338.5 119.5,338.2 104.6,336.8 102.6,336.6 114.1,287.9 91.9,268.4 
					91.6,250.5 				"/>
				<polygon class="st7" points="120.3,345.3 132.2,358.3 116.8,358.3 108.7,347.6 108.7,358.3 104.6,358.3 104.6,336.9 
					104.6,336.8 119.5,338.2 				"/>
				<path class="st16" d="M91.9,268.4l0.7,35.9L47.2,350l-1.7-1.2l0,0l-11-8l-2-1.5l38.8-41.8c0,0-2.3-12-11.4-34.5s4.7-35,4.7-35
					s9.2,2.5,16.1,1.3c3.4,5,5.9,8.3,5.9,8.3l22,6.4l-17.1,6.4L91.9,268.4z"/>
				<polygon class="st7" points="44.5,358 52.2,369.1 32.5,369.1 31.1,353.9 23.4,361.9 20,359.7 34.5,340.8 45.5,348.8 45.5,348.8 
									"/>
				
					<linearGradient id="SVGID_30_" gradientUnits="userSpaceOnUse" x1="150.47" y1="-149.0645" x2="172.67" y2="-149.0645" gradientTransform="matrix(1 0 0 -1 0 48)">
					<stop  offset="0" style="stop-color:#F7BE86"/>
					<stop  offset="0.33" style="stop-color:#F7BC83"/>
					<stop  offset="0.54" style="stop-color:#F7B67B"/>
					<stop  offset="0.73" style="stop-color:#F7AC6C"/>
					<stop  offset="0.89" style="stop-color:#F79E57"/>
					<stop  offset="1" style="stop-color:#F79244"/>
				</linearGradient>
				<path class="st40" d="M150.5,197.9c0,0,12.9-13.1,22.2-10.8c0,0-11.1,10.8-13.4,13.7c-1.9,2.4-3.3,6.5-2.9,6.3l-0.4,0.2
					L150.5,197.9z"/>
				
					<linearGradient id="SVGID_31_" gradientUnits="userSpaceOnUse" x1="109.6854" y1="-145.356" x2="169.2554" y2="-148.576" gradientTransform="matrix(1 0 0 -1 0 48)">
					<stop  offset="0" style="stop-color:#F9E6D9"/>
					<stop  offset="0.12" style="stop-color:#FCF1EA"/>
					<stop  offset="0.27" style="stop-color:#FEF9F6"/>
					<stop  offset="0.48" style="stop-color:#FFFEFD"/>
					<stop  offset="1" style="stop-color:#FFFFFF"/>
				</linearGradient>
				<path class="st41" d="M156,207.3l0.8,1.3l-39.3,6.3l-8.3-7.2c1.7-1.8,3-4,3.6-6.4c1.3-5.9-13.3-27.2-13.3-27.2l0.3-2.4
					c0,0,9.8,1.5,22.5,29.1l28.1-2.9L156,207.3z"/>
				
					<linearGradient id="SVGID_32_" gradientUnits="userSpaceOnUse" x1="122.33" y1="-193.4066" x2="147.3971" y2="-193.4066" gradientTransform="matrix(1 0 0 -1 0 48)">
					<stop  offset="0" style="stop-color:#F7BE86"/>
					<stop  offset="0.33" style="stop-color:#F7BC83"/>
					<stop  offset="0.54" style="stop-color:#F7B67B"/>
					<stop  offset="0.73" style="stop-color:#F7AC6C"/>
					<stop  offset="0.89" style="stop-color:#F79E57"/>
					<stop  offset="1" style="stop-color:#F79244"/>
				</linearGradient>
				<path class="st42" d="M143,234.8c5.6,1.4,5,3.7,2.9,10.1s-23.6,1.6-23.6,1.6l0,0l1.5-7.1C123.8,239.3,137.4,233.4,143,234.8z"/>
				
					<linearGradient id="SVGID_33_" gradientUnits="userSpaceOnUse" x1="64.4105" y1="-167.9214" x2="145.6505" y2="-170.2914" gradientTransform="matrix(1 0 0 -1 0 48)">
					<stop  offset="0" style="stop-color:#F9E6D9"/>
					<stop  offset="0.12" style="stop-color:#FCF1EA"/>
					<stop  offset="0.27" style="stop-color:#FEF9F6"/>
					<stop  offset="0.48" style="stop-color:#FFFEFD"/>
					<stop  offset="1" style="stop-color:#FFFFFF"/>
				</linearGradient>
				<path class="st43" d="M80.8,229.3c-4.6-6.8-10.8-16.6-14.4-25l0,0c-2-4.6-3.2-8.8-2.9-11.9c0.1-1.3,0.4-2.6,0.7-3.9l0,0
					c19.2-14.9,30.9,35.1,30.9,35.1l5.1,2.4l24,11.4l-0.4,1.9l-1.5,7.1L122,248l-13.3-3.9l-22-6.4C86.7,237.7,84.2,234.3,80.8,229.3
					z"/>
				
					<linearGradient id="SVGID_34_" gradientUnits="userSpaceOnUse" x1="64.25" y1="-147.85" x2="112.8986" y2="-147.85" gradientTransform="matrix(1 0 0 -1 0 48)">
					<stop  offset="0" style="stop-color:#F9E6D9"/>
					<stop  offset="0.12" style="stop-color:#FCF1EA"/>
					<stop  offset="0.27" style="stop-color:#FEF9F6"/>
					<stop  offset="0.48" style="stop-color:#FFFEFD"/>
					<stop  offset="1" style="stop-color:#FFFFFF"/>
				</linearGradient>
				<path class="st44" d="M109.2,207.6c-1.5,1.6-3.1,3-4.9,4.1l-4,14.3l-5.1-2.4c0,0-11.8-49.9-30.9-35.1
					c3.3-11.6,15.3-22.8,15.3-22.8s3.8,16.1,18.6,18.6l1.3-10.3c0,0,14.6,21.3,13.3,27.3C112.2,203.7,110.9,205.8,109.2,207.6z"/>
				
					<linearGradient id="SVGID_35_" gradientUnits="userSpaceOnUse" x1="64.67" y1="-169.013" x2="80.79" y2="-169.013" gradientTransform="matrix(1 0 0 -1 0 48)">
					<stop  offset="0" style="stop-color:#F9E6D9"/>
					<stop  offset="0.12" style="stop-color:#FCF1EA"/>
					<stop  offset="0.27" style="stop-color:#FEF9F6"/>
					<stop  offset="0.48" style="stop-color:#FFFEFD"/>
					<stop  offset="1" style="stop-color:#FFFFFF"/>
				</linearGradient>
				<path class="st45" d="M80.8,229.3c-6.9,1.2-16.1-1.3-16.1-1.3l1.7-23.6C70,212.8,76.2,222.6,80.8,229.3z"/>
				
					<linearGradient id="SVGID_36_" gradientUnits="userSpaceOnUse" x1="79.56" y1="-112" x2="112.5279" y2="-112" gradientTransform="matrix(1 0 0 -1 0 48)">
					<stop  offset="0" style="stop-color:#F7BE86"/>
					<stop  offset="0.33" style="stop-color:#F7BC83"/>
					<stop  offset="0.54" style="stop-color:#F7B67B"/>
					<stop  offset="0.73" style="stop-color:#F7AC6C"/>
					<stop  offset="0.89" style="stop-color:#F79E57"/>
					<stop  offset="1" style="stop-color:#F79244"/>
				</linearGradient>
				<path class="st46" d="M100.8,164.2c-2.8-0.7-5.5-1.7-8.1-3l5.4,23.2c-14.8-2.5-18.6-18.6-18.6-18.6l7.6-10.3c0,0-5.6-9-1.2-10.4
					s7.4,2.9,7.4,2.9c9.2-0.3,15.2-12.4,15.2-12.4s4.5,13.4,3.8,19.3h-4.1c0,0-0.1,7.4-3.2,9.4C103.7,164.6,102.2,164.7,100.8,164.2
					z"/>
				<path class="st16" d="M104.3,128c1.9,2.2,3.9,4.5,4.4,7.4c0,0-6,12-15.2,12.4c0,0-3-4.4-7.4-2.9s1.2,10.5,1.2,10.5l-7.6,10.3
					c0,0-12.1,11.3-15.3,22.8l0,0c-2.2,0.2-4.4-0.5-5.9-2.1c-2-1.9-3.1-4.7-4.1-7.3s-2.2-5.3-4.4-7.1c-6.1-5.1-16.4-0.5-23-5.1
					c-4.3-3.3-5.1-9.5-1.8-13.8l0,0l0.1-0.1c2.6-2.9,6.9-4.3,8.4-7.9c0.8-1.9,0.6-3.9,0.8-5.9c0.9-7.9,8-13.5,15.8-12.7
					c1,0.1,2,0.3,3,0.7c3.8,1.3,7,4.1,10.9,4.8c5.6,1,10.8-2.6,15.4-5.8s9.2-4.8,14.7-3.4C98,123.8,101.7,125,104.3,128z"/>
				<path class="st39" d="M100.8,164.2l-1,7.4l-0.3,2.4l-1.4,10.4l-5.4-23.2C95.3,162.5,98,163.5,100.8,164.2z"/>
				<path class="st16" d="M107.3,140.8c-1.6-0.5-3.4-0.1-4.5,1.2c-0.8,0.9,0.5,2.2,1.3,1.3c0.7-0.8,1.8-1,2.8-0.7
					C108,143,108.5,141.2,107.3,140.8z"/>
				<ellipse class="st16" cx="105.7" cy="145.4" rx="1.1" ry="1.8"/>
				<path class="st16" d="M106.8,158.6c-1.9,0.1-3.7-0.5-5.2-1.7c-0.5-0.4-0.9,0.5-0.5,0.8c1.6,1.2,3.6,1.9,5.6,1.8
					c0.3,0,0.5-0.2,0.5-0.5l0,0C107.2,158.8,107,158.6,106.8,158.6z"/>
			</g>
		</g>
	</g>
</g>
<g id="dokhke.tif">
	
		<image style="overflow:visible;" width="300" height="85" id="Layer_0_1_" xlink:href="B9873973D9546EBE.png"  transform="matrix(1 0 0 1 -420 146)">
	</image>
</g>
</svg>
