<?xml version="1.0" encoding="utf-8"?>
<!-- Generator: Adobe Illustrator 22.1.0, SVG Export Plug-In . SVG Version: 6.00 Build 0)  -->
<svg version="1.1" id="katman_1" xmlns="http://www.w3.org/2000/svg" xmlns:xlink="http://www.w3.org/1999/xlink" x="0px" y="0px"
	 viewBox="0 0 337.2 255" style="enable-background:new 0 0 337.2 255;" xml:space="preserve">
<style type="text/css">
	.st0{opacity:0.6;fill:#B6CDEF;enable-background:new    ;}
	.st1{opacity:0.5;fill:#FFFFFF;enable-background:new    ;}
	.st2{opacity:0.6;fill:#AECDFF;enable-background:new    ;}
	.st3{fill:#B6CDEF;}
	.st4{fill:#0074E5;}
	.st5{fill:#FFFFFF;}
	.st6{fill:#2E3062;}
	.st7{fill:#FFAC00;}
	.st8{fill:#000B17;}
	.st9{fill:#2F28C6;}
	.st10{fill:#1A10E8;}
	.st11{fill:#524E86;}
	.st12{fill:#FDA893;}
	.st13{fill:#FD896B;}
	.st14{fill:#075BA0;}
	.st15{fill:#001030;}
	.st16{fill:#EDEDED;}
	.st17{fill:#D65C48;}
	.st18{fill:#FA8A00;}
	.st19{fill:#FFCE4F;}
	.st20{opacity:0.3;fill:#FFFFFF;enable-background:new    ;}
	.st21{opacity:0.2;fill:#FFFFFF;enable-background:new    ;}
</style>
<title>muhasebe</title>
<g>
	<g id="katman_2_1_">
		<g id="OBJECTS">
			<path class="st0" d="M319.3,155.3L319.3,155.3c-2.2,11.7-6.6,22.9-13,33c-17.7,27.9-48.4,44.9-81.5,44.9h-65
				c-26.3,0-51.5-10.8-69.7-29.9c-0.8-0.8-1.6-1.6-2.3-2.5c-10.1-11.3-17.4-24.8-21.3-39.5c-1.3-4.9-2.2-9.8-2.7-14.9
				c0-0.1,0-0.2,0-0.4c-0.9-8.7-1.2-17.5-0.7-26.3c1-18.5,5.7-34.6,14.7-46.6c10.5-14,26.9-22.4,50.4-22.6c1,0,2,0,2.9,0
				c64.8,1,62.6,30.5,115.6,43.4c12.1,3,27.1,5.1,46.5,5.8l1.3,0.1C321.7,101.6,324.7,127.1,319.3,155.3z"/>
			<path class="st1" d="M294.6,99.9c-18.4,9.6-47,19.8-81.5,16.1c-52.4-5.7-118.3-16.7-150,3.9c1.1-18.5,5.7-34.6,14.8-46.6
				c11.1-2.6,25.1-2.7,42.9,1.9c38.5,10,88.5,20.8,126.1,18.9c12.1,3,27.1,5.1,46.5,5.8L294.6,99.9z"/>
			<path class="st1" d="M319.3,155.3c-2.2,11.7-6.6,22.9-13,33c-13.3,4-30.9,5.5-53.8,0.5c-55.8-12.2-117.1-12-162.4,14.5
				c-0.8-0.8-1.6-1.6-2.3-2.5c-10.1-11.3-17.4-24.8-21.3-39.5c15.8-7.5,55.4-22,106.4-10.3C226.9,163.2,288.6,173,319.3,155.3z"/>
			<path class="st2" d="M0,25.9c0,1.2,0.5,2.4,1.4,3.2c0.9,0.9,2,1.3,3.2,1.4h98.1c2.5,0,4.6-2,4.6-4.6c0-1.2-0.5-2.4-1.4-3.3
				s-2-1.4-3.2-1.4h-4.6c-2.6-6.1-9.7-8.9-15.8-6.2c-1.4,0.6-2.6,1.4-3.7,2.5c-3.9-6.6-11.8-9.7-19.1-7.5C54.5,0.8,43-2.7,33.8,2.2
				c-4.6,2.4-8,6.7-9.4,11.7c-5.9-2.9-13.1-0.5-16.1,5.4c-0.3,0.7-0.6,1.3-0.8,2h-3C2,21.3,0,23.4,0,25.9z"/>
			<path class="st0" d="M211.2,21.4c0,0.8-0.3,1.5-0.9,2.1c-0.6,0.6-1.3,0.9-2.1,0.9h-63.6c-1.7,0-3-1.3-3-3s1.3-3,3-3h3
				c1.7-3.9,6.2-5.8,10.2-4.1c0.9,0.4,1.7,1,2.4,1.7c2.5-4.3,7.7-6.3,12.4-4.9c3.2-6,10.6-8.3,16.6-5.1c3,1.6,5.2,4.3,6.1,7.6
				c3.8-1.9,8.5-0.4,10.4,3.5c0.2,0.4,0.4,0.9,0.5,1.3h1.9C209.9,18.4,211.2,19.8,211.2,21.4L211.2,21.4z"/>
			<path class="st3" d="M64.5,76.2l0.8-4.1l-3.9-0.8c0-1-0.2-2-0.5-3l3.2-2.1l-2.3-3.5l-3,2c-0.9-0.9-2-1.6-3.1-2.1l0.8-3.9
				l-4.1-0.8l-0.8,4c-0.9,0-1.7,0.2-2.5,0.5L47,59.2l-3.5,2.3l2,3c-0.9,0.9-1.6,2-2.1,3.1L40,66.9L39.2,71l3.5,0.7
				c0.1,1.1,0.3,2.2,0.7,3.2l-3,2l2.3,3.5l3.2-2.1c0.9,0.8,1.9,1.4,3.1,1.8L48.2,84l4.1,0.8l0.8-4.2c0.9-0.1,1.8-0.3,2.7-0.7l2,3
				l3.5-2.3l-2.1-3.2c0.6-0.6,1-1.4,1.4-2.1L64.5,76.2z M54.2,74.6c-1.8,1.2-4.2,0.7-5.4-1c-1.2-1.8-0.7-4.2,1-5.4
				c1.8-1.2,4.2-0.7,5.4,1l0,0C56.4,71,55.9,73.4,54.2,74.6z"/>
			<path class="st3" d="M76.3,52.5l0.4-2.2l-2.1-0.4c0-0.6-0.1-1.1-0.3-1.7L76,47l-1.3-1.9L73,46.2c-0.5-0.5-1.1-0.9-1.7-1.2
				l0.4-2.1l-2.3-0.4L69,44.7c-0.5,0-0.9,0.1-1.4,0.3l-1.2-1.8l-1.9,1.3l1.1,1.7c-0.5,0.5-0.9,1.1-1.2,1.7l-1.8-0.4l-0.5,2.2
				l1.9,0.4c0,0.6,0.2,1.2,0.4,1.7L63,53l1.3,1.9l1.7-1.2c0.5,0.4,1.1,0.8,1.7,1l-0.4,2.1l2.3,0.4L70,55c0.5-0.1,1-0.2,1.5-0.4
				l1.1,1.7l1.9-1.3l-1.2-1.7c0.3-0.4,0.6-0.7,0.8-1.2L76.3,52.5z M70.6,51.6c-1,0.7-2.3,0.4-2.9-0.6s-0.4-2.3,0.6-2.9
				c1-0.7,2.3-0.4,2.9,0.6l0,0C71.8,49.6,71.6,50.9,70.6,51.6z"/>
			<path class="st3" d="M331.5,202.4l-0.2-4.2l-3.9,0.2c-0.2-1-0.7-1.9-1.2-2.8l2.6-2.8l-3.1-2.8l-2.5,2.7c-1.1-0.7-2.3-1.1-3.5-1.3
				l-0.2-3.9l-4.2,0.2l0.2,4.1c-0.8,0.3-1.6,0.6-2.3,1.1l-2.9-2.6l-2.8,3.1l2.7,2.5c-0.7,1.1-1.1,2.3-1.3,3.6l-3.4,0.2l0.2,4.2
				l3.6-0.2c0.3,1.1,0.8,2,1.5,2.9l-2.5,2.7l3.1,2.8l2.6-2.8c1.1,0.5,2.2,0.9,3.4,1l0.2,4l4.2-0.2l-0.2-4.3c0.9-0.3,1.7-0.8,2.4-1.3
				l2.7,2.5l2.8-3.1l-2.9-2.6c0.4-0.8,0.7-1.6,0.9-2.4L331.5,202.4z M321,203.3c-1.4,1.6-3.9,1.7-5.5,0.3s-1.7-3.9-0.3-5.5
				s3.9-1.7,5.5-0.3l0,0C322.3,199.3,322.4,201.8,321,203.3L321,203.3z"/>
			<path class="st3" d="M337.2,176.6l-0.1-2.3l-2.1,0.1c-0.1-0.5-0.4-1.1-0.7-1.5l1.4-1.6l-1.7-1.5l-1.3,1.5
				c-0.6-0.4-1.3-0.6-1.9-0.7l-0.1-2.1l-2.3,0.1l0.1,2.2c-0.5,0.1-0.9,0.3-1.3,0.6l-1.6-1.4l-1.5,1.7l1.4,1.4
				c-0.4,0.6-0.6,1.3-0.7,1.9l-1.9,0.1l0.1,2.3l2-0.1c0.2,0.6,0.4,1.1,0.8,1.6l-1.4,1.5l1.7,1.5l1.4-1.6c0.6,0.3,1.2,0.5,1.9,0.5
				l0.1,2.2l2.3-0.1l-0.1-2.3c0.5-0.2,0.9-0.4,1.3-0.7l1.5,1.4l1.5-1.7l-1.6-1.5c0.2-0.4,0.4-0.9,0.5-1.3L337.2,176.6z M331.5,177.1
				c-0.8,0.9-2.1,0.9-3,0.1c-0.9-0.8-0.9-2.1-0.1-3s2.1-0.9,3-0.1C332.2,174.9,332.3,176.2,331.5,177.1L331.5,177.1z"/>
			<path class="st0" d="M234.7,24.7c0,2.4,2,4.4,4.4,4.4h93.7c2.4,0,4.4-2,4.4-4.4s-2-4.4-4.4-4.4h-4.4c-2.5-5.8-9.2-8.5-15-6
				c-1.3,0.6-2.6,1.4-3.6,2.4c-2.9-4.8-8.1-7.8-13.7-7.8c-1.6,0-3.1,0.2-4.6,0.7C286.8,0.7,275.9-2.6,267,2c-4.4,2.3-7.7,6.4-9,11.2
				c-5.6-2.8-12.5-0.5-15.3,5.1c-0.3,0.6-0.6,1.3-0.8,1.9h-2.8C236.7,20.3,234.7,22.3,234.7,24.7z"/>
			<ellipse class="st0" cx="172.8" cy="246.2" rx="162.4" ry="8.8"/>
			<circle class="st4" cx="247.8" cy="61.4" r="42.9"/>
			<circle class="st5" cx="247.8" cy="61.4" r="33.9"/>
			<circle class="st4" cx="247.8" cy="61.4" r="24.9"/>
			<circle class="st5" cx="247.8" cy="61.4" r="15.9"/>
			<path class="st4" d="M249.7,68.1c-3.7,1-7.5-1.1-8.5-4.8s1.1-7.5,4.8-8.5s7.5,1.1,8.5,4.8l0,0C255.5,63.2,253.3,67.1,249.7,68.1z
				"/>
			<path class="st6" d="M295.8,35l-10.4-1.6l1.6-10.3c0.1-0.6-0.3-1.2-0.9-1.2l0,0c-0.6-0.1-1.2,0.3-1.2,0.9L283.1,34l-4,2.9l1.4-9
				c0.1-0.6-0.4-1.1-1-1.2c-0.5,0-1,0.3-1.2,0.9l-1.7,11.2l-5,3.7l1.4-9c0.1-0.6-0.4-1.1-1-1.2c-0.5,0-1,0.3-1.2,0.9l-1.7,11.2
				L248,59.8c-0.4,0.9-0.4,1.9,0,2.7l22.7-16.7l10.8,1.7c0.6,0.1,1.1-0.4,1.2-1c0-0.5-0.3-1-0.9-1.2l-8.6-1.3l5-3.7L289,42
				c0.6,0.1,1.2-0.2,1.3-0.8s-0.2-1.2-0.8-1.3h-0.1l-8.6-1.3l4-2.9l10.8,1.6c0.6,0.1,1.1-0.4,1.2-1C296.7,35.7,296.4,35.2,295.8,35
				L295.8,35z"/>
			<path class="st6" d="M73.3,80.2h146.3c3.9,0,7.1,3.2,7.1,7.2v80.1c0,3.9-3.2,7.1-7.1,7.1H73.3c-3.9,0-7.2-3.2-7.2-7.1V87.3
				C66.2,83.4,69.4,80.2,73.3,80.2z"/>
			<path class="st5" d="M222.6,91.4v71.9c0,3.9-3.2,7.1-7.2,7.1h-138c-3.9,0-7.1-3.2-7.1-7.1V91.4c0-3.9,3.2-7.2,7.1-7.2h138
				C219.4,84.3,222.6,87.5,222.6,91.4z"/>
			<path class="st4" d="M185.5,129.4c0,14.8-12,26.9-26.8,26.9s-26.9-12-26.9-26.8c0-3.6,0.7-7.1,2.1-10.4l24.8,10.4l-1.3-26.8
				c0.4,0,0.8,0,1.3,0C173.5,102.6,185.5,114.6,185.5,129.4z"/>
			<path class="st7" d="M155,98.4c-10.3,0.5-19.5,6.9-23.5,16.4l24.8,10.4L155,98.4z"/>
			<rect x="194.8" y="111" class="st4" width="3.7" height="3.7"/>
			<path class="st0" d="M201.2,112.3H214c0.1,0,0.3,0.1,0.3,0.3v0.4c0,0.1-0.1,0.3-0.3,0.3h-12.7c-0.1,0-0.3-0.1-0.3-0.3v-0.4
				C201,112.5,201.1,112.3,201.2,112.3z"/>
			<rect x="194.8" y="117.5" class="st7" width="3.7" height="3.7"/>
			<path class="st0" d="M201.2,118.9H214c0.1,0,0.3,0.1,0.3,0.3v0.4c0,0.1-0.1,0.3-0.3,0.3h-12.7c-0.1,0-0.3-0.1-0.3-0.3v-0.4
				C201,119,201.1,118.9,201.2,118.9z"/>
			<path class="st0" d="M213.8,132.8h-18.5c-0.3,0-0.5-0.2-0.5-0.5l0,0c0-0.3,0.2-0.5,0.5-0.5h18.5c0.3,0,0.5,0.2,0.5,0.5l0,0
				C214.3,132.6,214,132.8,213.8,132.8z"/>
			<path class="st0" d="M213.8,136.6h-18.5c-0.3,0-0.5-0.2-0.5-0.5l0,0c0-0.3,0.2-0.5,0.5-0.5h18.5c0.3,0,0.5,0.2,0.5,0.5l0,0
				C214.3,136.3,214,136.6,213.8,136.6z"/>
			<path class="st0" d="M213.8,140.4h-18.5c-0.3,0-0.5-0.2-0.5-0.5l0,0c0-0.3,0.2-0.5,0.5-0.5h18.5c0.3,0,0.5,0.2,0.5,0.5l0,0
				C214.3,140.1,214,140.3,213.8,140.4z"/>
			<path class="st0" d="M213.8,144.1h-18.5c-0.3,0-0.5-0.2-0.5-0.5l0,0c0-0.3,0.2-0.5,0.5-0.5h18.5c0.3,0,0.5,0.2,0.5,0.5l0,0
				C214.3,143.9,214,144.1,213.8,144.1z"/>
			<path class="st0" d="M213.8,147.9h-18.5c-0.3,0-0.5-0.2-0.5-0.5l0,0c0-0.3,0.2-0.5,0.5-0.5h18.5c0.3,0,0.5,0.2,0.5,0.5l0,0
				C214.3,147.7,214,147.9,213.8,147.9z"/>
			<path class="st0" d="M213.8,151.7h-18.5c-0.3,0-0.5-0.2-0.5-0.5l0,0c0-0.3,0.2-0.5,0.5-0.5h18.5c0.3,0,0.5,0.2,0.5,0.5l0,0
				C214.3,151.5,214,151.7,213.8,151.7z"/>
			<path class="st0" d="M213.8,155.5h-18.5c-0.3,0-0.5-0.2-0.5-0.5l0,0c0-0.3,0.2-0.5,0.5-0.5h18.5c0.3,0,0.5,0.2,0.5,0.5l0,0
				C214.3,155.3,214,155.5,213.8,155.5z"/>
			<rect x="81.2" y="139.8" class="st4" width="7" height="16.9"/>
			<rect x="91.5" y="127.8" class="st4" width="7" height="28.9"/>
			<rect x="102.9" y="119" class="st4" width="7" height="37.7"/>
			<rect x="114.1" y="108.6" class="st4" width="7" height="48.1"/>
			<polygon class="st7" points="108.2,101.2 113.1,103 112.5,97.3 			"/>
			<path class="st7" d="M79.3,131.6c-0.2,0-0.4-0.1-0.5-0.3c-0.1-0.3,0-0.6,0.3-0.7c0.2-0.1,21.2-8.1,31.5-29.8
				c0.1-0.3,0.4-0.4,0.7-0.3l0,0c0.3,0.1,0.4,0.4,0.2,0.7c-10.4,22-31.8,30.2-32.1,30.3C79.4,131.6,79.4,131.6,79.3,131.6z"/>
			<path class="st6" d="M313.2,108.1v133c0,4.2-3.4,7.6-7.5,7.6h-66.2c-4.2,0-7.6-3.4-7.6-7.6l0,0v-133c0-4.2,3.4-7.5,7.5-7.5l0,0
				h66.2C309.8,100.5,313.2,103.9,313.2,108.1L313.2,108.1L313.2,108.1z"/>
			<path class="st8" d="M313.2,108.1v133c0,4.2-3.4,7.6-7.5,7.6h-66.2c-2,0-3.9-0.8-5.4-2.2l75-145
				C311.6,102.7,313.2,105.3,313.2,108.1z"/>
			<path class="st8" d="M231,124.5h0.9l0,0v13.8l0,0H231c-0.7,0-1.3-0.6-1.3-1.3v-11.3C229.7,125,230.3,124.5,231,124.5z"/>
			<path class="st8" d="M314.1,138.3h-0.9l0,0v-13.8l0,0h0.9c0.7,0,1.3,0.6,1.3,1.3V137C315.4,137.7,314.8,138.3,314.1,138.3z"/>
			<path class="st8" d="M231,143.2h0.9l0,0V157l0,0H231c-0.7,0-1.3-0.6-1.3-1.3v-11.3C229.7,143.8,230.3,143.2,231,143.2z"/>
			<path class="st5" d="M309.5,110.3v128.6c0,3.3-2.7,6-6,6h-61.9c-3.3,0-6-2.7-6-6V110.3c0-3.3,2.7-6,6-6h61.9
				C306.8,104.3,309.5,107,309.5,110.3z"/>
			<path class="st7" d="M299.4,132.8l-0.9,10.1l-2.9-2.3l-15.8,19.8l-5.8-4.6l0,0l-12,14.9l-2.8-2.3l-2.9-2.4l-12.6,15.7
				c-0.6,0.7-1.7,0.9-2.4,0.3l0,0c-0.8-0.6-1-1.7-0.4-2.5c0,0,0-0.1,0.1-0.1l14.9-18.7l5.8,4.6l7.5-9.4l4.4-5.5l2.9,2.3l2.9,2.3
				l13.5-16.9l-2.9-2.3L299.4,132.8z"/>
			<rect x="264.3" y="178.5" class="st9" width="16.5" height="59"/>
			<path class="st4" d="M264.3,220.8c4.9-0.1,10.7-0.1,16.5-0.5v17.2h-16.5V220.8z"/>
			<rect x="287.4" y="162" class="st4" width="16.5" height="75.5"/>
			<path class="st10" d="M303.9,214.5v23h-16.5v-17.8C293.6,218.9,299.4,217.4,303.9,214.5z"/>
			<rect x="241.2" y="192.7" class="st4" width="16.5" height="44.8"/>
			<path class="st10" d="M257.7,221.3v16.2h-16.5v-6.9C242.9,228.1,247.6,222.7,257.7,221.3z"/>
			<rect x="244.1" y="122.2" class="st4" width="3.7" height="3.7"/>
			<path class="st0" d="M250.6,123.6h12.8c0.1,0,0.3,0.1,0.3,0.3v0.4c0,0.1-0.1,0.3-0.3,0.3h-12.8c-0.1,0-0.3-0.1-0.3-0.3v-0.4
				C250.3,123.7,250.4,123.6,250.6,123.6z"/>
			<rect x="244.1" y="128.8" class="st7" width="3.7" height="3.7"/>
			<path class="st0" d="M250.6,130.2h12.8c0.1,0,0.3,0.1,0.3,0.3v0.4c0,0.1-0.1,0.3-0.3,0.3h-12.8c-0.1,0-0.3-0.1-0.3-0.3v-0.4
				C250.3,130.3,250.4,130.2,250.6,130.2z"/>
			<path class="st0" d="M263.1,140.4h-18.5c-0.3,0-0.5-0.2-0.5-0.5l0,0l0,0c0-0.3,0.2-0.5,0.5-0.5h18.5c0.3,0,0.5,0.2,0.5,0.5l0,0
				C263.6,140.1,263.4,140.3,263.1,140.4C263.1,140.3,263.1,140.4,263.1,140.4z"/>
			<path class="st0" d="M263.1,144.1h-18.5c-0.3,0-0.5-0.2-0.5-0.5l0,0l0,0c0-0.3,0.2-0.5,0.5-0.5h18.5c0.3,0,0.5,0.2,0.5,0.5l0,0
				C263.6,143.9,263.4,144.1,263.1,144.1L263.1,144.1z"/>
			<path class="st0" d="M263.1,147.9h-18.5c-0.3,0-0.5-0.2-0.5-0.5l0,0l0,0c0-0.3,0.2-0.5,0.5-0.5h18.5c0.3,0,0.5,0.2,0.5,0.5l0,0
				C263.6,147.7,263.4,147.9,263.1,147.9L263.1,147.9z"/>
			<path class="st0" d="M263.1,151.7h-18.5c-0.3,0-0.5-0.2-0.5-0.5l0,0l0,0c0-0.3,0.2-0.5,0.5-0.5h18.5c0.3,0,0.5,0.2,0.5,0.5l0,0
				C263.6,151.5,263.4,151.7,263.1,151.7L263.1,151.7z"/>
			<path class="st6" d="M252,103.3h41.2c1.2,0,2.2,1,2.2,2.2v3.2c0,1.2-1,2.2-2.2,2.2H252c-1.2,0-2.2-1-2.2-2.2v-3.2
				C249.7,104.3,250.7,103.3,252,103.3z"/>
			<path class="st8" d="M257.5,105.7h26.3c0.3,0,0.5,0.2,0.5,0.6v0.8c0,0.3-0.2,0.6-0.5,0.6h-26.3c-0.3,0-0.5-0.2-0.5-0.6v-0.8
				C257,105.9,257.2,105.7,257.5,105.7z"/>
			<path class="st11" d="M291,106.6c0,0.6-0.5,1.1-1.1,1.1s-1.1-0.5-1.1-1.1s0.5-1.1,1.1-1.1C290.5,105.4,291,105.9,291,106.6z"/>
			<path class="st12" d="M98.3,110.8c-0.9-0.3-4.8,1.8-5,1.8s-0.9-0.2-1.7-0.3s-1.2,0.1-1.8,1.2c-0.5,0.9-0.9,1.8-1.2,2.8l-1.2,0.5
				c0.6,1.2,1.2,2.3,1.8,3.5c0.7-0.4,1.3-0.7,1.8-1c0.3,0.2,0.7,0.2,1.1,0.1c0.7-0.2,1.5-0.4,2.2-0.6l0.4-0.2l0,0
				c0.4,0.2,0.9,0.2,1.4,0c1-0.3,1.6-1,1.6-1.4s-0.5-0.8-0.5-0.8c0.2-0.2,0.4-0.5,0.4-0.8c0-0.5-0.9-1-0.9-1c0.2-0.3,0.2-0.7,0-1
				c-0.3-0.5-1.5-0.1-1.6,0C95.3,113.4,99.1,111.1,98.3,110.8z"/>
			<path class="st13" d="M91,115.3L91,115.3c-0.2-0.1-0.2-0.2-0.2-0.3l0,0l0.5-0.9c0-0.1,0.1-0.1,0.1-0.1c0.1,0,0.1,0,0.2,0
				c0.6,0.4,1.2,0.5,1.9,0.4c0.2,0,0.4-0.1,0.5-0.3c0-0.1,0-0.2,0-0.3c0-0.1,0-0.2,0.1-0.3l0,0c0.1,0,0.2,0,0.3,0.1
				c0.1,0.2,0.1,0.5,0,0.7c-0.2,0.3-0.5,0.5-0.8,0.6c-0.7,0.1-1.4,0-2-0.3l-0.4,0.7C91.1,115.3,91.1,115.3,91,115.3z"/>
			<path class="st13" d="M94.8,118.6L94.8,118.6l-0.4,0.2c-0.3-0.4-0.4-0.9-0.4-1.4c0-0.4-0.1-0.7-0.2-1c-0.2-0.2-0.3-0.5-0.3-0.8
				c0-0.2,0-0.5,0.1-0.7c0-0.1,0-0.1,0.1-0.2c0-0.1,0.1-0.2,0.1-0.3c0.1-0.1,0.2-0.1,0.3-0.1s0.1,0.2,0.1,0.3l0,0
				c-0.1,0.2-0.2,0.5-0.2,0.8c0,0.2,0.1,0.4,0.2,0.6c0.2,0.3,0.4,0.8,0.3,1.2C94.3,117.7,94.4,118.2,94.8,118.6z"/>
			<path class="st13" d="M91.8,117c-0.1,0-0.2,0-0.2-0.1s0-0.2,0.1-0.3l0,0c0.7-0.4,1.2-1,1.4-1.8c0-0.1,0.1-0.2,0.2-0.2
				s0.2,0.1,0.2,0.2l0,0C93.4,115.8,92.8,116.6,91.8,117C91.9,117,91.8,117,91.8,117z"/>
			<path class="st4" d="M87.4,116.7c-8,2.7-14,4.5-20.2,6c-11.1,2.7-17,1.1-17,1.1l4.2,7.7l0.7,1.4c1.3,0.3,2.7,0.4,4.1,0.2
				c2.9-0.4,5.8-1.1,8.5-2.2c11.4-4.4,18.9-8,22-10.2L87.4,116.7z"/>
			<polygon class="st14" points="87.2,116.1 85.3,117 87.9,122.1 89.9,120.9 			"/>
			<path class="st14" d="M59.2,133.1c-1.4,0.2-2.8,0.1-4.1-0.2l-0.7-1.4c0.1-0.7,0.6-1.3,1.3-1.5C56.5,131.4,57.8,132.5,59.2,133.1z
				"/>
			<path class="st12" d="M26.7,229l-3.3,4.4c0.6,1.5,1.6,2.7,3,3.5l3.9-5L26.7,229z"/>
			<path class="st7" d="M25.9,235.5c0,0,1.5-0.3,2,0.2s1.8,7.7,3.1,9.3c1.3,1.6,0,2.4-0.8,2.7s-11.6-10.5-11.6-10.5s2.7-3.7,4-4.4
				S24.5,234.7,25.9,235.5z"/>
			<path class="st12" d="M46.7,236.5l0.5,5.4c1.4,0.7,3,0.9,4.5,0.6l-0.5-6.3L46.7,236.5z"/>
			<path class="st7" d="M50.8,241.7c0,0,1-1.3,1.7-1.3s6.8,4.7,8.9,5.1s1.7,1.9,1.3,2.6s-16.2,0.3-16.2,0.3s-0.6-5.1-0.1-6.6
				S49.2,242.1,50.8,241.7z"/>
			<path class="st15" d="M43.7,177.6l-3.3,27.3c-2.1,2.9-4,6-5.8,9.1c-2.4,4.3-8.7,15.5-8.7,15.5l3.8,2.9l20.9-21.6l5.6-33.4
				L43.7,177.6z"/>
			<path class="st6" d="M30.7,232.4c-0.4,0.8-1,1.5-1.7,1.9l-4.4-3.7c0.4-0.8,0.9-1.4,1.5-2L30.7,232.4z"/>
			<path class="st6" d="M26.8,178.8c0,0,5.9,14.5,13.5,25.7c0,0,1.1,11,3.1,16.8c0.8,2.6,2.5,14.7,2.5,14.7l5.8-0.3L50.2,202
				l-6.1-24.4L26.8,178.8z"/>
			<path class="st11" d="M52.2,235.5c0.3,1,0.3,2,0,3l-6.7,0.2c-0.3-1-0.4-2-0.3-2.9L52.2,235.5z"/>
			<path class="st4" d="M57,176.9c0,1.2,0,2.1,0,2.8c-2.8,0.8-5.6,1.3-8.4,1.6h-0.2H48h-0.1c-0.5,0.1-1,0.1-1.5,0.1
				c-2.4,0.2-4.8,0.2-7.2,0.1h-0.6H38h-0.3h-0.5c-3.6-0.3-7.2-0.9-10.6-1.9c0-1.4,0-4.2,0-7.9c0-0.2,0-0.4,0-0.6c0-4.1,0-9,0-14.1
				c0-0.4,0-0.8,0-1.2s0-1,0-1.4c0-0.1,0-0.2,0-0.2v-0.3c0-0.2,0-0.4,0-0.7s0-0.6,0-1s0-0.5,0-0.7V150c0.2-10.1,0.5-19.5,1.2-21.9
				c0-0.2,0.1-0.3,0.2-0.5c0.1-0.1,0.2-0.2,0.2-0.3s0.3-0.3,0.4-0.4c1.5-1.2,3.2-2.3,4.9-3.3l0.7-0.4l5.2-1.8l5.4,0.4
				c0.6,0.4,5.8,2.1,6.4,2.5l0.5,0.3c1.2,0.7,2.3,1.6,3.3,2.7c0.8,1.2,1.3,11.5,1.5,22.8c0,0.3,0,0.5,0,0.8c0,1.2,0,2.4,0.1,3.6
				l0.1,3.5c0,1.9,0.1,3.8,0.1,5.6v0.6c0,1.8,0,3.5,0,5.1c0,0.2,0,0.4,0,0.6c0,2.4,0,4.5,0,6.2l0,0L57,176.9z"/>
			<path class="st14" d="M47.1,137.6l6.2-0.4c0,0,0.2,7.5-3.1,7.3S47.1,137.6,47.1,137.6z"/>
			<path class="st14" d="M32,141.3c0-0.2-0.1-0.3-0.3-0.3c-0.1,0-0.2,0-0.2,0.1c-1.9,2.6-3.3,5.4-4.3,8.4c-0.2,0.6-0.4,1.2-0.5,1.8
				c0,0.2,0,0.5,0,0.7s0,0.6,0,1s0,0.4,0,0.7v0.3c0,0.1,0,0.2,0,0.2c0.3-1.6,0.6-3.1,1.1-4.6C28.7,146.6,30.1,143.8,32,141.3
				C32,141.4,32,141.4,32,141.3L32,141.3z"/>
			<path class="st14" d="M33.1,170.8L33.1,170.8c5.8,0,10.8-2.7,14-4.9c2-1.4,3.8-3.1,5.5-4.9c0.1-0.1,0.1-0.3,0-0.4
				c-0.1-0.1-0.3-0.1-0.4,0l0,0c-1.6,1.8-3.4,3.4-5.4,4.8c-3.1,2.2-8,4.8-13.6,4.8c-0.2,0-0.3,0.1-0.3,0.3
				C32.8,170.6,32.9,170.7,33.1,170.8L33.1,170.8z"/>
			<path class="st14" d="M39.2,172.8c5.1,0,10.1-2.9,10.3-3c0.1-0.1,0.2-0.2,0.1-0.4l0,0c-0.1-0.1-0.2-0.2-0.4-0.1
				c-0.1,0-6,3.4-11.3,2.9c-0.2,0-0.3,0.1-0.3,0.2c0,0.1,0.1,0.3,0.2,0.3l0,0C38.3,172.8,38.8,172.8,39.2,172.8z"/>
			<polygon class="st5" points="47.4,163.6 44.8,171.8 41,164.4 41.9,132.4 42,131.2 43.4,131 43.6,132.6 			"/>
			<polygon class="st16" points="43.6,132.6 42.9,133.5 41.9,132.4 42,131.2 43.4,131 			"/>
			<polygon class="st5" points="40.1,129.5 42.9,132.2 44.8,128.8 42.9,125.7 			"/>
			<path class="st14" d="M38.8,121.1l-0.8,0.6c-0.2,0.2-0.4,0.3-0.7,0.5c-0.6,0.4-0.9,1.2-0.7,1.9c0,0.2,0.1,0.3,0.1,0.4l0,0
				l1.5,7.5l4.7-6.2C40.9,124.9,39.4,123.2,38.8,121.1z"/>
			<path class="st14" d="M44.9,121.4c0,0,2.2,2,1.6,4.5l-1,4.1l-2.5-4.3C42.9,125.7,44.7,124.6,44.9,121.4z"/>
			<path class="st12" d="M16.9,185.6c-0.1,1.4,1.6,0.7,1.1-2.3s0.9-5.6,1.5-5.5s-0.5,3.2,0,4.3s1.2-1.1,1.9-2.4s0.7-4.4,0.4-6.5
				s3.5-15.1,3.6-18.8l0.5-1.6l1.7-5.8l2.7-9.1c0,0-1.6-6.9-4.3-6.3c0,0-1.5,4.8-3,10.2c-0.3,0.9-0.5,1.9-0.8,2.8
				c-1.1,3.9-2.1,7.8-2.6,10.1c-1.3,6.1-1.4,18.7-1.4,18.7S16,178,16,180.1S17.1,184.2,16.9,185.6z"/>
			<path class="st4" d="M28.4,127.5c0,0.1-0.2-0.2-0.3,0c-0.9,1.4-1.7,2.8-2.4,4.3l-0.3,0.7c-1,2.6-6.5,19.4-7.6,33.8l5.4,1
				c1.7-9.4,2.8-12.3,3.8-16.9c0.5-1.8,1.1-3.6,1.6-5.1l0,0c0.2-0.6,0.4-1.3,0.6-1.9l0,0l0.2-0.6l0,0c0.6-1.8,1.2-3.6,1.6-5.4
				C31.5,134.5,30.2,128.7,28.4,127.5z"/>
			<polygon class="st14" points="17.5,165.3 17.1,167.5 23.5,168.5 23.9,166.3 			"/>
			<path class="st15" d="M17.9,168.7c0,0,3.5-0.3,5,0.8l-0.3,2.1c0,0-4.1-0.5-5-0.4C17.5,171.1,17.5,169.1,17.9,168.7z"/>
			<path class="st6" d="M19.7,170.1c0.1,0.9-0.6,1.6-1.4,1.7c-0.9-0.2-1.5-1.1-1.4-2.1c0.1-0.7,0.7-1.2,1.4-1.4
				C19.1,168.5,19.8,169.2,19.7,170.1z"/>
			<path class="st11" d="M19.1,170c0.1,0.6-0.4,1.2-1,1.2c-0.7-0.1-1.1-0.8-1-1.5c0.1-0.5,0.5-0.9,1-1
				C18.7,168.8,19.1,169.4,19.1,170z"/>
			<path class="st6" d="M33.3,107.9c0,4.9,3,8.3,8,8.3s8.4-3.7,8.4-8.6s-3-8.7-7.9-8.7C35.9,99,33.3,103,33.3,107.9z"/>
			<path class="st13" d="M34.4,110c0,0-1.4-1.8-2.4-0.3s0.4,6,2.9,4.9L34.4,110z"/>
			<path class="st17" d="M34.4,113.2c-0.1,0-0.2-0.1-0.2-0.2c-0.3-0.9-1-1.6-1.8-1.9c-0.1,0-0.2-0.1-0.1-0.3c0-0.1,0.1-0.2,0.3-0.1
				l0,0c1,0.4,1.8,1.2,2.1,2.3C34.7,113.1,34.6,113.2,34.4,113.2C34.5,113.3,34.5,113.3,34.4,113.2L34.4,113.2z"/>
			<path class="st17" d="M33,112.5L33,112.5c-0.2-0.1-0.2-0.2-0.2-0.3l0,0c0.2-0.3,0.5-0.5,0.8-0.6c0.1,0,0.2,0,0.3,0.1l0,0
				c0,0.1,0,0.2-0.1,0.3c-0.2,0.1-0.5,0.3-0.6,0.5C33.1,112.5,33.1,112.5,33,112.5z"/>
			<path class="st13" d="M48.6,110c0,0,1.4-1.8,2.4-0.3s-0.4,6-2.9,4.9L48.6,110z"/>
			<path class="st17" d="M48.6,113.2c0.1,0,0.2-0.1,0.2-0.2c0.3-0.9,1-1.6,1.8-1.9c0.1-0.1,0.1-0.2,0.1-0.3c0-0.1-0.1-0.1-0.2-0.1
				c-1,0.4-1.8,1.2-2.1,2.3C48.3,113.1,48.4,113.2,48.6,113.2L48.6,113.2z"/>
			<path class="st17" d="M50,112.5L50,112.5c0.2-0.1,0.2-0.2,0.2-0.3l0,0c-0.2-0.3-0.5-0.5-0.8-0.6c-0.1,0-0.2,0-0.3,0.1l0,0
				c0,0.1,0,0.2,0.1,0.3c0.2,0.1,0.5,0.3,0.6,0.5C49.9,112.5,49.9,112.5,50,112.5z"/>
			<path class="st12" d="M44.9,118.4v4.7c0,0-0.5,2.4-2,2.6c-2.1,0.2-4.5-3.3-4.5-3.3v-3.7L44.9,118.4z"/>
			<path class="st13" d="M44.9,118.4v2c-1.2,1.3-3.3,1.7-6.5,1.2v-2.9L44.9,118.4z"/>
			<path class="st12" d="M33.7,110c0,0.2,0,0.5,0.1,0.8c0.1,0.7,0.2,1.3,0.3,2c0,0,0,0,0,0.1c0.6,3.3,1.9,6.5,4.8,7.5
				c6.5,2.3,8.9-3.3,9.8-6.5c0.1-0.4,0.2-0.8,0.3-1.2l0,0c0.1-0.5,0.2-1,0.2-1.5s0.1-0.8,0.1-1.2c0.1-1,0.2-2,0.2-2.8
				c0.1-2-1.1-3.8-3-4.5c-2.7-1-6.8-1.8-10.6,0.3c-1.4,0.8-2.3,2.3-2.3,3.9C33.6,107.7,33.6,108.8,33.7,110z"/>
			<path class="st6" d="M33.7,110c0,0.2,0,0.5,0.1,0.8c0.1,0.7,0.2,1.3,0.3,2c0,0,0,0,0,0.1c0.6,3.3,1.9,6.5,4.8,7.5
				c6.5,2.3,8.9-3.3,9.8-6.5c0.1-0.4,0.2-0.8,0.3-1.2l0,0c0.1-0.5,0.2-1,0.2-1.5s0.1-0.8,0.1-1.2l-1,0.3c-0.2,1.6-0.6,3.1-1.2,4.6
				c-0.9-2.1-5.6-0.4-5.6-0.4s-4.2-1.5-5.7,0c-0.5-1.4-0.9-2.8-1.3-4.3L33.7,110z M41.4,115.2c3.4-0.5,4.3,0.4,4.5,1.4
				c-0.8,0.9-1.8,1.5-2.9,1.8c-1.9,0.4-3.8,0-5.3-1.1C37.4,116.4,37.2,114.1,41.4,115.2L41.4,115.2z"/>
			<path class="st6" d="M39.3,110.3c0,0.5-0.2,0.9-0.5,0.9s-0.5-0.4-0.5-0.9s0.2-0.9,0.5-0.9S39.3,109.8,39.3,110.3z"/>
			<path class="st6" d="M45.6,110.3c0,0.5-0.2,0.9-0.5,0.9s-0.5-0.4-0.5-0.9s0.2-0.9,0.5-0.9S45.6,109.8,45.6,110.3z"/>
			<path class="st6" d="M46.6,107.4c-1-0.4-2-0.4-3-0.1l0.1,0.7c1-0.1,2,0,2.9,0.2C46.7,107.9,46.7,107.6,46.6,107.4z"/>
			<path class="st6" d="M36.6,107.4c1-0.4,2-0.4,3-0.1l-0.1,0.7c-1-0.1-2,0-2.9,0.2C36.4,107.9,36.5,107.6,36.6,107.4z"/>
			<path class="st13" d="M41.7,114c-0.3,0-0.5,0-0.8-0.1c-0.1,0-0.2-0.1-0.2-0.3l0,0c0-0.1,0.1-0.2,0.2-0.1l0,0
				c0.3,0.1,0.6,0.1,0.8,0c0.1-0.1,0.1-0.1,0.1-0.2c0-0.7-0.5-3.2-0.5-3.2c0-0.1,0.1-0.2,0.2-0.2c0.1,0,0.2,0,0.2,0.2
				c0.2,1.1,0.4,2.2,0.5,3.3c0,0.2-0.1,0.4-0.2,0.6C42,113.9,41.9,114,41.7,114z"/>
			<path class="st5" d="M38.8,115.3c0.1,1.4,1.3,2.5,2.7,2.5s2.6-1.1,2.7-2.5H38.8z"/>
			<path class="st6" d="M49.3,110.1h-1c0-1-0.1-2-0.5-2.9c-0.7-1.8,0.7-2.5-0.4-3.4s-3.9-0.5-5.9-0.6s-3.9,0-5.9,0.1
				c-0.8,0.2-0.3,1.4-0.1,2.4s-0.9,2.1-1.1,3.1c-0.1,0.4-0.1,0.8,0,1.2h-0.8c-0.1-1.2-0.1-2.4-0.1-3.3c0-1.7,1-3.2,2.4-3.9
				c3.9-2.2,7.9-1.4,10.6-0.3c1.9,0.7,3,2.6,2.9,4.5C49.5,107.9,49.4,109,49.3,110.1z"/>
			<path class="st5" d="M42.5,110.7c0-1.4,1.1-2.5,2.5-2.5s2.5,1.1,2.5,2.5s-1.1,2.5-2.5,2.5C43.7,113.2,42.5,112.1,42.5,110.7z
				 M42.9,110.7c0,1.2,0.9,2.1,2.1,2.1s2.1-0.9,2.1-2.1s-0.9-2.1-2.1-2.1C43.9,108.6,42.9,109.6,42.9,110.7z"/>
			<path class="st5" d="M35.7,110.7c0-1.4,1.1-2.5,2.5-2.5s2.5,1.1,2.5,2.5s-1.1,2.5-2.5,2.5l0,0C36.8,113.2,35.7,112.1,35.7,110.7z
				 M36.1,110.7c0,1.2,0.9,2.1,2.1,2.1s2.1-0.9,2.1-2.1s-0.9-2.1-2.1-2.1S36.1,109.6,36.1,110.7z"/>
			<path class="st5" d="M47.1,109.9C47.2,109.9,47.2,109.9,47.1,109.9L47.1,109.9c0.8-0.8,1.8-1,2.8-0.9c0.1,0,0.2,0,0.2-0.1l0,0
				c0-0.1,0-0.2-0.1-0.2l0,0c-1.1-0.2-2.2,0.1-3,0.9C46.9,109.7,46.9,109.8,47.1,109.9C47.1,109.9,47.1,109.9,47.1,109.9z"/>
			<path class="st5" d="M36,109.9c0.1,0,0.1,0,0.2-0.1c0.1-0.1,0-0.2-0.1-0.3c-1-0.7-2.2-1-3.4-1c-0.1,0-0.2,0.1-0.2,0.2
				s0.1,0.2,0.2,0.2c1.1,0,2.2,0.3,3.1,0.9C36,109.9,36,109.9,36,109.9z"/>
			<path class="st5" d="M40.6,110.2c0.3-0.3,0.6-0.6,1.1-0.6c0.4,0.1,0.8,0.3,1,0.6L43,110c-0.3-0.5-0.8-0.8-1.4-0.8
				c-0.6,0.1-1.1,0.3-1.4,0.8L40.6,110.2z"/>
			<path class="st7" d="M157.5,240.7L157.5,240.7c-0.1,1.4-0.7,2.6-1.7,3.4c-0.3,0.3-0.6,0.5-0.9,0.7c-1.1,0.8-2.2,1.4-3.5,1.9
				l-0.9,0.4c-1.1,0.4-2.2,0.8-3.5,1.2l-0.9,0.3c-1.1,0.3-2.3,0.6-3.5,0.8l-0.9,0.2c-1.1,0.2-2.3,0.4-3.5,0.6l-0.9,0.1
				c-1.1,0.1-2.3,0.3-3.5,0.4l-0.9,0.1c-1.1,0.1-2.3,0.2-3.5,0.2h-0.9c-1.1,0-2.3,0.1-3.5,0.1h-0.9c-1.2,0-2.3,0-3.5-0.1h-0.9
				c-0.9,0-1.7-0.1-2.6-0.1l-0.9-0.1l-0.9-0.1c-1.2-0.1-2.3-0.2-3.5-0.4l-0.9-0.1c-0.7-0.1-1.4-0.2-2.1-0.3l-1.4-0.2l-0.9-0.2
				c-1.2-0.2-2.4-0.5-3.5-0.8l-0.6-0.2l-0.3-0.1c-0.5-0.1-1-0.3-1.4-0.4c-0.7-0.2-1.4-0.5-2-0.7l-0.9-0.4c-1.1-0.4-2.1-1-3.1-1.6
				l-0.4-0.3l-0.5-0.3c-0.2-0.1-0.3-0.2-0.5-0.4c-1.2-0.8-1.9-2.1-2-3.5c0-0.1,0-0.2,0-0.3v-7.1h66L157.5,240.7L157.5,240.7z"/>
			<path class="st18" d="M94.4,233.4V245l-0.5-0.3c-0.2-0.1-0.3-0.2-0.5-0.4v-10.9L94.4,233.4L94.4,233.4z"/>
			<path class="st18" d="M98.8,233.4v13.7l-0.9-0.4v-13.4L98.8,233.4L98.8,233.4z"/>
			<path class="st18" d="M103.2,233.4v15.1l-0.6-0.2l-0.3-0.1v-14.9L103.2,233.4L103.2,233.4z"/>
			<path class="st18" d="M107.6,233.4v16.1l-0.9-0.2v-15.9L107.6,233.4L107.6,233.4z"/>
			<path class="st18" d="M112,233.4v16.8l-0.9-0.1v-16.7H112z"/>
			<path class="st18" d="M116.4,233.4v17.2l-0.9-0.1v-17.1L116.4,233.4L116.4,233.4z"/>
			<path class="st18" d="M120.7,233.4v17.5h-0.9v-17.5H120.7z"/>
			<path class="st18" d="M125.1,233.4V251h-0.9v-17.6H125.1z"/>
			<path class="st18" d="M129.5,233.4v17.4h-0.9v-17.4H129.5z"/>
			<path class="st18" d="M133.9,233.4v17.2l-0.9,0.1v-17.2h0.9V233.4z"/>
			<path class="st18" d="M138.3,233.4V250l-0.9,0.1v-16.7L138.3,233.4z"/>
			<path class="st18" d="M142.6,233.4v15.9l-0.9,0.2v-16.1L142.6,233.4L142.6,233.4z"/>
			<path class="st18" d="M147,233.4v14.9l-0.9,0.3v-15.1L147,233.4L147,233.4z"/>
			<path class="st18" d="M151.4,233.4v13.3l-0.9,0.4v-13.7H151.4z"/>
			<path class="st18" d="M155.8,233.4V244c-0.3,0.3-0.6,0.5-0.9,0.7v-11.4L155.8,233.4L155.8,233.4z"/>
			<path class="st19" d="M157.5,233.4c0,5.2-14.8,9.4-33,9.4c-2.5,0-4.9-0.1-7.2-0.2c-2.9-0.2-5.7-0.5-8.3-0.9
				c-2.3-0.4-4.4-0.8-6.4-1.3c-0.6-0.1-1.2-0.3-1.7-0.5c-2.1-0.6-4.1-1.4-6-2.4c-0.3-0.2-0.6-0.4-0.8-0.5c-1.6-1.1-2.5-2.3-2.5-3.6
				c0-0.1,0-0.2,0-0.4c0.6-5,15.2-9,33-9c4.1,0,8.3,0.2,12.4,0.7l2.2,0.3c2.8,0.4,5.6,0.9,8.4,1.7c0.5,0.1,1.1,0.3,1.6,0.5
				c1.6,0.5,3.1,1.1,4.6,1.9c1.1,0.6,2.1,1.3,3,2.2c0.4,0.5,0.7,1.1,0.8,1.8C157.5,233.2,157.5,233.3,157.5,233.4z"/>
			<path class="st20" d="M156.7,231.3l-39.4,11.3c-2.9-0.2-5.7-0.5-8.3-0.9l44.7-12.7C154.8,229.6,155.8,230.4,156.7,231.3z"/>
			<path class="st20" d="M139.1,225l-44.2,12.6c-0.3-0.2-0.6-0.4-0.8-0.5l42.9-12.3L139.1,225z"/>
			<path class="st20" d="M149.1,227.2l-46.5,13.3c-0.6-0.1-1.2-0.3-1.7-0.5l46.6-13.3C148,226.9,148.6,227,149.1,227.2z"/>
			<path class="st18" d="M150.9,233.4c0,0.1,0,0.2,0,0.3c-0.6,4-12.2,7.1-26.4,7.1s-25.7-3.2-26.4-7.1c0-0.1,0-0.2,0-0.3
				c0-4.1,11.8-7.5,26.4-7.5S150.9,229.3,150.9,233.4z"/>
			<path class="st7" d="M150.9,233.8c-0.6,4-12.2,7.1-26.4,7.1h-0.9c-3,0-6-0.2-8.9-0.5c-2.5-0.3-5.1-0.7-7.6-1.3
				c-0.6-0.1-1.1-0.3-1.6-0.4c-2-0.5-3.8-1.3-5.5-2.5c-0.3-0.2-0.6-0.4-0.8-0.7c-0.5-0.4-0.9-1-1-1.7c0.6-4,12.2-7.1,26.4-7.1
				c1.8,0,3.5,0.1,5.2,0.1c0.9,0.1,1.7,0.1,2.6,0.2c3.1,0.3,6.1,0.7,9.2,1.4c0.6,0.1,1.1,0.3,1.7,0.4c1.8,0.5,3.5,1.1,5.1,2
				c1.1,0.5,1.9,1.3,2.5,2.4C150.8,233.4,150.8,233.6,150.9,233.8z"/>
			<path class="st21" d="M150.7,233.2l-27.1,7.7c-3,0-6-0.2-8.9-0.5l33.6-9.5C149.3,231.4,150.1,232.2,150.7,233.2z"/>
			<path class="st21" d="M132.3,227l-32.4,9.2c-0.3-0.2-0.6-0.4-0.8-0.7l30.6-8.7C130.6,226.8,131.4,226.9,132.3,227z"/>
			<path class="st21" d="M143.1,228.8L107,239c-0.6-0.1-1.1-0.3-1.6-0.4l36-10.2C142,228.5,142.6,228.7,143.1,228.8z"/>
			<path class="st18" d="M128.2,237.7v1.2h-5.6v-1.2c-3.4,0-6.8-0.3-10.2-0.8l3-1.9c3,0.5,6.1,0.7,9.1,0.7c2.6,0,3.6-0.2,3.6-0.4
				c0-1-15.3-0.2-15.3-3.1c0-1.3,3.2-2.3,9.7-2.6v-1.2h5.6v1.2c2.7,0.1,5.3,0.3,8,0.6l-2.8,1.9c-2.5-0.4-5.1-0.6-7.7-0.6
				c-2.7,0-3.6,0.2-3.6,0.5c0,0.9,15.3,0.1,15.3,3.1C137.4,236.3,134.3,237.4,128.2,237.7z"/>
			<path class="st19" d="M128,237.3v1.2h-5.6v-1.2c-3.4,0-6.8-0.3-10.2-0.8l3-1.9c3,0.5,6.1,0.7,9.1,0.7c2.7,0,3.6-0.1,3.6-0.4
				c0-1-15.3-0.2-15.3-3.1c0-1.3,3.2-2.3,9.7-2.6V228h5.6v1.2c2.7,0.1,5.3,0.3,8,0.7l-2.8,1.9c-2.5-0.4-5.1-0.6-7.7-0.6
				c-2.7,0-3.6,0.2-3.6,0.5c0,0.9,15.3,0.2,15.3,3C137.2,235.9,134.1,237,128,237.3z"/>
			<path class="st7" d="M157.5,230.4L157.5,230.4c-0.1,1.4-0.7,2.6-1.7,3.4c-0.3,0.3-0.6,0.5-0.9,0.7c-1.1,0.8-2.2,1.4-3.5,1.9
				l-0.9,0.4c-1.1,0.4-2.2,0.8-3.5,1.2l-0.9,0.3c-1.1,0.3-2.3,0.6-3.5,0.8l-0.9,0.2c-1.1,0.2-2.3,0.4-3.5,0.6l-0.9,0.1
				c-1.1,0.1-2.3,0.3-3.5,0.4l-0.9,0.1c-1.1,0.1-2.3,0.2-3.5,0.2h-0.9c-1.1,0-2.3,0.1-3.5,0.1h-0.9c-1.2,0-2.3,0-3.5-0.1h-0.9
				l-2.6-0.1l-0.9-0.1l-0.9-0.1c-1.2-0.1-2.3-0.2-3.5-0.4l-0.9-0.1c-0.7-0.1-1.4-0.2-2.1-0.3l-1.4-0.2l-0.9-0.2
				c-1.2-0.2-2.4-0.5-3.5-0.8l-0.6-0.2l-0.3-0.1c-0.5-0.1-1-0.3-1.4-0.4c-0.7-0.2-1.4-0.5-2-0.7l-0.9-0.4c-1.1-0.4-2.1-0.9-3.1-1.5
				l-0.4-0.3l-0.5-0.3c-0.2-0.1-0.3-0.2-0.5-0.4c-1.2-0.8-1.9-2.1-2-3.5c0-0.1,0-0.2,0-0.3v-7.1h66v7.3v-0.1H157.5z"/>
			<path class="st18" d="M94.4,223.2v11.5l-0.5-0.3c-0.2-0.1-0.3-0.2-0.5-0.4v-10.8H94.4z"/>
			<path class="st18" d="M98.8,223.1v13.7l-0.9-0.4V223L98.8,223.1L98.8,223.1z"/>
			<path class="st18" d="M103.2,223.1v15.1l-0.6-0.2l-0.3-0.1V223L103.2,223.1L103.2,223.1z"/>
			<path class="st18" d="M107.6,223.1v16.1l-0.9-0.2v-15.9L107.6,223.1L107.6,223.1z"/>
			<path class="st18" d="M112,223.1v16.8l-0.9-0.1v-16.7H112z"/>
			<path class="st18" d="M116.4,223.1v17.2l-0.9-0.1v-17.1L116.4,223.1L116.4,223.1z"/>
			<path class="st18" d="M120.7,223.1v17.5h-0.9v-17.5H120.7z"/>
			<path class="st18" d="M125.1,223.1v17.6h-0.9v-17.6H125.1z"/>
			<path class="st18" d="M129.5,223.1v17.4h-0.9v-17.4H129.5z"/>
			<path class="st18" d="M133.9,223.1v17.2l-0.9,0.1v-17.2h0.9V223.1z"/>
			<path class="st18" d="M138.3,223.1v16.7l-0.9,0.1v-16.8H138.3z"/>
			<path class="st18" d="M142.6,223.1V239l-0.9,0.2v-16.1L142.6,223.1L142.6,223.1z"/>
			<path class="st18" d="M147,223.1V238l-0.9,0.3v-15.1L147,223.1L147,223.1z"/>
			<path class="st18" d="M151.4,223.1v13.3l-0.9,0.4v-13.7H151.4z"/>
			<path class="st18" d="M155.8,223.1v10.7c-0.3,0.3-0.6,0.5-0.9,0.7v-11.4H155.8z"/>
			<path class="st19" d="M157.5,223.2c0,5.2-14.8,9.4-33,9.4c-2.5,0-4.9-0.1-7.2-0.2c-2.9-0.2-5.7-0.5-8.3-0.9
				c-2.3-0.4-4.4-0.8-6.4-1.3c-0.6-0.1-1.2-0.3-1.7-0.5c-2.1-0.6-4.1-1.4-6-2.4c-0.3-0.2-0.6-0.4-0.8-0.5c-1.6-1.1-2.5-2.3-2.5-3.6
				c0-0.1,0-0.2,0-0.4c0.6-5,15.2-9,33-9c4.1,0,8.3,0.2,12.4,0.7l2.2,0.3c2.8,0.4,5.6,0.9,8.4,1.7c0.5,0.1,1.1,0.3,1.6,0.5
				c1.6,0.5,3.1,1.1,4.6,1.9c1.1,0.6,2.1,1.3,3,2.2c0.4,0.5,0.7,1.1,0.8,1.8C157.5,222.9,157.5,223.1,157.5,223.2z"/>
			<path class="st20" d="M156.7,221l-39.4,11.3c-2.9-0.2-5.7-0.5-8.3-0.9l44.7-12.7C154.8,219.3,155.8,220.1,156.7,221z"/>
			<path class="st20" d="M139.1,214.7l-44.2,12.5c-0.3-0.2-0.6-0.4-0.8-0.5l42.9-12.3L139.1,214.7z"/>
			<path class="st20" d="M149.1,216.9l-46.5,13.3c-0.6-0.1-1.2-0.3-1.7-0.5l46.6-13.3C148,216.6,148.6,216.7,149.1,216.9z"/>
			<path class="st18" d="M150.9,223.2c0,0.1,0,0.2,0,0.3c-0.6,4-12.2,7.1-26.4,7.1s-25.7-3.2-26.4-7.1c0-0.1,0-0.2,0-0.3
				c0-4.1,11.8-7.5,26.4-7.5S150.9,219,150.9,223.2z"/>
			<path class="st7" d="M150.9,223.5c-0.6,4-12.2,7.1-26.4,7.1h-0.9c-3,0-6-0.2-8.9-0.5c-2.5-0.3-5.1-0.7-7.6-1.3
				c-0.6-0.1-1.1-0.3-1.6-0.4c-2-0.5-3.8-1.3-5.5-2.5c-0.3-0.2-0.6-0.4-0.8-0.7c-0.5-0.4-0.9-1-1-1.7c0.6-4,12.2-7.1,26.4-7.1
				c1.8,0,3.5,0.1,5.2,0.1c0.9,0.1,1.7,0.1,2.6,0.2c3.1,0.3,6.1,0.7,9.2,1.4c0.6,0.1,1.1,0.3,1.7,0.4c1.8,0.5,3.5,1.1,5.1,2
				c1.1,0.5,1.9,1.3,2.5,2.4C150.8,223.1,150.8,223.3,150.9,223.5z"/>
			<path class="st21" d="M150.7,222.9l-27.1,7.7c-3,0-6-0.2-8.9-0.5l33.6-9.5C149.3,221.1,150.1,221.9,150.7,222.9z"/>
			<path class="st21" d="M132.3,216.7l-32.4,9.2c-0.3-0.2-0.6-0.4-0.8-0.7l30.6-8.7C130.6,216.6,131.4,216.6,132.3,216.7z"/>
			<path class="st21" d="M143.1,218.5L107,228.7c-0.6-0.1-1.1-0.3-1.6-0.4l36-10.2C142,218.2,142.6,218.4,143.1,218.5z"/>
			<path class="st18" d="M128.2,227.4v1.2h-5.6v-1.2c-3.4,0-6.8-0.3-10.2-0.8l3-1.9c3,0.5,6.1,0.7,9.1,0.7c2.6,0,3.6-0.2,3.6-0.4
				c0-1-15.3-0.2-15.3-3.1c0-1.3,3.2-2.3,9.7-2.6v-1.2h5.6v1.2c2.7,0.1,5.3,0.3,8,0.6l-2.8,1.9c-2.5-0.4-5.1-0.6-7.7-0.6
				c-2.7,0-3.6,0.2-3.6,0.5c0,0.9,15.3,0.1,15.3,3.1C137.4,226.1,134.3,227.1,128.2,227.4z"/>
			<path class="st19" d="M128,227v1.2h-5.6V227c-3.4,0-6.8-0.3-10.2-0.8l3-1.9c3,0.5,6.1,0.7,9.1,0.7c2.7,0,3.6-0.2,3.6-0.4
				c0-1-15.3-0.2-15.3-3.1c0-1.3,3.2-2.3,9.7-2.6v-1.2h5.6v1.2c2.7,0.1,5.3,0.3,8,0.7l-2.8,1.9c-2.5-0.4-5.1-0.6-7.7-0.6
				c-2.7,0-3.6,0.2-3.6,0.5c0,0.9,15.3,0.2,15.3,3C137.2,225.6,134.1,226.7,128,227z"/>
			<path class="st7" d="M158.2,219.1L158.2,219.1c-0.1,1.4-0.7,2.6-1.7,3.4c-0.3,0.3-0.6,0.5-0.9,0.7c-1.1,0.8-2.3,1.4-3.5,1.9
				l-0.9,0.4c-1,0.4-2.2,0.8-3.5,1.2l-0.9,0.2c-1.1,0.3-2.2,0.6-3.5,0.8l-0.9,0.2c-1.1,0.2-2.3,0.4-3.5,0.6l-0.9,0.1
				c-1.1,0.1-2.3,0.3-3.5,0.4l-0.9,0.1c-1.1,0.1-2.3,0.2-3.5,0.2h-0.9c-1.1,0.1-2.3,0.1-3.5,0.1h-0.9c-1.2,0-2.3,0-3.5-0.1h-0.9
				c-0.9,0-1.7-0.1-2.6-0.1L117,229l-0.9-0.1c-1.2-0.1-2.3-0.2-3.5-0.4l-0.9-0.1l-2.1-0.3l-1.4-0.2l-0.9-0.2
				c-1.2-0.2-2.4-0.5-3.5-0.8l-0.6-0.2l-0.3-0.1l-1.4-0.4c-0.7-0.2-1.4-0.5-2-0.7l-0.9-0.4c-1.1-0.4-2.1-1-3.1-1.6l-0.4-0.2
				l-0.5-0.3l-0.5-0.4c-1.2-0.8-1.9-2.1-2-3.5c0-0.1,0-0.2,0-0.3v-7h66v7.3H158.2z"/>
			<path class="st18" d="M95.1,211.8v11.5l-0.5-0.3l-0.5-0.4v-10.8H95.1z"/>
			<path class="st18" d="M99.5,211.8v13.7l-0.9-0.4v-13.4L99.5,211.8L99.5,211.8z"/>
			<path class="st18" d="M103.9,211.8v15.1l-0.6-0.2l-0.3-0.1v-14.9L103.9,211.8L103.9,211.8z"/>
			<path class="st18" d="M108.2,211.8v16.1l-0.9-0.2v-15.9L108.2,211.8L108.2,211.8z"/>
			<path class="st18" d="M112.6,211.8v16.8l-0.9-0.1v-16.7H112.6z"/>
			<path class="st18" d="M117,211.8V229l-0.9-0.1v-17.1L117,211.8L117,211.8z"/>
			<path class="st18" d="M121.4,211.8v17.5h-0.9v-17.5H121.4z"/>
			<path class="st18" d="M125.8,211.8v17.6h-0.9v-17.6H125.8z"/>
			<path class="st18" d="M130.1,211.8v17.4h-0.9v-17.4H130.1z"/>
			<path class="st18" d="M134.5,211.8v17.1l-0.9,0.1v-17.2L134.5,211.8L134.5,211.8z"/>
			<path class="st18" d="M138.9,211.8v16.7l-0.9,0.1v-16.8H138.9z"/>
			<path class="st18" d="M143.3,211.8v15.9l-0.9,0.2v-16.1L143.3,211.8z"/>
			<path class="st18" d="M147.7,211.8v14.9l-0.9,0.2v-15.1L147.7,211.8L147.7,211.8z"/>
			<path class="st18" d="M152.1,211.7V225l-0.9,0.4v-13.7H152.1z"/>
			<path class="st18" d="M156.4,211.7v10.7c-0.3,0.3-0.6,0.5-0.9,0.7v-11.4H156.4z"/>
			<path class="st19" d="M158.2,211.8c0,5.2-14.8,9.4-33,9.4c-2.5,0-4.9-0.1-7.2-0.2c-2.9-0.2-5.7-0.5-8.3-0.9
				c-2.3-0.4-4.4-0.8-6.4-1.3c-0.6-0.1-1.2-0.3-1.7-0.5c-2.1-0.6-4.1-1.4-6-2.4c-0.3-0.2-0.6-0.4-0.8-0.5c-1.6-1.1-2.5-2.3-2.5-3.6
				c0-0.1,0-0.2,0-0.4c0.6-5,15.2-9,33-9c4.1,0,8.3,0.2,12.4,0.7l2.2,0.3c2.8,0.4,5.6,0.9,8.4,1.7c0.5,0.1,1.1,0.3,1.6,0.5
				c1.6,0.5,3.1,1.1,4.6,1.9c1.1,0.6,2.2,1.3,3,2.2c0.4,0.5,0.7,1.1,0.8,1.8C158.2,211.6,158.2,211.7,158.2,211.8z"/>
			<path class="st20" d="M157.3,209.7L117.9,221c-2.9-0.2-5.7-0.5-8.3-0.9l44.7-12.7C155.5,208,156.5,208.8,157.3,209.7z"/>
			<path class="st20" d="M139.7,203.4l-44.2,12.5c-0.3-0.2-0.6-0.4-0.8-0.5l42.9-12.3L139.7,203.4z"/>
			<path class="st20" d="M149.7,205.6l-46.5,13.3c-0.6-0.1-1.2-0.3-1.7-0.5l46.6-13.3C148.7,205.2,149.2,205.4,149.7,205.6z"/>
			<path class="st18" d="M151.5,211.8c0,0.1,0,0.2,0,0.4c-0.6,4-12.2,7.1-26.4,7.1s-25.7-3.2-26.4-7.1c0-0.1,0-0.2,0-0.4
				c0-4.1,11.8-7.5,26.4-7.5S151.5,207.7,151.5,211.8z"/>
			<path class="st7" d="M151.5,212.2c-0.6,4-12.2,7.1-26.4,7.1h-0.9c-3,0-6-0.2-9-0.5c-2.5-0.3-5.1-0.7-7.5-1.3
				c-0.6-0.1-1.1-0.3-1.6-0.4c-2-0.5-3.8-1.3-5.5-2.5c-0.3-0.2-0.6-0.4-0.8-0.7c-0.5-0.4-0.9-1-1-1.7c0.6-4,12.2-7.1,26.4-7.1
				c1.8,0,3.5,0,5.2,0.1c0.9,0.1,1.7,0.1,2.5,0.2c3.1,0.3,6.2,0.7,9.2,1.4c0.6,0.1,1.1,0.3,1.7,0.4c1.8,0.5,3.5,1.1,5.1,2
				c1.1,0.5,1.9,1.3,2.5,2.4C151.4,211.8,151.5,212,151.5,212.2z"/>
			<path class="st21" d="M151.4,211.6l-27.1,7.7c-3,0-6-0.2-9-0.5l33.6-9.6C149.9,209.7,150.8,210.6,151.4,211.6z"/>
			<path class="st21" d="M132.9,205.4l-32.4,9.2c-0.3-0.2-0.6-0.4-0.8-0.7l30.6-8.7C131.2,205.2,132.1,205.3,132.9,205.4z"/>
			<path class="st21" d="M143.8,207.2l-36.1,10.2c-0.6-0.1-1.1-0.3-1.6-0.4l36-10.2C142.7,206.9,143.2,207.1,143.8,207.2z"/>
			<path class="st18" d="M128.8,216.1v1.2h-5.6v-1.2c-3.4,0-6.8-0.3-10.2-0.8l3-1.9c3,0.5,6.1,0.7,9.1,0.7c2.7,0,3.6-0.1,3.6-0.4
				c0-1-15.3-0.2-15.3-3.1c0-1.3,3.2-2.3,9.7-2.6v-1.2h5.6v1.2c2.7,0,5.3,0.3,8,0.6l-2.8,1.9c-2.5-0.4-5.1-0.6-7.7-0.6
				c-2.7,0-3.6,0.2-3.6,0.5c0,1,15.3,0.2,15.3,3.1C138,214.7,135,215.8,128.8,216.1z"/>
			<path class="st19" d="M128.7,215.7v1.2h-5.6v-1.2c-3.4,0-6.8-0.3-10.2-0.8l3-1.9c3,0.5,6.1,0.7,9.1,0.7c2.7,0,3.6-0.2,3.6-0.4
				c0-1-15.3-0.2-15.3-3.1c0-1.3,3.2-2.3,9.7-2.6v-1.2h5.6v1.2c2.7,0.1,5.3,0.3,8,0.6l-2.8,1.9c-2.5-0.4-5.1-0.6-7.7-0.6
				c-2.7,0-3.6,0.2-3.6,0.5c0,0.9,15.3,0.2,15.3,3.1C137.9,214.3,134.8,215.4,128.7,215.7z"/>
			<path class="st7" d="M157,208.1v0.1c-0.1,1.3-0.7,2.5-1.7,3.3c-0.3,0.3-0.6,0.5-0.9,0.7c-1.1,0.8-2.2,1.4-3.5,1.9l-0.9,0.4
				c-1.1,0.4-2.2,0.8-3.5,1.2l-0.9,0.2c-1.1,0.3-2.2,0.6-3.5,0.8l-0.9,0.2c-1.1,0.2-2.3,0.4-3.5,0.6l-0.9,0.1
				c-1.1,0.1-2.3,0.3-3.5,0.4l-0.9,0.1c-1.1,0.1-2.3,0.2-3.5,0.2H128c-1.1,0-2.3,0.1-3.5,0.1h-0.9c-1.2,0-2.3,0-3.5-0.1h-0.9
				c-0.9,0-1.7-0.1-2.6-0.1l-0.9-0.1l-0.9-0.1c-1.2-0.1-2.3-0.2-3.5-0.4l-0.9-0.1c-0.7-0.1-1.4-0.2-2.1-0.3l-1.4-0.2l-0.9-0.2
				c-1.2-0.2-2.4-0.5-3.5-0.8l-0.6-0.2l-0.3-0.1l-1.4-0.4c-0.7-0.2-1.4-0.5-2-0.7l-0.9-0.4c-1.1-0.4-2.1-1-3.1-1.6l-0.4-0.3
				c-0.2-0.1-0.3-0.2-0.5-0.3l-0.5-0.4c-1.2-0.8-1.9-2.1-2-3.5c0-0.1,0-0.2,0-0.3v-7h66v7.3L157,208.1z"/>
			<path class="st18" d="M93.9,200.9v11.5c-0.2-0.1-0.3-0.2-0.5-0.3l-0.5-0.4v-10.9L93.9,200.9L93.9,200.9z"/>
			<path class="st18" d="M98.3,200.9v13.7l-0.9-0.4v-13.4L98.3,200.9L98.3,200.9z"/>
			<path class="st18" d="M102.7,200.9V216l-0.6-0.2l-0.3-0.1v-14.9L102.7,200.9L102.7,200.9z"/>
			<path class="st18" d="M107,200.8v16.1l-0.9-0.2v-15.9L107,200.8L107,200.8z"/>
			<path class="st18" d="M111.4,200.8v16.8l-0.9-0.1v-16.6L111.4,200.8L111.4,200.8z"/>
			<path class="st18" d="M115.8,200.8V218l-0.9-0.1v-17.2h0.9V200.8z"/>
			<path class="st18" d="M120.2,200.8v17.5h-0.9v-17.5H120.2z"/>
			<path class="st18" d="M124.6,200.8v17.6h-0.9v-17.6H124.6z"/>
			<path class="st18" d="M128.9,200.8v17.4H128v-17.4H128.9z"/>
			<path class="st18" d="M133.3,200.8V218l-0.9,0.1v-17.3H133.3z"/>
			<path class="st18" d="M137.7,200.8v16.6l-0.9,0.1v-16.8L137.7,200.8L137.7,200.8z"/>
			<path class="st18" d="M142.1,200.8v15.9l-0.9,0.2v-16.1L142.1,200.8L142.1,200.8z"/>
			<path class="st18" d="M146.5,200.8v14.9l-0.9,0.2v-15.1L146.5,200.8z"/>
			<path class="st18" d="M150.9,200.8v13.3l-0.9,0.4v-13.7H150.9z"/>
			<path class="st18" d="M155.2,200.8v10.7c-0.3,0.3-0.6,0.5-0.9,0.7v-11.4H155.2z"/>
			<path class="st19" d="M157,200.9c0,5.2-14.8,9.4-33,9.4c-2.5,0-4.9-0.1-7.2-0.2c-2.9-0.2-5.7-0.5-8.3-0.9
				c-2.3-0.4-4.4-0.8-6.4-1.3c-0.6-0.1-1.2-0.3-1.7-0.5c-2.1-0.6-4.1-1.4-6-2.4c-0.3-0.2-0.6-0.4-0.8-0.5c-1.6-1.1-2.5-2.3-2.5-3.6
				c0-0.1,0-0.2,0-0.4c0.6-5,15.2-9,33-9c4.1,0,8.3,0.2,12.4,0.7c0.7,0.1,1.5,0.2,2.2,0.3c2.8,0.4,5.6,0.9,8.4,1.7
				c0.5,0.1,1.1,0.3,1.6,0.5c1.6,0.5,3.1,1.1,4.6,1.9c1.1,0.5,2.2,1.3,3,2.2c0.4,0.5,0.7,1.1,0.8,1.8C157,200.6,157,200.8,157,200.9
				z"/>
			<path class="st20" d="M156.1,198.7L116.7,210c-2.9-0.2-5.7-0.5-8.3-0.9l44.7-12.7C154.3,197,155.3,197.8,156.1,198.7z"/>
			<path class="st20" d="M138.5,192.4L94.3,205c-0.3-0.2-0.6-0.4-0.8-0.5l42.9-12.3C137.1,192.2,137.8,192.3,138.5,192.4z"/>
			<path class="st20" d="M148.5,194.6L102,207.9c-0.6-0.1-1.2-0.3-1.7-0.5l46.6-13.3C147.5,194.3,148,194.4,148.5,194.6z"/>
			<path class="st18" d="M150.3,200.9c0,0.1,0,0.2,0,0.3c-0.6,4-12.2,7.1-26.4,7.1s-25.7-3.2-26.4-7.1c0-0.1,0-0.2,0-0.3
				c0-4.1,11.8-7.5,26.4-7.5S150.3,196.7,150.3,200.9z"/>
			<path class="st7" d="M150.3,201.2c-0.6,4-12.2,7.1-26.4,7.1H123c-3,0-6-0.2-9-0.6c-2.5-0.3-5.1-0.7-7.5-1.3
				c-0.6-0.1-1.1-0.3-1.6-0.4c-2-0.5-3.8-1.3-5.5-2.5c-0.3-0.2-0.6-0.4-0.8-0.7c-0.5-0.4-0.9-1-1-1.7c0.6-4,12.2-7.1,26.4-7.1
				c1.8,0,3.5,0,5.2,0.1c0.9,0.1,1.7,0.1,2.6,0.2c3.1,0.3,6.1,0.7,9.2,1.4c0.6,0.1,1.1,0.3,1.7,0.4c1.8,0.5,3.5,1.1,5.1,2
				c1.1,0.5,1.9,1.3,2.5,2.4C150.2,200.8,150.3,201,150.3,201.2z"/>
			<path class="st21" d="M150.1,200.6l-27.1,7.7c-3,0-6-0.2-9-0.6l33.6-9.5C148.7,198.8,149.6,199.6,150.1,200.6z"/>
			<path class="st21" d="M131.7,194.4l-32.4,9.2c-0.3-0.2-0.6-0.4-0.8-0.7l30.6-8.7C130,194.3,130.9,194.3,131.7,194.4z"/>
			<path class="st21" d="M142.6,196.2l-36,10.2c-0.6-0.1-1.1-0.3-1.6-0.4l36-10.2C141.5,195.9,142,196.1,142.6,196.2z"/>
			<path class="st18" d="M127.6,205.1v1.2H122v-1.2c-3.4,0-6.8-0.3-10.2-0.8l3-1.9c3,0.5,6.1,0.7,9.1,0.7c2.6,0,3.6-0.2,3.6-0.4
				c0-1-15.3-0.2-15.3-3.1c0-1.3,3.2-2.3,9.7-2.6v-1.2h5.6v1.2c2.7,0.1,5.3,0.3,8,0.6l-2.8,1.9c-2.5-0.4-5.1-0.6-7.7-0.6
				c-2.7,0-3.6,0.2-3.6,0.5c0,0.9,15.3,0.2,15.3,3C136.8,203.8,133.7,204.8,127.6,205.1z"/>
			<path class="st19" d="M127.5,204.7v1.2h-5.6v-1.2c-3.4,0-6.8-0.3-10.2-0.8l3-1.9c3,0.5,6.1,0.7,9.1,0.7c2.7,0,3.6-0.2,3.6-0.4
				c0-1-15.3-0.2-15.3-3.1c0-1.3,3.2-2.3,9.7-2.6v-1.2h5.6v1.2c2.7,0.1,5.3,0.3,8,0.6l-2.8,1.9c-2.5-0.4-5.1-0.6-7.7-0.6
				c-2.7,0-3.6,0.2-3.6,0.5c0,0.9,15.3,0.1,15.3,3C136.7,203.3,133.6,204.4,127.5,204.7z"/>
			<path class="st7" d="M158.3,197.4L158.3,197.4c-0.1,1.4-0.7,2.6-1.7,3.4c-0.3,0.3-0.6,0.5-0.9,0.7c-1.1,0.8-2.2,1.4-3.5,1.9
				l-0.9,0.4c-1.1,0.4-2.2,0.8-3.5,1.2l-0.9,0.3c-1.1,0.3-2.3,0.6-3.5,0.8l-0.9,0.2c-1.1,0.2-2.3,0.4-3.5,0.6l-0.9,0.1
				c-1.1,0.1-2.3,0.3-3.5,0.4l-0.9,0.1c-1.1,0.1-2.3,0.2-3.5,0.2h-0.9c-1.1,0-2.3,0.1-3.5,0.1H125c-1.2,0-2.3,0-3.5-0.1h-0.9
				l-2.6-0.1l-0.9-0.1l-0.9-0.1c-1.2-0.1-2.3-0.2-3.5-0.4l-0.9-0.1c-0.7-0.1-1.4-0.2-2.1-0.3c-0.5-0.1-0.9-0.1-1.4-0.2l-0.9-0.2
				c-1.2-0.2-2.4-0.5-3.5-0.8l-0.6-0.2l-0.3-0.1c-0.5-0.1-1-0.3-1.4-0.4c-0.7-0.2-1.4-0.5-2-0.7l-0.9-0.4c-1.1-0.4-2.1-1-3.1-1.6
				l-0.4-0.3l-0.5-0.3c-0.2-0.1-0.3-0.2-0.5-0.4c-1.2-0.8-1.9-2.1-2-3.5c0-0.1,0-0.2,0-0.3v-7h66v7.3v-0.1H158.3z"/>
			<path class="st18" d="M95.2,190.2v11.5l-0.5-0.3c-0.2-0.1-0.3-0.2-0.5-0.4v-10.8H95.2z"/>
			<path class="st18" d="M99.6,190.2v13.7l-0.9-0.4v-13.4L99.6,190.2L99.6,190.2z"/>
			<path class="st18" d="M104,190.2v15.1l-0.6-0.2l-0.3-0.1v-14.9L104,190.2z"/>
			<path class="st18" d="M108.4,190.2v16.1l-0.9-0.2v-15.9L108.4,190.2L108.4,190.2z"/>
			<path class="st18" d="M112.8,190.2V207l-0.9-0.1v-16.7H112.8z"/>
			<path class="st18" d="M117.1,190.2v17.2l-0.9-0.1v-17.1L117.1,190.2L117.1,190.2z"/>
			<path class="st18" d="M121.5,190.2v17.5h-0.9v-17.5H121.5z"/>
			<path class="st18" d="M125.9,190.2v17.6H125v-17.6H125.9z"/>
			<path class="st18" d="M130.3,190.2v17.4h-0.9v-17.4H130.3z"/>
			<path class="st18" d="M134.7,190.1v17.2l-0.9,0.1v-17.2h0.9V190.1z"/>
			<path class="st18" d="M139.1,190.1v16.7l-0.9,0.1v-16.8H139.1z"/>
			<path class="st18" d="M143.4,190.1V206l-0.9,0.2v-16.1L143.4,190.1L143.4,190.1z"/>
			<path class="st18" d="M147.8,190.1V205l-0.9,0.3v-15.1L147.8,190.1L147.8,190.1z"/>
			<path class="st18" d="M152.2,190.1v13.3l-0.9,0.4v-13.7H152.2z"/>
			<path class="st18" d="M156.6,190.1v10.7c-0.3,0.3-0.6,0.5-0.9,0.7v-11.4H156.6z"/>
			<path class="st19" d="M158.3,190.2c0,5.2-14.8,9.4-33,9.4c-2.5,0-4.9-0.1-7.2-0.2c-2.9-0.2-5.7-0.5-8.3-0.9
				c-2.3-0.4-4.4-0.8-6.4-1.3c-0.6-0.1-1.2-0.3-1.7-0.5c-2.1-0.6-4.1-1.4-6-2.4c-0.3-0.2-0.6-0.4-0.8-0.5c-1.6-1.1-2.5-2.3-2.5-3.6
				c0-0.1,0-0.2,0-0.3c0.6-5,15.2-9,33-9c4.1,0,8.3,0.2,12.4,0.7l2.2,0.3c2.8,0.4,5.6,0.9,8.4,1.7c0.5,0.1,1.1,0.3,1.6,0.5
				c1.6,0.5,3.1,1.1,4.6,1.9c1.1,0.6,2.1,1.3,3,2.2c0.4,0.5,0.7,1.1,0.8,1.8C158.3,190,158.3,190.1,158.3,190.2z"/>
			<path class="st20" d="M157.4,188.1L118,199.4c-2.9-0.2-5.7-0.5-8.3-0.9l44.7-12.7C155.6,186.4,156.6,187.1,157.4,188.1z"/>
			<path class="st20" d="M139.9,181.8l-44.2,12.5c-0.3-0.2-0.6-0.4-0.8-0.5l42.9-12.3L139.9,181.8z"/>
			<path class="st20" d="M149.8,183.9l-46.5,13.3c-0.6-0.1-1.2-0.3-1.7-0.5l46.6-13.3C148.8,183.6,149.3,183.8,149.8,183.9z"/>
			<path class="st18" d="M151.7,190.2c0,0.1,0,0.2,0,0.4c-0.6,4-12.2,7.1-26.4,7.1s-25.7-3.2-26.4-7.1c0-0.1,0-0.2,0-0.4
				c0-4.1,11.8-7.5,26.4-7.5S151.7,186.1,151.7,190.2z"/>
			<path class="st7" d="M151.6,190.6c-0.6,4-12.2,7.1-26.4,7.1h-0.9c-3,0-6-0.2-8.9-0.5c-2.5-0.3-5.1-0.7-7.6-1.3
				c-0.6-0.1-1.1-0.3-1.6-0.4c-2-0.5-3.8-1.3-5.5-2.5c-0.3-0.2-0.6-0.4-0.8-0.7c-0.5-0.4-0.9-1-1-1.7c0.6-4,12.2-7.1,26.4-7.1
				c1.8,0,3.5,0,5.2,0.1c0.9,0,1.7,0.1,2.6,0.2c3.1,0.3,6.1,0.7,9.2,1.4c0.6,0.1,1.1,0.3,1.7,0.4c1.8,0.5,3.5,1.1,5.1,2
				c1.1,0.5,1.9,1.3,2.5,2.4C151.5,190.2,151.6,190.3,151.6,190.6z"/>
			<path class="st21" d="M151.5,190l-27.1,7.7c-3,0-6-0.2-8.9-0.5l33.6-9.5C150.1,188.1,150.9,189,151.5,190z"/>
			<path class="st21" d="M133.1,183.7l-32.4,9.2c-0.3-0.2-0.6-0.4-0.8-0.7l30.6-8.7C131.4,183.6,132.2,183.7,133.1,183.7z"/>
			<path class="st21" d="M143.9,185.6l-36.1,10.2c-0.6-0.1-1.1-0.3-1.6-0.4l36-10.2C142.8,185.3,143.4,185.4,143.9,185.6z"/>
			<path class="st7" d="M212.4,242L212.4,242c-0.1,1.4-0.7,2.6-1.7,3.4c-0.3,0.3-0.6,0.5-0.9,0.7c-1.1,0.8-2.2,1.4-3.5,1.9l-0.9,0.4
				c-1,0.4-2.2,0.8-3.5,1.2l-0.9,0.2c-1.1,0.3-2.2,0.6-3.5,0.8l-0.9,0.2c-1.1,0.2-2.3,0.4-3.5,0.6l-0.9,0.1
				c-1.1,0.1-2.3,0.3-3.5,0.4l-0.9,0.1c-1.1,0.1-2.3,0.2-3.5,0.2h-0.9c-1.1,0.1-2.3,0.1-3.5,0.1H179c-1.2,0-2.3,0-3.5-0.1h-0.9
				c-0.9,0-1.7-0.1-2.6-0.1l-0.9-0.1l-0.9-0.1c-1.2-0.1-2.3-0.2-3.5-0.4l-0.9-0.1l-2.1-0.3l-1.4-0.2l-0.9-0.2
				c-1.2-0.2-2.4-0.5-3.5-0.8l-0.6-0.2l-0.3-0.1l-1.4-0.4c-0.7-0.2-1.4-0.5-2-0.7l-0.9-0.4c-1.1-0.4-2.1-1-3.1-1.6l-0.4-0.2
				l-0.4-0.3l-0.5-0.4c-1.2-0.8-1.9-2.1-2-3.5c0-0.1,0-0.2,0-0.3v-7h66L212.4,242L212.4,242z"/>
			<path class="st18" d="M149.3,234.8v11.5l-0.4-0.3l-0.5-0.4v-10.8H149.3z"/>
			<path class="st18" d="M153.7,234.8v13.7l-0.9-0.4v-13.4L153.7,234.8L153.7,234.8z"/>
			<path class="st18" d="M158.1,234.8v15.1l-0.6-0.2l-0.3-0.1v-14.9L158.1,234.8L158.1,234.8z"/>
			<path class="st18" d="M162.5,234.8v16.1l-0.9-0.2v-15.9L162.5,234.8L162.5,234.8z"/>
			<path class="st18" d="M166.9,234.8v16.8l-0.9-0.1v-16.7H166.9z"/>
			<path class="st18" d="M171.2,234.8V252l-0.9-0.1v-17.2h0.9V234.8z"/>
			<path class="st18" d="M175.6,234.8v17.5h-0.9v-17.5H175.6z"/>
			<path class="st18" d="M180,234.8v17.6h-0.9v-17.6H180z"/>
			<path class="st18" d="M184.4,234.7v17.5h-0.9v-17.4L184.4,234.7z"/>
			<path class="st18" d="M188.8,234.7v17.1l-0.9,0.1v-17.2L188.8,234.7L188.8,234.7z"/>
			<path class="st18" d="M193.1,234.7v16.7l-0.9,0.1v-16.8H193.1z"/>
			<path class="st18" d="M197.5,234.7v15.9l-0.9,0.2v-16.1L197.5,234.7z"/>
			<path class="st18" d="M201.9,234.7v14.9l-0.9,0.2v-15.1L201.9,234.7L201.9,234.7z"/>
			<path class="st18" d="M206.3,234.7V248l-0.9,0.4v-13.7H206.3z"/>
			<path class="st18" d="M210.7,234.7v10.7c-0.3,0.3-0.6,0.5-0.9,0.7v-11.4H210.7z"/>
			<path class="st19" d="M212.4,234.8c0,5.2-14.8,9.4-33,9.4c-2.5,0-4.9-0.1-7.2-0.2c-2.9-0.2-5.7-0.5-8.3-0.9
				c-2.3-0.4-4.4-0.8-6.4-1.3c-0.6-0.1-1.2-0.3-1.7-0.5c-2.1-0.6-4.1-1.4-6-2.4c-0.3-0.2-0.6-0.3-0.9-0.5c-1.6-1.1-2.5-2.3-2.5-3.6
				c0-0.1,0-0.2,0-0.4c0.6-5,15.2-9,33-9c4.1,0,8.3,0.2,12.4,0.7l2.2,0.3c2.8,0.4,5.6,0.9,8.4,1.7l1.6,0.5c1.6,0.5,3.1,1.1,4.6,1.9
				c1.1,0.6,2.2,1.3,3,2.2c0.4,0.5,0.7,1.1,0.8,1.8C212.4,234.6,212.4,234.7,212.4,234.8z"/>
			<path class="st20" d="M211.5,232.6l-39.4,11.3c-2.9-0.2-5.7-0.5-8.3-0.9l44.7-12.7C209.7,231,210.7,231.7,211.5,232.6z"/>
			<path class="st20" d="M194,226.4l-44.2,12.5c-0.3-0.2-0.6-0.3-0.9-0.5l42.9-12.3L194,226.4z"/>
			<path class="st20" d="M204,228.5l-46.5,13.3c-0.6-0.1-1.2-0.3-1.7-0.5l46.6-13.3L204,228.5z"/>
			<path class="st18" d="M205.8,234.8c0,0.1,0,0.2,0,0.4c-0.6,4-12.2,7.1-26.4,7.1s-25.7-3.2-26.4-7.1c0-0.1,0-0.2,0-0.4
				c0-4.1,11.8-7.5,26.4-7.5S205.8,230.7,205.8,234.8z"/>
			<path class="st7" d="M205.8,235.1c-0.6,4-12.2,7.1-26.4,7.1h-0.9c-3,0-6-0.2-9-0.5c-2.5-0.3-5.1-0.7-7.5-1.3
				c-0.6-0.1-1.1-0.3-1.6-0.4c-2-0.5-3.8-1.3-5.5-2.5c-0.3-0.2-0.6-0.4-0.8-0.7c-0.5-0.4-0.9-1-1-1.7c0.6-4,12.2-7.1,26.4-7.1
				c1.8,0,3.5,0,5.2,0.1c0.9,0.1,1.7,0.1,2.5,0.2c3.1,0.3,6.2,0.7,9.2,1.4c0.6,0.1,1.1,0.3,1.7,0.4c1.8,0.5,3.5,1.1,5.1,2
				c1.1,0.5,1.9,1.3,2.5,2.4C205.6,234.7,205.7,234.9,205.8,235.1z"/>
			<path class="st21" d="M205.6,234.6l-27.1,7.7c-3,0-6-0.2-9-0.5l33.6-9.6C204.1,232.7,205,233.5,205.6,234.6z"/>
			<path class="st21" d="M187.2,228.3l-32.4,9.2c-0.3-0.2-0.6-0.4-0.8-0.7l30.6-8.7C185.5,228.2,186.3,228.2,187.2,228.3z"/>
			<path class="st21" d="M198,230.2l-36,10.2c-0.6-0.1-1.1-0.3-1.6-0.4l36-10.2C196.9,229.9,197.5,230,198,230.2z"/>
			<path class="st18" d="M183.1,239v1.2h-5.6v-1.1c-3.4,0-6.8-0.3-10.1-0.8l3-1.9c3,0.5,6.1,0.7,9.1,0.7c2.6,0,3.6-0.1,3.6-0.4
				c0-1-15.3-0.2-15.3-3.1c0-1.3,3.2-2.3,9.7-2.6v-1.2h5.6v1.2c2.7,0,5.3,0.3,8,0.6l-2.8,1.9c-2.5-0.4-5.1-0.6-7.7-0.6
				c-2.7,0-3.6,0.2-3.6,0.5c0,1,15.3,0.2,15.3,3.1C192.3,237.7,189.2,238.7,183.1,239z"/>
			<path class="st19" d="M182.9,238.6v1.2h-5.6v-1.2c-3.4,0-6.8-0.3-10.1-0.8l3-1.9c3,0.5,6.1,0.7,9.1,0.7c2.6,0,3.6-0.2,3.6-0.4
				c0-1-15.3-0.2-15.3-3.1c0-1.3,3.2-2.3,9.7-2.6v-1.2h5.6v1.2c2.7,0.1,5.3,0.3,8,0.6l-2.8,1.9c-2.5-0.4-5.1-0.6-7.7-0.6
				c-2.7,0-3.6,0.2-3.6,0.5c0,0.9,15.3,0.2,15.3,3.1C192.1,237.3,189,238.3,182.9,238.6z"/>
			<path class="st7" d="M210.4,231.7C210.4,231.8,210.4,231.8,210.4,231.7c-0.1,1.4-0.7,2.6-1.7,3.4c-0.3,0.3-0.6,0.5-0.9,0.7
				c-1.1,0.8-2.3,1.4-3.5,1.9l-0.9,0.4c-1.1,0.4-2.2,0.8-3.5,1.2l-0.9,0.2c-1.1,0.3-2.2,0.6-3.5,0.8l-0.9,0.2
				c-1.1,0.2-2.3,0.4-3.5,0.6l-0.9,0.1c-1.1,0.1-2.3,0.3-3.5,0.4l-0.9,0.1c-1.1,0.1-2.3,0.2-3.5,0.2h-0.9c-1.1,0.1-2.3,0.1-3.5,0.1
				H177c-1.2,0-2.3,0-3.5-0.1h-0.9c-0.9,0-1.7-0.1-2.6-0.1l-0.9-0.1l-0.9-0.1c-1.2-0.1-2.3-0.2-3.5-0.4l-0.9-0.1l-2.1-0.3l-1.4-0.2
				l-0.9-0.2c-1.2-0.2-2.4-0.5-3.5-0.8l-0.6-0.2l-0.3-0.1l-1.4-0.4c-0.7-0.2-1.4-0.5-2-0.7l-0.9-0.4c-1.1-0.4-2.1-1-3.1-1.6
				l-0.4-0.2l-0.4-0.3l-0.5-0.4c-1.2-0.8-1.9-2.1-2.1-3.5c0-0.1,0-0.2,0-0.3v-7h66v7.3L210.4,231.7z"/>
			<path class="st18" d="M147.3,224.5V236l-0.4-0.3l-0.5-0.4v-10.8H147.3z"/>
			<path class="st18" d="M151.7,224.5v13.7l-0.9-0.4v-13.4L151.7,224.5L151.7,224.5z"/>
			<path class="st18" d="M156.1,224.5v15.1l-0.6-0.2l-0.3-0.1v-14.9L156.1,224.5L156.1,224.5z"/>
			<path class="st18" d="M160.4,224.5v16.1l-0.9-0.2v-15.9L160.4,224.5L160.4,224.5z"/>
			<path class="st18" d="M164.8,224.5v16.8l-0.9-0.1v-16.7H164.8z"/>
			<path class="st18" d="M169.2,224.5v17.2l-0.9-0.1v-17.2h0.9V224.5z"/>
			<path class="st18" d="M173.6,224.5V242h-0.9v-17.5H173.6z"/>
			<path class="st18" d="M178,224.5V242h-1v-17.5H178z"/>
			<path class="st18" d="M182.3,224.5v17.4h-0.9v-17.4H182.3z"/>
			<path class="st18" d="M186.7,224.5v17.1l-0.9,0.1v-17.2L186.7,224.5L186.7,224.5z"/>
			<path class="st18" d="M191.1,224.4v16.7l-0.9,0.1v-16.8H191.1z"/>
			<path class="st18" d="M195.5,224.4v15.9l-0.9,0.2v-16.1L195.5,224.4z"/>
			<path class="st18" d="M199.9,224.4v14.9l-0.9,0.2v-15.1L199.9,224.4L199.9,224.4z"/>
			<path class="st18" d="M204.2,224.4v13.3l-0.9,0.4v-13.7H204.2z"/>
			<path class="st18" d="M208.6,224.4v10.7c-0.3,0.3-0.6,0.5-0.9,0.7v-11.4H208.6z"/>
			<path class="st19" d="M210.4,224.5c0,5.2-14.8,9.4-33,9.4c-2.5,0-4.9-0.1-7.2-0.2c-2.9-0.2-5.7-0.5-8.3-0.9
				c-2.3-0.4-4.4-0.8-6.4-1.3c-0.6-0.1-1.2-0.3-1.7-0.5c-2.1-0.6-4.1-1.4-6-2.4c-0.3-0.2-0.6-0.3-0.9-0.5c-1.6-1.1-2.5-2.3-2.5-3.6
				c0-0.1,0-0.2,0-0.4c0.6-5,15.2-9,33-9c4.1,0,8.3,0.2,12.4,0.7l2.2,0.3c2.8,0.4,5.6,0.9,8.4,1.7l1.6,0.5c1.6,0.5,3.1,1.1,4.6,1.9
				c1.1,0.6,2.2,1.3,3,2.2c0.4,0.5,0.7,1.1,0.8,1.8C210.4,224.3,210.4,224.4,210.4,224.5z"/>
			<path class="st20" d="M209.5,222.4l-39.4,11.3c-2.9-0.2-5.7-0.5-8.3-0.9l44.7-12.7C207.6,220.7,208.7,221.4,209.5,222.4z"/>
			<path class="st20" d="M191.9,216.1l-44.2,12.5c-0.3-0.2-0.6-0.3-0.9-0.5l42.9-12.3L191.9,216.1z"/>
			<path class="st20" d="M201.9,218.2l-46.5,13.3c-0.6-0.1-1.2-0.3-1.7-0.5l46.6-13.3L201.9,218.2z"/>
			<path class="st18" d="M203.7,224.5c0,0.1,0,0.2,0,0.4c-0.6,4-12.2,7.1-26.4,7.1s-25.7-3.2-26.4-7.1c0-0.1,0-0.2,0-0.4
				c0-4.1,11.8-7.5,26.4-7.5S203.7,220.4,203.7,224.5z"/>
			<path class="st7" d="M203.7,224.9c-0.6,4-12.2,7.1-26.4,7.1h-0.9c-3,0-6-0.2-9-0.5c-2.5-0.3-5.1-0.7-7.5-1.3
				c-0.6-0.1-1.1-0.3-1.6-0.4c-2-0.5-3.8-1.3-5.5-2.5c-0.3-0.2-0.6-0.4-0.8-0.7c-0.5-0.4-0.9-1-1-1.7c0.6-4,12.2-7.1,26.4-7.1
				c1.8,0,3.5,0,5.2,0.1c0.9,0.1,1.7,0.1,2.5,0.2c3.1,0.3,6.2,0.7,9.2,1.4c0.6,0.1,1.1,0.3,1.7,0.4c1.8,0.5,3.5,1.1,5.1,2
				c1.1,0.5,1.9,1.3,2.5,2.4C203.6,224.5,203.7,224.7,203.7,224.9z"/>
			<path class="st21" d="M203.5,224.3l-27.1,7.7c-3,0-6-0.2-9-0.5l33.6-9.6C202.1,222.4,203,223.3,203.5,224.3z"/>
			<path class="st21" d="M185.1,218l-32.4,9.2c-0.3-0.2-0.6-0.4-0.8-0.7l30.6-8.7C183.4,217.9,184.3,218,185.1,218z"/>
			<path class="st21" d="M196,219.9l-36,10.2c-0.6-0.1-1.1-0.3-1.6-0.4l36-10.2C194.9,219.6,195.4,219.7,196,219.9z"/>
			<path class="st18" d="M181,228.8v1.2h-5.6v-1.2c-3.4,0-6.8-0.3-10.1-0.8l3-1.9c3,0.5,6.1,0.7,9.1,0.7c2.6,0,3.6-0.1,3.6-0.4
				c0-1-15.3-0.2-15.3-3.1c0-1.3,3.2-2.3,9.7-2.6v-1.2h5.5v1.2c2.7,0,5.3,0.3,8,0.6l-2.8,1.9c-2.5-0.4-5.1-0.6-7.7-0.6
				c-2.7,0-3.6,0.2-3.6,0.5c0,1,15.3,0.2,15.3,3.1C190.2,227.4,187.1,228.5,181,228.8z"/>
			<path class="st19" d="M180.9,228.4v1.2h-5.6v-1.2c-3.4,0-6.8-0.3-10.1-0.8l3-1.9c3,0.5,6.1,0.7,9.1,0.7c2.6,0,3.6-0.2,3.6-0.4
				c0-1-15.3-0.2-15.3-3.1c0-1.3,3.2-2.3,9.7-2.6v-1.2h5.6v1.2c2.7,0.1,5.3,0.3,8,0.6l-2.8,1.9c-2.5-0.4-5.1-0.6-7.7-0.6
				c-2.7,0-3.6,0.2-3.6,0.5c0,0.9,15.3,0.2,15.3,3.1C190.1,227,187,228.1,180.9,228.4z"/>
			<path class="st7" d="M211,220.4v0.1c-0.1,1.3-0.7,2.5-1.7,3.3c-0.3,0.3-0.6,0.5-0.9,0.7c-1.1,0.8-2.2,1.4-3.5,1.9l-0.9,0.4
				c-1.1,0.4-2.2,0.8-3.5,1.2l-0.9,0.2c-1.1,0.3-2.2,0.6-3.5,0.8l-0.9,0.2c-1.1,0.2-2.3,0.4-3.5,0.6l-0.9,0.1
				c-1.1,0.1-2.3,0.3-3.5,0.4l-0.9,0.1c-1.1,0.1-2.3,0.2-3.5,0.2H182c-1.1,0-2.3,0.1-3.5,0.1h-0.9c-1.2,0-2.3,0-3.5-0.1h-0.9
				c-0.9,0-1.7-0.1-2.6-0.1l-0.9-0.1l-0.9-0.1c-1.2-0.1-2.4-0.2-3.5-0.4l-0.9-0.1l-2.1-0.3l-1.4-0.2l-0.9-0.2
				c-1.2-0.2-2.4-0.5-3.5-0.8l-0.6-0.2l-0.3-0.1c-0.5-0.1-1-0.3-1.4-0.4c-0.7-0.2-1.4-0.5-2-0.7c-0.3-0.1-0.6-0.2-0.9-0.4
				c-1.1-0.4-2.1-1-3.1-1.6l-0.4-0.3c-0.2-0.1-0.3-0.2-0.5-0.3L147,224c-1.2-0.8-1.9-2.1-2-3.5c0-0.1,0-0.2,0-0.3v-7.1h66V220.4
				L211,220.4z"/>
			<path class="st18" d="M147.9,213.2v11.5c-0.2-0.1-0.3-0.2-0.5-0.3L147,224v-10.8H147.9z"/>
			<path class="st18" d="M152.3,213.2v13.7c-0.3-0.1-0.6-0.2-0.9-0.4v-13.4L152.3,213.2L152.3,213.2z"/>
			<path class="st18" d="M156.7,213.2v15.1l-0.6-0.2l-0.3-0.1v-14.9L156.7,213.2L156.7,213.2z"/>
			<path class="st18" d="M161.1,213.2v16.1l-0.9-0.2v-15.9L161.1,213.2L161.1,213.2z"/>
			<path class="st18" d="M165.5,213.2V230l-0.9-0.1v-16.7H165.5z"/>
			<path class="st18" d="M169.8,213.1v17.2l-0.9-0.1V213h0.9V213.1z"/>
			<path class="st18" d="M174.2,213.1v17.5h-0.9v-17.5H174.2z"/>
			<path class="st18" d="M178.6,213.1v17.6h-0.9v-17.6H178.6z"/>
			<path class="st18" d="M183,213.1v17.4h-0.9v-17.4H183z"/>
			<path class="st18" d="M187.4,213.1v17.2l-0.9,0.1v-17.2L187.4,213.1z"/>
			<path class="st18" d="M191.8,213.1v16.6l-0.9,0.1V213L191.8,213.1L191.8,213.1z"/>
			<path class="st18" d="M196.1,213.1V229l-0.9,0.2v-16.1L196.1,213.1L196.1,213.1z"/>
			<path class="st18" d="M200.5,213.1V228l-0.9,0.2v-15.1L200.5,213.1z"/>
			<path class="st18" d="M204.9,213.1v13.3l-0.9,0.4v-13.7H204.9z"/>
			<path class="st18" d="M209.3,213.1v10.7c-0.3,0.3-0.6,0.5-0.9,0.7v-11.4H209.3z"/>
			<path class="st19" d="M211,213.2c0,5.2-14.8,9.4-33,9.4c-2.5,0-4.9-0.1-7.2-0.2c-2.9-0.2-5.7-0.5-8.3-0.9
				c-2.3-0.4-4.4-0.8-6.4-1.3c-0.6-0.1-1.2-0.3-1.7-0.5c-2.1-0.6-4.1-1.4-6-2.4c-0.3-0.2-0.6-0.4-0.8-0.5c-1.6-1.1-2.5-2.3-2.5-3.6
				c0-0.1,0-0.2,0-0.4c0.6-5,15.2-9,33-9c4.1,0,8.3,0.2,12.4,0.7c0.7,0.1,1.5,0.2,2.2,0.3c2.8,0.4,5.6,0.9,8.4,1.7
				c0.6,0.1,1.1,0.3,1.6,0.5c1.6,0.5,3.1,1.1,4.6,1.9c1.1,0.5,2.2,1.3,3,2.2c0.4,0.5,0.7,1.1,0.8,1.8C211,213,211,213.1,211,213.2z"
				/>
			<path class="st20" d="M210.1,211l-39.4,11.3c-2.9-0.2-5.7-0.5-8.3-0.9l44.7-12.7C208.3,209.3,209.3,210.1,210.1,211z"/>
			<path class="st20" d="M192.6,204.8l-44.2,12.5c-0.3-0.2-0.6-0.4-0.8-0.5l42.9-12.3C191.1,204.6,191.9,204.7,192.6,204.8z"/>
			<path class="st20" d="M202.6,206.9l-46.5,13.3c-0.6-0.1-1.2-0.3-1.7-0.5l46.7-13.3C201.5,206.6,202,206.8,202.6,206.9z"/>
			<path class="st18" d="M204.4,213.2c0,0.1,0,0.2,0,0.3c-0.6,4-12.2,7.1-26.4,7.1s-25.7-3.2-26.4-7.1c0-0.1,0-0.2,0-0.3
				c0-4.1,11.8-7.5,26.4-7.5S204.4,209.1,204.4,213.2z"/>
			<path class="st7" d="M204.4,213.5c-0.6,4-12.2,7.1-26.4,7.1h-0.9c-3,0-6-0.2-9-0.5c-2.5-0.3-5.1-0.7-7.6-1.3
				c-0.6-0.1-1.1-0.3-1.6-0.4c-2-0.5-3.8-1.3-5.5-2.4c-0.3-0.2-0.6-0.4-0.8-0.7c-0.5-0.4-0.9-1-1-1.7c0.6-4,12.2-7.1,26.4-7.1
				c1.8,0,3.5,0,5.2,0.1c0.9,0,1.7,0.1,2.5,0.2c3.1,0.2,6.2,0.7,9.2,1.4c0.6,0.1,1.1,0.3,1.7,0.4c1.8,0.5,3.5,1.1,5.1,2
				c1.1,0.5,1.9,1.4,2.5,2.4C204.2,213.1,204.3,213.3,204.4,213.5z"/>
			<path class="st21" d="M204.2,213l-27.1,7.7c-3,0-6-0.2-9-0.5l33.6-9.6C202.7,211.1,203.6,212,204.2,213z"/>
			<path class="st21" d="M185.8,206.7l-32.4,9.2c-0.3-0.2-0.6-0.4-0.8-0.7l30.6-8.7C184.1,206.6,184.9,206.6,185.8,206.7z"/>
			<path class="st21" d="M196.6,208.6l-36,10.2c-0.6-0.1-1.1-0.3-1.6-0.4l36-10.2C195.5,208.3,196.1,208.4,196.6,208.6z"/>
			<path class="st4" d="M313.4,56.3c0-2.1,1.7-3.9,3.9-3.9s3.9,1.7,3.9,3.9s-1.7,3.9-3.9,3.9l0,0C315.2,60.2,313.4,58.5,313.4,56.3
				L313.4,56.3z M314.7,56.3c0,1.5,1.2,2.7,2.7,2.7s2.7-1.2,2.7-2.7s-1.2-2.7-2.7-2.7l0,0C315.9,53.7,314.7,54.9,314.7,56.3
				L314.7,56.3z"/>
			<path class="st7" d="M299.5,70c0-2.1,1.7-3.9,3.9-3.9c2.1,0,3.9,1.7,3.9,3.9c0,2.1-1.7,3.9-3.9,3.9l0,0
				C301.2,73.9,299.5,72.1,299.5,70z M300.7,70c0,1.5,1.2,2.7,2.7,2.7s2.7-1.2,2.7-2.7s-1.2-2.7-2.7-2.7l0,0
				C301.9,67.3,300.7,68.5,300.7,70z"/>
			<path class="st4" d="M298.5,86.5c0.3,0,0.6-0.3,0.6-0.6v-2.7c0-0.3-0.3-0.6-0.6-0.6c-0.3,0-0.6,0.3-0.6,0.6v2.7
				C297.9,86.2,298.2,86.5,298.5,86.5L298.5,86.5z"/>
			<path class="st4" d="M298.5,91.2c0.3,0,0.6-0.3,0.6-0.6v-2.7c0-0.3-0.3-0.6-0.6-0.6c-0.3,0-0.6,0.3-0.6,0.6v2.7
				C297.9,90.9,298.2,91.2,298.5,91.2L298.5,91.2z"/>
			<path class="st4" d="M294.8,87.5h2.4c0.3,0,0.6-0.3,0.6-0.6s-0.3-0.6-0.6-0.6h-2.4c-0.3,0-0.6,0.3-0.6,0.6S294.4,87.5,294.8,87.5
				z"/>
			<path class="st4" d="M299.9,87.5h2.4c0.3,0,0.6-0.3,0.6-0.6s-0.3-0.6-0.6-0.6h-2.4c-0.3,0-0.6,0.3-0.6,0.6S299.6,87.5,299.9,87.5
				z"/>
			<path class="st7" d="M320,71.4c0.3,0,0.6-0.3,0.6-0.6v-2.7c0-0.3-0.3-0.6-0.6-0.6c-0.3,0-0.6,0.3-0.6,0.6v2.7
				C319.4,71.1,319.7,71.4,320,71.4L320,71.4z"/>
			<path class="st7" d="M320,76.1c0.3,0,0.6-0.3,0.6-0.6l0,0v-2.7c0-0.3-0.3-0.6-0.6-0.6c-0.3,0-0.6,0.3-0.6,0.6v2.7
				C319.4,75.8,319.7,76.1,320,76.1L320,76.1z"/>
			<path class="st7" d="M316.2,72.4h2.4c0.3,0,0.6-0.3,0.6-0.6s-0.3-0.6-0.6-0.6l0,0h-2.4c-0.3,0-0.6,0.3-0.6,0.6
				S315.9,72.4,316.2,72.4z"/>
			<path class="st7" d="M321.4,72.4h2.4c0.3,0,0.6-0.3,0.6-0.6s-0.3-0.6-0.6-0.6h-2.4c-0.3,0-0.6,0.3-0.6,0.6S321,72.4,321.4,72.4z"
				/>
			<path class="st4" d="M110.3,48.7c-2.1,0-3.9-1.7-3.9-3.9c0-2.1,1.7-3.9,3.9-3.9c2.1,0,3.9,1.7,3.9,3.9l0,0
				C114.2,46.9,112.4,48.7,110.3,48.7L110.3,48.7z M110.3,47.4c1.5,0,2.7-1.2,2.7-2.7s-1.2-2.7-2.7-2.7s-2.7,1.2-2.7,2.7l0,0
				C107.6,46.2,108.8,47.4,110.3,47.4z"/>
			<path class="st7" d="M124.4,61.5c-2.1,0-3.9-1.7-3.9-3.9c0-2.1,1.7-3.9,3.9-3.9c2.1,0,3.9,1.7,3.9,3.9l0,0
				C128.3,59.7,126.6,61.5,124.4,61.5z M124.4,60.3c1.5,0,2.7-1.2,2.7-2.7s-1.2-2.7-2.7-2.7s-2.7,1.2-2.7,2.7l0,0
				C121.8,59.1,122.9,60.3,124.4,60.3z"/>
			<path class="st4" d="M129.5,39.3c0-0.3-0.3-0.6-0.6-0.6l0,0h-2.7c-0.3,0-0.6,0.3-0.6,0.6l0,0c0,0.3,0.3,0.6,0.6,0.6l0,0h2.7
				C129.3,39.9,129.5,39.6,129.5,39.3z"/>
			<path class="st4" d="M134.2,39.3c0-0.3-0.3-0.6-0.6-0.6l0,0H131c-0.3,0-0.6,0.3-0.6,0.6l0,0c0,0.3,0.3,0.6,0.6,0.6l0,0h2.7
				C134,39.9,134.3,39.6,134.2,39.3z"/>
			<path class="st4" d="M130.6,43v-2.4c0-0.3-0.3-0.6-0.6-0.6l0,0c-0.3,0-0.6,0.3-0.6,0.6l0,0V43c0,0.3,0.3,0.6,0.6,0.6l0,0
				C130.3,43.7,130.6,43.4,130.6,43L130.6,43z"/>
			<path class="st4" d="M130.6,37.9v-2.4c0-0.3-0.3-0.6-0.6-0.6l0,0c-0.3,0-0.6,0.3-0.6,0.6v2.4c0,0.3,0.3,0.6,0.6,0.6l0,0
				C130.3,38.5,130.6,38.3,130.6,37.9L130.6,37.9z"/>
			<path class="st7" d="M101.1,60.3c0-0.3-0.3-0.6-0.6-0.6h-2.7c-0.3,0-0.6,0.3-0.6,0.6l0,0c0,0.3,0.3,0.6,0.6,0.6l0,0h2.7
				C100.8,60.9,101.1,60.6,101.1,60.3L101.1,60.3z"/>
			<path class="st7" d="M105.8,60.3c0-0.3-0.3-0.6-0.6-0.6l0,0h-2.7c-0.3,0-0.6,0.3-0.6,0.6s0.3,0.6,0.6,0.6l0,0h2.7
				C105.5,60.9,105.8,60.6,105.8,60.3L105.8,60.3z"/>
			<path class="st7" d="M102.1,64.1v-2.4c0-0.3-0.3-0.6-0.6-0.6l0,0c-0.3,0-0.6,0.3-0.6,0.6l0,0v2.4c0,0.3,0.3,0.6,0.6,0.6l0,0
				C101.8,64.7,102.1,64.4,102.1,64.1z"/>
			<path class="st7" d="M102.1,58.9v-2.4c0-0.3-0.3-0.6-0.6-0.6l0,0c-0.3,0-0.6,0.3-0.6,0.6l0,0v2.4c0,0.3,0.3,0.6,0.6,0.6l0,0
				C101.8,59.5,102.1,59.2,102.1,58.9L102.1,58.9z"/>
			<path class="st7" d="M165.5,42.4h9.2c3.6,0,6.5,2.9,6.5,6.5v9.2c0,3.6-2.9,6.5-6.5,6.5h-9.2c-3.6,0-6.5-2.9-6.5-6.5V49
				C158.9,45.4,161.9,42.4,165.5,42.4z"/>
			<path class="st5" d="M163,50.9c0-1.7,1.3-3,3-3s3,1.3,3,3s-1.3,3-3,3S163,52.6,163,50.9z M172.6,47.9h2.7l-7.7,11.3h-2.7
				L172.6,47.9z M166.7,50.9c0-1.1-0.4-1.4-0.7-1.4s-0.7,0.3-0.7,1.4s0.4,1.4,0.7,1.4S166.7,52,166.7,50.9L166.7,50.9z M171.3,56.2
				c0.1-1.7,1.5-2.9,3.1-2.9c1.7,0.1,2.9,1.5,2.9,3.1c-0.1,1.6-1.4,2.9-3,2.9c-1.6,0.1-3-1.1-3.1-2.7
				C171.2,56.5,171.2,56.4,171.3,56.2L171.3,56.2z M175,56.2c0-1.1-0.4-1.4-0.7-1.4s-0.7,0.3-0.7,1.4s0.4,1.4,0.7,1.4
				S174.9,57.3,175,56.2L175,56.2z"/>
		</g>
	</g>
	<g id="dx4iJZ.tif">
		
			<image style="overflow:visible;" width="300" height="85" id="Layer_0_1_" xlink:href="7DD1F7AF064C2F1E.png"  transform="matrix(1 0 0 1 -332.5 61.5)">
		</image>
	</g>
</g>
</svg>
