<?xml version="1.0" encoding="utf-8"?>
<!-- Generator: Adobe Illustrator 22.1.0, SVG Export Plug-In . SVG Version: 6.00 Build 0)  -->
<svg version="1.1" id="katman_1" xmlns="http://www.w3.org/2000/svg" xmlns:xlink="http://www.w3.org/1999/xlink" x="0px" y="0px"
	 viewBox="0 0 399.3 354.5" style="enable-background:new 0 0 399.3 354.5;" xml:space="preserve">
<style type="text/css">
	.st0{fill:#214357;}
	.st1{fill:#F4AD6F;}
	.st2{fill:#DBFFFE;}
	.st3{fill:#2D5B75;}
	.st4{fill:#356975;}
	.st5{fill:#FFFFFF;}
	.st6{fill:#A7F0EF;}
	.st7{opacity:0.2;fill:#FFFFFF;enable-background:new    ;}
	.st8{opacity:0.25;enable-background:new    ;}
	.st9{fill:#FDD184;}
	.st10{fill:#FEE2AD;}
	.st11{fill:#FEFEFE;}
	.st12{fill:#C24C4B;}
	.st13{fill:#9E3231;}
	.st14{fill:#0074E5;}
	.st15{fill:#0082ED;}
	.st16{clip-path:url(#SVGID_2_);}
	.st17{fill:#FFD48F;}
	.st18{fill:#FFA347;}
	.st19{fill:#F5C476;}
	.st20{fill:#8F6135;}
	.st21{opacity:0.1;enable-background:new    ;}
	.st22{fill:#736CFF;}
	.st23{fill:#36C976;}
	.st24{fill:#41FC94;}
	.st25{fill:#2EA661;}
	.st26{clip-path:url(#SVGID_4_);}
	.st27{fill:#FFC975;}
	.st28{fill:#EBB159;}
</style>
<title>hatirlatici</title>
<g id="katman_2_1_">
	<g id="OBJECTS">
		<path class="st0" d="M135.4,44.8h85.8c6,0,10.8,4.8,10.8,10.8v180.5c0,6-4.8,10.8-10.8,10.8h-85.8c-6,0-10.8-4.8-10.8-10.8V55.6
			C124.6,49.7,129.4,44.8,135.4,44.8z"/>
		<path class="st1" d="M115.3,101.4c1.6,1.3,3.1,2.8,4.5,4.3c3.6,4.1,3.3,4.2,4.8,7.6V101L115.3,101.4z"/>
		<rect x="131.2" y="65.5" class="st2" width="93.9" height="160.7"/>
		<path class="st3" d="M198.9,58.4h-30c-1.1,0-2-0.9-2-2l0,0c0-1.1,0.9-2,2-2h30c1.1,0,2,0.9,2,2l0,0
			C200.9,57.5,200,58.4,198.9,58.4z"/>
		<circle class="st4" cx="158.6" cy="56.4" r="3.2"/>
		<path class="st3" d="M184.8,236.3c0,3.6-2.9,6.5-6.5,6.5s-6.5-2.9-6.5-6.5s2.9-6.5,6.5-6.5l0,0
			C181.9,229.8,184.8,232.7,184.8,236.3z"/>
		<path class="st0" d="M183.8,236.3c0,3-2.4,5.5-5.5,5.5s-5.5-2.4-5.5-5.5s2.4-5.5,5.5-5.5S183.8,233.3,183.8,236.3L183.8,236.3z"/>
		<path class="st5" d="M185.5,89.1h-44.4c-1.2,0-2.1,1-2.1,2.2v1.1l-5,2.8l5,2.8v1.2c0,1.2,1,2.2,2.2,2.2h44.4c1.2,0,2.2-1,2.2-2.2
			v-8C187.7,90.1,186.7,89.1,185.5,89.1L185.5,89.1z"/>
		<path class="st6" d="M169.9,118.8h44.4c1.2,0,2.2-1,2.1-2.2v-1.1l4.9-2.8l-4.9-2.8v-1.2c0-1.2-1-2.2-2.1-2.2h-44.4
			c-1.2,0-2.2,1-2.2,2.2l0,0v8C167.8,117.9,168.7,118.8,169.9,118.8z"/>
		<path class="st6" d="M169.9,134.6h44.4c1.2,0,2.2-1,2.1-2.2v-1.1l4.9-2.8l-4.9-2.8v-1.2c0-1.2-1-2.2-2.1-2.2h-44.4
			c-1.2,0-2.2,1-2.2,2.2l0,0v8C167.8,133.6,168.7,134.6,169.9,134.6z"/>
		<path class="st5" d="M204.7,141.1h-62c-1.9,0-3.4,1.5-3.4,3.4v0.1l-5.2,3l5.2,3v9c0,1.9,1.5,3.4,3.4,3.4h62c1.9,0,3.4-1.5,3.4-3.4
			v-15.1C208.1,142.6,206.6,141.1,204.7,141.1z"/>
		<path class="st6" d="M151,184.1h62c1.9,0,3.4,1.5,3.4,3.4l0,0v0.1l5.2,3l-5.2,3v9c0,1.9-1.5,3.4-3.4,3.4l0,0h-62
			c-1.9,0-3.4-1.5-3.4-3.4l0,0v-15.1C147.6,185.6,149.1,184.1,151,184.1L151,184.1z"/>
		<path class="st5" d="M185.7,167.9h-44.4c-1.2,0-2.2,1-2.2,2.1v1l-5.1,3l5.1,3v1c0,1.2,1,2.2,2.2,2.2l0,0h44.4c1.2,0,2.2-1,2.2-2.2
			l0,0v-8C187.9,168.9,186.9,167.9,185.7,167.9z"/>
		<rect x="131.2" y="65.5" class="st6" width="93.9" height="16.5"/>
		<rect x="131.2" y="213.2" class="st5" width="93.9" height="12.9"/>
		<polygon class="st7" points="225,65.5 131.2,226.1 131.2,185.7 200.9,65.5 		"/>
		<polygon class="st7" points="131.2,148.8 179.8,65.5 155.1,65.5 131.2,105.6 		"/>
		<path class="st8" d="M154.6,161.5c0,0-9,3.8-17.1,7.6c-4.6,2.3-8.9,5.1-12.9,8.4v58.6c0,6,4.8,10.8,10.8,10.8h2.2
			c2.9-11.1-2.1-33.3-2-36.5c0.2-3.8,3.5-14.7,15-28.3S154.6,161.5,154.6,161.5z"/>
		<path class="st8" d="M219.7,237.7c-3.5,2.8-6.8,5.8-9.7,9.2h11.2c6,0,10.8-4.8,10.8-10.8l0,0v-25.2c-9.3-6.8-21.8-12-21.8-12
			s-5.9,12.9,4.4,20.1S225,233.7,219.7,237.7z"/>
		<path class="st9" d="M124.6,149.2v-48.1c0,0-3.6-0.5-15.5,0.8c-9.8,1.1-16.3,15-23.5,23.8c-6.9,8.4-28.3,23.6-33,33.8
			c-11.2,24.1-11.5,47.8-14.1,65s-6.2,58-3.5,67.5s-3.5,25.6-3.5,25.6l50.2,16.8c0,0,5.2-12.2,11.6-19.2s21.8-21.3,27.7-36.5
			c5.2-13.4,6.6-35.4,6.6-35.4l-1.4-1.9c-0.9-1.2-1.3-2.7-1.4-4.2l-0.1-31.8c0,0,10.4-20.9,20-29c13.3-11.1,13-25.7,4.2-29.6
			c-7.3-3.2-24.2,11.8-24.2,11.8L124.6,149.2z"/>
		<path class="st1" d="M124.6,155c0,0-20.6,18.3-25.4,22.3s-12.5,9.8-14.8,14.4c-3.6,7.3-7,28.2-7,28.2s5.8-24.6,15.3-33.2
			c7.2-6.6,31.9-28.2,31.9-28.2V155z"/>
		<path class="st1" d="M101,150.6c-1,0.9-5.5,4.2-9.7,3.4c-2.4-0.5-4.7-1.4-6.7-2.7c1.6,2.3,3.5,4.2,5.8,5.8c2,1.3,3.3,3.6,3.5,6
			c0.7,6.2,0.7,12.5,0,18.7l3.1-2.6c0,0.6-0.1,1-0.1,1l15.7-12.3l11.4-10.4l0.6-2.5v-35.2C124.6,119.8,109.3,142.6,101,150.6z"/>
		<path class="st10" d="M149.4,154.4c-0.5-1.7-4.5-7.2-7.3-7c-5.3,1.9-11.5,6.5-14.9,9.2l0,0c0,0,0.8,5,7.5,4.9
			C141.4,161.4,149.9,156,149.4,154.4z"/>
		<path class="st1" d="M126,241.5c-0.9-1.2-1.3-2.7-1.4-4.2l-0.1-31.8c0,0-4.1,6.7-4.3,12.2s1.6,32.4-0.2,38.6l0,0l-0.2,0.8
			c-2.1,7.4-4.6,15.1-6.8,19c-5,9-12.2,16.4-19.1,22.1s-7.6,20.1-18.7,20.3C47.5,319.2,35,304.2,35,304.2l0,0
			c-0.1,0.4-0.2,0.9-0.2,1.3v0.2c-0.1,0.4-0.1,0.7-0.2,1l-0.1,0.3l-0.2,1c0,0.1,0,0.1,0,0.2c-0.2,0.8-0.4,1.5-0.6,2.3v0.1
			c-0.1,0.3-0.2,0.6-0.2,0.9l-0.1,0.2c-0.1,0.3-0.2,0.6-0.2,0.8v0.1c-0.2,0.6-0.4,1.2-0.5,1.8v0.1c-0.1,0.2-0.1,0.5-0.2,0.7v0.1
			l-0.2,0.5v0.1c-0.1,0.4-0.2,0.7-0.3,1v0.1c0,0.1-0.1,0.2-0.1,0.2v0.1l-0.1,0.1l0,0l0,0L80.3,334l0,0l1.3,0.4
			c0,0,5.2-12.2,11.6-19.2s21.8-21.3,27.7-36.5c5.2-13.4,6.6-35.4,6.6-35.4L126,241.5z"/>
		<path class="st11" d="M127.2,156.6c0.5,2,2,3.7,4,4.4c-0.1-0.6-0.2-1.3-0.4-1.9c-1.1-3.8-1.6-4.1-1.6-4.1
			C128.5,155.6,127.8,156.1,127.2,156.6L127.2,156.6z"/>
		<path class="st9" d="M232,181.7v-18.3c0,0,26.7,19.8,29.8,18.1c3.6-1.9-0.6-15.8-9.1-34.1c-4.5-9.6-20.7-36.7-20.7-36.7V92.4
			c0-3.9,9.7-3.2,14,1.3c7.6,8.1,23.1,24.1,30.4,33.7s53.3,74.1,60,96.5c7.7,25.6,3,56.2,4.1,63.8s10.4,25.4,10.4,25.4l-52.3,28.2
			c0,0-4.6-8.9-11.3-21.5c-3.3-6.2-26.9-4.8-45.3-44.6c-8.3-17.9-27.1-28-24.8-28s4.5,0.7,9.3-1.4s5.4-9.4,5.4-9.4V224
			c0,0-1.3-4.9-7.4-9.1c-14.3-9.7-18.7-21.2-13.9-29.9c2.2-4,6.2-4.9,13.8-0.7s7.5,4.7,7.5,4.7L232,181.7L232,181.7z"/>
		<path class="st9" d="M226.6,245.5c-1.5,0.7-3,1.2-4.6,1.4C223.6,246.8,225.2,246.3,226.6,245.5z"/>
		<path class="st9" d="M224.6,215c6.1,4.2,7.4,9.1,7.4,9.1V189c0,0,0-0.4-7.5-4.6s-11.6-3.3-13.8,0.7
			C205.9,193.8,210.4,205.2,224.6,215z"/>
		<path class="st9" d="M229.5,243c1.6-1.9,2.5-4.4,2.5-6.9C231.7,238.6,230.8,240.9,229.5,243z"/>
		<path class="st10" d="M232,189c0,0,0-0.4-7.5-4.6c-1.6-0.9-3.2-1.6-4.9-2.2c-0.2,0-4,0.7-5.1,4s-0.8,7.3,6.5,11.1
			s13.3,0.1,13.7-1.8s1.5-7.8,1.5-7.8s-1.9-1.9-4.2-3.9V189z"/>
		<path class="st1" d="M350.9,312.9c0,0-0.9-1.8-2.2-4.5l-2-3.9c0,0-26.3,16.4-40.4,14.7c-11.2-1.3-12-5.2-17.2-8.3
			c-9.5-5.8-22.7-11.5-29.8-20.2s-19.2-31.3-20.7-41.6c-1.3-8.6-3.6-17-6.7-25.2V236c0,0,0,0.4-0.2,1.2c0,0.2-0.1,0.4-0.1,0.6
			c-0.5,2.3-1.9,6.2-5.1,7.6c-1,0.5-2.1,0.8-3.1,1.1l-0.7,0.1c-0.4,0.1-0.8,0.1-1.2,0.2c-0.8,0.1-1.7,0.1-2.5,0.1
			c-0.6,0-1.2-0.1-1.8-0.1s-0.1,0.4,0.7,1.1c0.4,0.4,1,0.8,1.6,1.3l1,0.8l1.2,1c1.7,1.4,3.7,3,5.9,5c4.1,3.7,7.7,7.9,10.7,12.5
			c0.3,0.5,0.6,1,0.9,1.5c1,1.6,1.8,3.2,2.6,4.8c0.5,1.1,1,2.2,1.6,3.3c0.1,0.2,0.2,0.3,0.2,0.5c0.5,1,1,2,1.5,3l0.3,0.5
			c0.5,1,1.1,1.9,1.6,2.8l0.2,0.3c0.5,0.9,1.1,1.8,1.6,2.7l0.1,0.1c0.6,0.9,1.1,1.7,1.7,2.5l0.2,0.3c0.6,0.8,1.1,1.5,1.6,2.3
			l0.2,0.3c0.6,0.8,1.1,1.5,1.7,2.2l0,0c0.6,0.7,1.2,1.5,1.8,2.1l0,0c0.6,0.7,1.2,1.3,1.8,1.9l0.1,0.1c0.6,0.6,1.2,1.2,1.7,1.8l0,0
			c0.4,0.4,0.8,0.7,1.1,1.1l0.2,0.2l1,0.9l0.2,0.1c0.4,0.3,0.8,0.7,1.1,1l0.1,0.1c0.3,0.3,0.7,0.6,1,0.8l0.2,0.2
			c0.4,0.3,0.7,0.6,1.1,0.8l0,0l1.1,0.8l0.2,0.1l0.9,0.7l0.2,0.1c0.7,0.5,1.4,0.9,2.1,1.4l0.2,0.1l0.9,0.6h0.1l1,0.6l0,0l1,0.5
			l0.1,0.1c0.7,0.4,1.3,0.7,1.9,1h0.1l0.9,0.4h0.1c1.7,0.8,3.2,1.5,4.5,2.1l0.2,0.1l0.4,0.2l0.6,0.3l0.2,0.1l0.4,0.2l0.2,0.1
			l0.5,0.3h0.1l0.5,0.3l0.2,0.1l0.4,0.2l0.1,0.1l0.4,0.3l0.1,0.1l0.3,0.2l0.1,0.1l0.3,0.2c0,0,0,0.1,0.1,0.1
			c0.1,0.1,0.2,0.2,0.3,0.3l0.1,0.1l0.2,0.2c0,0,0,0.1,0.1,0.1c0.1,0.1,0.1,0.2,0.2,0.4l0,0c2.5,4.8,4.7,9,6.5,12.4
			c0.3,0.6,0.6,1.1,0.9,1.6c2.5,4.7,3.9,7.5,3.9,7.5L350.9,312.9z"/>
		<path class="st11" d="M234.6,195.4c0.4-2,1.5-7.8,1.5-7.8s-0.8-0.8-2-1.9c-0.5,1.3-1,2.5-1.3,3.9c-0.5,2.6-0.6,5.3-0.1,7.9
			C233.6,197,234.3,196.3,234.6,195.4z"/>
		<path class="st1" d="M269.4,211.8c-11-9.6-21.9-18-19.3-24.1c2.3-5.5,8.1,0,12.4,3c6.1,4.2,16.6,9.9,16.6,9.9s-6.4-8.8-8.2-13.1
			s-4.6-11-5.2-16.3s-3.4-12-4.3-14.6c-2.6-6.7,13.6-10.7,13.6-10.7s-9.7,1.8-11.6,1.4c-4.2-0.7-7.8-3.6-9.4-7.5
			c-2.6-5.5-5.6-10.8-9-15.9c-2.8-4.2,11.9-8.4,11.9-8.4s-15.8,2.7-16.6,0.8c-3.4-7.8-8.3-16.9-8.3-16.9v11.3
			c0,0,16.2,27.1,20.7,36.7c0.3,0.6,0.6,1.3,0.9,1.9c0.1,0.2,0.2,0.4,0.3,0.6l0.6,1.2l0.3,0.7l0.5,1.1l0.3,0.7
			c0.2,0.4,0.3,0.8,0.5,1.1l0.3,0.6c0.2,0.5,0.4,0.9,0.6,1.4c0,0.1,0.1,0.2,0.1,0.3l0.7,1.7c0.1,0.2,0.1,0.3,0.2,0.5
			c0.1,0.4,0.3,0.8,0.5,1.1l0.2,0.6c0.1,0.3,0.3,0.7,0.4,1s0.2,0.4,0.2,0.6l0.4,1c0.1,0.2,0.1,0.4,0.2,0.6c0.1,0.4,0.3,0.7,0.4,1.1
			l0.1,0.4l0.5,1.4c0,0.1,0.1,0.2,0.1,0.3c0.1,0.4,0.2,0.7,0.3,1.1c0,0.1,0.1,0.3,0.1,0.5s0.2,0.6,0.3,0.9s0.1,0.3,0.1,0.5l0.2,0.8
			l0.1,0.5c0.1,0.3,0.1,0.5,0.2,0.8l0.1,0.4c0.1,0.4,0.2,0.8,0.2,1.1l0,0c0.1,0.5,0.2,1,0.3,1.5l0,0c0.1,0.5,0.1,1,0.2,1.5l0,0
			c0.1,1.1,0.1,2.2-0.2,3.3l0,0c-0.1,0.6-0.5,1.1-1,1.4c-2.4,1.3-18-9.6-25.6-15L232,164v25c0,0,28.7,19.7,34.9,25.7
			c6.9,6.6,23,27.7,23,27.7S278,219.3,269.4,211.8z"/>
		<path class="st12" d="M89.2,354.5l4.2-10.9c1.7-4.5-0.5-9.4-5-11.1l0,0l-61.6-23.7c-4.5-1.7-9.4,0.5-11.1,5l0,0L0,354.5H89.2z"/>
		<path class="st13" d="M88.4,332.4l-61.6-23.7c-4.2-1.6,27.5,17.1,30.8,32.4c1.1,5.1,0.2,13.4,0.2,13.4h31.4l4.2-10.9
			C95.1,339.1,92.9,334.1,88.4,332.4z"/>
		<path class="st12" d="M288.4,354.5h94.7L365.3,313c-2-4.6-7.3-6.8-11.9-4.8l-63.3,27.1c-4.6,2-6.7,7.3-4.8,11.9l0,0L288.4,354.5z"
			/>
		<path class="st13" d="M290.1,335.3c-4.6,2-6.7,7.3-4.8,11.9l0,0l3.1,7.2h31.9c-2-4.2-3.1-8.7-3.1-13.4
			c-0.2-10.2,5.7-19.8,5.7-19.8L290.1,335.3z"/>
		<path class="st14" d="M154.7,0H47.4C25.4,0,7.6,17.8,7.6,39.8l0,0l0,0c0,22,17.8,39.8,39.8,39.8l0,0h107.3
			c22,0,39.8-17.8,39.8-39.8l0,0C194.4,17.8,176.6,0,154.7,0z"/>
		<circle class="st15" cx="48.4" cy="39.8" r="33.2"/>
		<g>
			<g>
				<defs>
					<circle id="SVGID_1_" cx="48.4" cy="39.8" r="33.2"/>
				</defs>
				<clipPath id="SVGID_2_">
					<use xlink:href="#SVGID_1_"  style="overflow:visible;"/>
				</clipPath>
				<g class="st16">
					<path class="st17" d="M60.6,51.8c-2.1,0-4,2-2.6,7c3,11.6,3,15.6,3,15.6h5.9c-0.9-4.3-1.5-8.6-1.7-13
						C65.1,55.4,62.2,51.9,60.6,51.8z"/>
					<path class="st17" d="M36.3,51.8c2.1,0,4,2,2.6,7c-3,11.6-3.1,15.6-3.1,15.6H30c0.9-4.3,1.5-8.6,1.7-13
						C31.9,55.4,34.7,51.9,36.3,51.8z"/>
					<path class="st18" d="M55.1,49c0,0-4.7,4.9-6.8,4.9S41.7,49,41.7,49c-5.5-0.2-10.1,4.2-10.3,9.7l0,0v0.4c0,0.2,0.1,0.3,0.3,0.3
						c1.5,0.2,5.8,3.3,5.8,3.3v11.7L59,74.3V62.7c0,0,4.5-2.9,5.9-3.2c0.2,0,0.3-0.1,0.3-0.3v-0.3C65.7,53.4,60.8,49,55.1,49z"/>
					<path class="st17" d="M53,47.2v-6.4h-9.7v6.3c0,1.5-1.9,1.7-2.5,1.9c-0.7,3.7,3.9,6.5,7.4,6.5s7.9-3.2,7.4-6.5
						C54.9,48.9,53,48.7,53,47.2z"/>
					<path class="st19" d="M53.1,47.7C53,47.6,53,47.4,53,47.2v-6.3h-9.8v4.4c1.3,2.2,3.7,3.5,6.3,3.4C50.8,48.7,52,48.3,53.1,47.7z
						"/>
					<path class="st17" d="M55.3,27.3c-2.7-2-11-2-13.7,0c-2.2,1.5-3.1,7.1-1.8,11.4c1.5,5.2,4,8.6,8.7,8.7c4.7-0.1,7.2-3.5,8.7-8.7
						C58.4,34.3,57.4,28.8,55.3,27.3z"/>
					<path class="st20" d="M51.4,28.8c0,0,3.3,3.1,3.8,4.4c0.7,1.9,0.5,8.1,0.5,8.1l2.8-5.4c0.3-1.6,0.3-3.2,0.1-4.8
						c-2-13.5-20.3-11.5-21,0c0,1.6,0,3.3,0.2,4.9l2.8,4.7c0,0-2-7.2,0-7.5C45.6,32.3,51.4,28.8,51.4,28.8z"/>
					<path class="st20" d="M38,30.2c0,0-2,8.3-2.2,11.3c-0.6,8,8.1,5.6,7.1,3.6C40.7,40.3,39.1,35.3,38,30.2z"/>
					<path class="st20" d="M58.5,30.1c0,0,2,8.3,2.2,11.2c0.6,8-8.4,5.8-7.2,3.9C56,40.5,57.7,35.4,58.5,30.1z"/>
				</g>
			</g>
		</g>
		<path class="st21" d="M48.4,6.5V73c18.3,0,33.2-14.9,33.2-33.2C81.6,21.4,66.8,6.6,48.4,6.5L48.4,6.5z"/>
		<path class="st22" d="M170.9,28.8h-63.8c-1.7,0-3,1.3-3,3l0,0c0,1.7,1.3,3,3,3h63.8c1.7,0,3-1.3,3-3l0,0
			C173.9,30.1,172.6,28.8,170.9,28.8L170.9,28.8z"/>
		<path class="st22" d="M170.9,43.4h-63.8c-1.7,0-3,1.3-3,3l0,0c0,1.7,1.3,3,3,3h63.8c1.7,0,3-1.3,3-3l0,0
			C173.9,44.7,172.6,43.4,170.9,43.4L170.9,43.4z"/>
		<path class="st22" d="M170.9,58h-63.8c-1.7,0-3,1.3-3,3l0,0l0,0c0,1.7,1.3,3,3,3h63.8c1.7,0,3-1.3,3-3l0,0
			C173.9,59.3,172.6,58,170.9,58L170.9,58z"/>
		<circle class="st22" cx="169.9" cy="17.4" r="4"/>
		<circle class="st22" cx="156.9" cy="17.4" r="4"/>
		<circle class="st22" cx="143.9" cy="17.4" r="4"/>
		<path class="st14" d="M166,70.4v20.3c0,2-1.6,3.7-3.7,3.7c-1,0-1.9-0.4-2.6-1.1l-23.6-23.6L166,70.4z"/>
		<path class="st23" d="M236.6,46.9h126.5c20,0,36.2,16.2,36.2,36.2l0,0c0,20-16.2,36.2-36.2,36.2H236.6c-20,0-36.2-16.2-36.2-36.2
			l0,0C200.4,63.1,216.6,46.9,236.6,46.9z"/>
		<path class="st24" d="M377.9,73H291c-1.5,0-2.7,1.2-2.7,2.7l0,0l0,0c0,1.5,1.2,2.7,2.7,2.7l0,0h86.9c1.5,0,2.7-1.2,2.7-2.7l0,0
			l0,0C380.6,74.2,379.4,73,377.9,73L377.9,73z"/>
		<path class="st24" d="M291,86.3h86.9c1.5,0,2.7,1.2,2.7,2.7l0,0c0,1.5-1.2,2.7-2.7,2.7H291c-1.5,0-2.7-1.2-2.7-2.7l0,0
			C288.3,87.6,289.5,86.3,291,86.3z"/>
		<path class="st24" d="M377.9,99.7H291c-1.5,0-2.7,1.2-2.7,2.7l0,0l0,0c0,1.5,1.2,2.7,2.7,2.7h86.9c1.5,0,2.7-1.2,2.7-2.7l0,0
			C380.6,100.9,379.4,99.7,377.9,99.7L377.9,99.7z"/>
		<path class="st24" d="M373.4,62.7c0-2,1.6-3.6,3.6-3.6s3.6,1.6,3.6,3.6c0,2-1.6,3.6-3.6,3.6S373.4,64.7,373.4,62.7L373.4,62.7z"/>
		<path class="st24" d="M361.5,62.7c0-2,1.6-3.6,3.6-3.6s3.6,1.6,3.6,3.6c0,2-1.6,3.6-3.6,3.6S361.5,64.7,361.5,62.7L361.5,62.7z"/>
		<path class="st24" d="M349.7,62.7c0-2,1.6-3.6,3.6-3.6s3.6,1.6,3.6,3.6c0,2-1.6,3.6-3.6,3.6S349.7,64.7,349.7,62.7L349.7,62.7z"/>
		<path class="st23" d="M228.2,110.9v18.5c0,1.9,1.5,3.4,3.3,3.4c0.9,0,1.7-0.4,2.4-1l21.5-21.5L228.2,110.9z"/>
		<circle class="st25" cx="237.2" cy="83.4" r="29.9"/>
		<g>
			<g>
				<defs>
					<circle id="SVGID_3_" cx="237.2" cy="83.4" r="29.9"/>
				</defs>
				<clipPath id="SVGID_4_">
					<use xlink:href="#SVGID_3_"  style="overflow:visible;"/>
				</clipPath>
				<g class="st26">
					<path class="st20" d="M228.1,73c0,0-1.8,10.9-2,14.8c-0.5,10.6,7.5,5.3,7.9,2.5c0.2-1.6-2.1-2.1-2.3-5.6
						C231.2,79.4,228.1,73,228.1,73z"/>
					<path class="st20" d="M246.5,73c0,0,1.8,10.9,2,14.8c0.5,10.6-7.5,5.3-7.9,2.5c-0.2-1.6,2.8-2.1,3.1-5.6
						C244.2,80.8,245.1,76.8,246.5,73z"/>
					<path class="st27" d="M253.3,114.6h-4.6l-3.1-12.8l3.1-9c0,0,4.6,2.6,4.4,10.6C253,107.8,253.3,114.6,253.3,114.6z"/>
					<path class="st27" d="M221,114.6h4.6l3.1-12.8l-3.1-9c0,0-4.6,2.6-4.4,10.6C221.3,107.8,221,114.6,221,114.6z"/>
					<path class="st5" d="M243.6,91.6h-12.9c-1.8,0.1-3.5,0.5-5.1,1.2c0.5,2.9,0.8,5.8,1,8.7v13h21.1v-13c0.2-2.9,0.5-5.8,1-8.7
						C247.1,92.1,245.4,91.7,243.6,91.6z"/>
					<path class="st27" d="M241.6,90.2v-5.7h-8.8v5.7c0,1.3-1.7,1.5-2.2,1.7c2.5,3.7,7.4,4.6,11.1,2.2c0.9-0.6,1.6-1.3,2.2-2.2
						C243.2,91.7,241.6,91.5,241.6,90.2z"/>
					<path class="st28" d="M241.6,90.6c0-0.1-0.1-0.3-0.1-0.4v-5.7h-8.8v4c1.2,2,3.4,3.1,5.6,3C239.6,91.5,240.7,91.2,241.6,90.6z"
						/>
					<path class="st27" d="M243.4,72.2c-2.4-1.8-9.5-1.8-11.9,0c-1.9,1.4-2.7,6.3-1.6,10.2c1.3,4.7,3.5,7.7,7.5,7.8
						c4.1-0.1,6.2-3.1,7.5-7.8C246,78.6,245.2,73.6,243.4,72.2z"/>
					<path class="st20" d="M232.3,73.1c2.6,1.2,5.3,2.2,8.1,3c1.9,0.5,3,0.5,3.9,1.4c0.7,0.8,0.3,7.4,0.3,7.4l2.3-4.1
						c0.1-2.3,0.1-4.5-0.1-6.8c-1.8-12.2-18.2-10.3-18.8,0c0,1.5,0,2.9,0.2,4.4l1.8,6.7c0,0-0.5-7.9,0.7-9.3
						C231.3,75.1,231.9,74.2,232.3,73.1z"/>
				</g>
			</g>
		</g>
		<path class="st21" d="M237.2,53.6v59.7c16.5,0.3,30.1-12.8,30.4-29.3s-12.8-30.1-29.3-30.4C237.9,53.6,237.5,53.6,237.2,53.6z"/>
		<circle class="st6" cx="143.8" cy="271.7" r="9.8"/>
		<path class="st6" d="M35.7,177.7c0,2.4-1.9,4.3-4.3,4.3s-4.3-1.9-4.3-4.3c0-2.4,1.9-4.3,4.3-4.3l0,0
			C33.7,173.4,35.6,175.3,35.7,177.7z"/>
		<path class="st6" d="M308,132.7c0,2.4-1.9,4.3-4.3,4.3s-4.3-1.9-4.3-4.3c0-2.4,1.9-4.3,4.3-4.3S308,130.4,308,132.7L308,132.7z"/>
		<circle class="st6" cx="28.3" cy="102.4" r="9.2"/>
		<circle class="st6" cx="54.4" cy="102.4" r="9.2"/>
		<circle class="st6" cx="80.5" cy="102.4" r="9.2"/>
		<path class="st6" d="M209.1,33h27.2c2.3,0,4.2-1.9,4.2-4.2s-1.9-4.2-4.2-4.2h-27.2c-2.3,0-4.2,1.9-4.2,4.2S206.8,33,209.1,33
			L209.1,33z"/>
		<path class="st6" d="M245.6,28.8c0-2.3,1.9-4.2,4.2-4.2s4.2,1.9,4.2,4.2s-1.9,4.2-4.2,4.2l0,0C247.5,33,245.6,31.1,245.6,28.8z"/>
		<path class="st6" d="M188.5,278.5h27.2c2.3,0,4.2-1.9,4.2-4.2c0-2.3-1.9-4.2-4.2-4.2h-27.2c-2.3,0-4.2,1.9-4.2,4.2
			C184.2,276.6,186.1,278.5,188.5,278.5L188.5,278.5z"/>
		<path class="st6" d="M225,274.2c0-2.3,1.9-4.2,4.2-4.2s4.2,1.9,4.2,4.2c0,2.3-1.9,4.2-4.2,4.2l0,0
			C226.9,278.5,225,276.6,225,274.2C225,274.3,225,274.3,225,274.2z"/>
		<path class="st6" d="M314.9,158.9h28.8c3.8,0,6.8-3.1,6.8-6.8s-3.1-6.8-6.8-6.8l0,0h-28.8c-3.8,0-6.8,3.1-6.8,6.8
			S311.1,158.9,314.9,158.9z"/>
		<circle class="st6" cx="365.5" cy="152.1" r="6.8"/>
		<path class="st6" d="M286.8,4l-3.1,3.1c-2.1,2.1-5.5,2.1-7.6,0l0,0L272.9,4c-1.7-1.8-4.6-1.9-6.4-0.2s-1.9,4.6-0.2,6.4l0.1,0.1
			l3.2,3.2c2.1,2.1,2.1,5.5,0,7.6l-3.1,3.1c-1.8,1.7-1.9,4.6-0.2,6.5c1.7,1.8,4.6,1.9,6.4,0.2l0.1-0.1l3.3-3.3
			c2.1-2.1,5.5-2.1,7.6,0l0,0l3.1,3.1c1.7,1.8,4.6,1.9,6.5,0.2c1.8-1.7,1.9-4.6,0.2-6.4l-0.1-0.1l-3.3-3.3c-2.1-2.1-2.1-5.5,0-7.6
			l3.3-3.2c1.8-1.8,1.8-4.6,0-6.4l-0.1-0.1C291.4,2.1,288.6,2.2,286.8,4z"/>
		<path class="st6" d="M39.5,146.2H37c-1.7,0-3-1.4-3-3.1v-2.5c0-1.4-1.1-2.6-2.5-2.7c-1.4,0-2.6,1.1-2.7,2.5v0.1v2.6
			c0,1.7-1.4,3.1-3.1,3.1l0,0h-2.6c-1.4,0-2.6,1.1-2.7,2.5c0,1.4,1.1,2.6,2.5,2.7H23h2.6c1.7,0,3.1,1.4,3.1,3.1l0,0v2.6
			c0,1.4,1.1,2.6,2.5,2.7c1.4,0.1,2.6-1,2.7-2.5c0-0.1,0-0.1,0-0.2v-2.6c0-1.7,1.3-3,3-3.1h2.6c1.4,0,2.6-1.2,2.6-2.6c0,0,0,0,0-0.1
			C42.1,147.3,41,146.2,39.5,146.2z"/>
	</g>
</g>
<g id="A8Rkbi.tif">
	
		<image style="overflow:visible;" width="300" height="85" id="Layer_0_1_" xlink:href="64F7D86FB3D38C30.png"  transform="matrix(1 0 0 1 -351 116)">
	</image>
</g>
</svg>
